<?xml version="1.0" encoding="utf-8"?>
<!-- Generator: Adobe Illustrator 24.2.1, SVG Export Plug-In . SVG Version: 6.00 Build 0)  -->
<svg version="1.1" id="Layer_1" xmlns="http://www.w3.org/2000/svg" xmlns:xlink="http://www.w3.org/1999/xlink" x="0px" y="0px"
	 viewBox="0 0 34.3 10.8" style="enable-background:new 0 0 34.3 10.8;" xml:space="preserve">
<style type="text/css">
	.st0{fill:#FFFFFF;}
	.st1{fill:#A6A4A4;}
	.st2{fill:url(#SVGID_1_);}
</style>
<g transform="scale(4.00216 4.0011)">
	<path class="st0" d="M8.4,2.3c0,0.1-0.1,0.2-0.2,0.2c0,0,0,0,0,0H0.4c-0.1,0-0.2-0.1-0.2-0.2V0.4c0-0.1,0.1-0.2,0.2-0.2h7.7
		c0.1,0,0.2,0.1,0.2,0.2c0,0,0,0,0,0L8.4,2.3L8.4,2.3z"/>
	<path class="st1" d="M8.1,2.6H0.4c-0.2,0-0.3-0.1-0.3-0.3V0.4c0-0.2,0.1-0.3,0.3-0.3h7.7c0.2,0,0.3,0.1,0.3,0.3v1.9
		C8.4,2.4,8.3,2.6,8.1,2.6L8.1,2.6z"/>
	<path d="M8.4,2.3c0,0.1-0.1,0.2-0.2,0.2c0,0,0,0,0,0H0.4c-0.1,0-0.2-0.1-0.2-0.2V0.4c0-0.1,0.1-0.2,0.2-0.2h7.7
		c0.1,0,0.2,0.1,0.2,0.2c0,0,0,0,0,0L8.4,2.3L8.4,2.3z"/>
	<path class="st0" d="M2,1.3C2,1.1,2.2,1,2.2,1C2.1,0.9,1.9,0.9,1.9,0.9C1.8,0.9,1.6,1,1.6,1C1.5,1,1.4,0.9,1.3,0.9
		C1.2,0.9,1.1,1,1,1.1C0.9,1.3,1,1.7,1.1,1.9C1.2,2,1.2,2.1,1.3,2.1C1.4,2.1,1.5,2,1.6,2c0.1,0,0.2,0.1,0.3,0.1C2,2.1,2,2,2.1,1.9
		c0.1-0.1,0.1-0.2,0.1-0.2C2.2,1.7,2,1.6,2,1.3L2,1.3z M1.8,0.8c0.1-0.1,0.1-0.2,0.1-0.3c-0.1,0-0.2,0.1-0.2,0.1
		c0,0.1-0.1,0.2-0.1,0.2C1.7,0.9,1.7,0.8,1.8,0.8z"/>
	
		<linearGradient id="SVGID_1_" gradientUnits="userSpaceOnUse" x1="-246.2737" y1="262.3561" x2="-246.2737" y2="263.845" gradientTransform="matrix(23.7359 0 0 -23.7231 5851.73 6226.4741)">
		<stop  offset="0" style="stop-color:#1A1A1A;stop-opacity:0.1"/>
		<stop  offset="0.123" style="stop-color:#212120;stop-opacity:0.151"/>
		<stop  offset="0.308" style="stop-color:#353535;stop-opacity:0.227"/>
		<stop  offset="0.532" style="stop-color:#575757;stop-opacity:0.318"/>
		<stop  offset="0.783" style="stop-color:#838484;stop-opacity:0.421"/>
		<stop  offset="1" style="stop-color:#B3B2B3;stop-opacity:0.51"/>
	</linearGradient>
	<path class="st2" d="M8.1,0.1H4l1.6,2.4h2.5c0.2,0,0.3-0.1,0.3-0.3V0.4C8.4,0.3,8.3,0.1,8.1,0.1z"/>
	<g>
		<path class="st0" d="M3.4,2.1H3.3L3.2,1.8H3L2.9,2.1H2.7L3,1.2h0.2L3.4,2.1L3.4,2.1z M3.2,1.7L3.1,1.5c0,0,0-0.1,0-0.2h0
			c0,0,0,0.1,0,0.2L3,1.7H3.2z M4.1,1.8c0,0.1,0,0.2-0.1,0.2C4,2,3.9,2.1,3.8,2.1C3.8,2.1,3.7,2,3.7,2v0.3H3.5V1.7
			c0-0.1,0-0.1,0-0.2h0.1l0,0.1h0c0-0.1,0.1-0.1,0.2-0.1c0.1,0,0.1,0,0.2,0.1C4.1,1.6,4.1,1.7,4.1,1.8L4.1,1.8z M4,1.8
			c0-0.1,0-0.1,0-0.1c0,0-0.1-0.1-0.1-0.1c0,0-0.1,0-0.1,0c0,0,0,0-0.1,0.1c0,0,0,0,0,0v0.1c0,0,0,0.1,0,0.1c0,0,0.1,0,0.1,0
			c0,0,0.1,0,0.1-0.1C4,1.9,4,1.8,4,1.8z M4.8,1.8c0,0.1,0,0.2-0.1,0.2c0,0.1-0.1,0.1-0.2,0.1C4.4,2.1,4.4,2,4.4,2v0.3H4.2V1.7
			c0-0.1,0-0.1,0-0.2h0.1l0,0.1h0c0-0.1,0.1-0.1,0.2-0.1c0.1,0,0.1,0,0.2,0.1C4.8,1.6,4.8,1.7,4.8,1.8L4.8,1.8z M4.7,1.8
			c0-0.1,0-0.1,0-0.1c0,0-0.1-0.1-0.1-0.1c0,0-0.1,0-0.1,0c0,0,0,0-0.1,0.1c0,0,0,0,0,0v0.1c0,0,0,0.1,0,0.1c0,0,0.1,0,0.1,0
			c0,0,0.1,0,0.1-0.1C4.6,1.9,4.7,1.8,4.7,1.8z M5.5,1.8c0,0.1,0,0.1-0.1,0.2C5.4,2,5.3,2.1,5.2,2.1C5.2,2.1,5.1,2.1,5,2l0-0.1
			C5.1,1.9,5.2,2,5.3,2c0,0,0.1,0,0.1,0c0,0,0-0.1,0-0.1c0,0,0-0.1,0-0.1c0,0-0.1,0-0.1-0.1C5.1,1.6,5,1.6,5,1.5
			c0-0.1,0-0.1,0.1-0.2c0.1,0,0.1-0.1,0.2-0.1c0.1,0,0.1,0,0.2,0l0,0.1c0,0-0.1,0-0.2,0c0,0-0.1,0-0.1,0c0,0,0,0,0,0.1
			c0,0,0,0.1,0,0.1c0,0,0.1,0,0.1,0.1c0.1,0,0.1,0.1,0.2,0.1C5.5,1.7,5.5,1.8,5.5,1.8L5.5,1.8z M6,1.6H5.8v0.3c0,0.1,0,0.1,0.1,0.1
			c0,0,0,0,0.1,0l0,0.1c0,0-0.1,0-0.1,0c-0.1,0-0.1,0-0.1,0c0,0,0-0.1,0-0.2V1.6H5.6V1.5h0.1V1.4l0.1,0v0.1L6,1.6L6,1.6L6,1.6z
			 M6.6,1.8c0,0.1,0,0.2-0.1,0.2C6.5,2,6.4,2.1,6.3,2.1C6.2,2.1,6.2,2,6.1,2C6.1,1.9,6,1.9,6,1.8c0-0.1,0-0.2,0.1-0.2
			c0.1-0.1,0.1-0.1,0.2-0.1c0.1,0,0.2,0,0.2,0.1C6.6,1.6,6.6,1.7,6.6,1.8L6.6,1.8z M6.5,1.8c0-0.1,0-0.1,0-0.1c0,0-0.1-0.1-0.1-0.1
			c-0.1,0-0.1,0-0.1,0.1c0,0,0,0.1,0,0.1c0,0.1,0,0.1,0,0.1c0,0,0.1,0.1,0.1,0.1c0,0,0.1,0,0.1-0.1C6.5,1.9,6.5,1.8,6.5,1.8L6.5,1.8
			z M7,1.6C7,1.6,7,1.6,7,1.6c-0.1,0-0.1,0-0.1,0c0,0,0,0.1,0,0.1v0.3H6.7V1.7c0-0.1,0-0.1,0-0.2h0.1l0,0.1h0c0,0,0-0.1,0.1-0.1
			c0,0,0.1,0,0.1,0c0,0,0,0,0,0L7,1.6L7,1.6z M7.6,1.7C7.6,1.8,7.6,1.8,7.6,1.7L7.2,1.8c0,0.1,0,0.1,0.1,0.1c0,0,0.1,0,0.1,0
			c0.1,0,0.1,0,0.2,0l0,0.1c-0.1,0-0.1,0-0.2,0C7.3,2.1,7.2,2,7.2,2C7.1,1.9,7.1,1.9,7.1,1.8c0-0.1,0-0.2,0.1-0.2
			c0.1-0.1,0.1-0.1,0.2-0.1c0.1,0,0.1,0,0.2,0.1C7.6,1.6,7.6,1.7,7.6,1.7L7.6,1.7z M7.5,1.7c0,0,0-0.1,0-0.1c0,0-0.1-0.1-0.1-0.1
			c0,0-0.1,0-0.1,0.1c0,0,0,0.1,0,0.1L7.5,1.7L7.5,1.7z"/>
	</g>
	<g>
		<path class="st0" d="M2.9,1C2.9,1,2.9,1,2.9,1L2.8,0.6c0,0,0.1,0,0.1,0c0.1,0,0.2,0.1,0.2,0.2C3.2,0.9,3.1,1,2.9,1z M2.9,0.6
			C2.9,0.6,2.9,0.6,2.9,0.6L2.9,0.9c0,0,0,0,0,0c0.1,0,0.2-0.1,0.2-0.2C3.1,0.6,3,0.6,2.9,0.6z M3.4,1C3.3,1,3.2,0.9,3.2,0.8
			c0-0.1,0.1-0.2,0.1-0.2c0.1,0,0.1,0.1,0.1,0.1C3.5,0.9,3.5,1,3.4,1z M3.4,0.7c0,0-0.1,0-0.1,0.1c0,0.1,0,0.1,0.1,0.1
			c0,0,0.1,0,0.1-0.1C3.4,0.7,3.4,0.7,3.4,0.7L3.4,0.7z M4,0.7L3.9,0.9H3.8l0-0.1c0,0,0-0.1,0-0.1h0c0,0,0,0.1,0,0.1l0,0.1H3.7
			L3.6,0.7h0.1l0,0.1c0,0,0,0.1,0,0.1h0c0,0,0-0.1,0-0.1l0-0.1h0.1l0,0.1c0,0,0,0.1,0,0.1h0c0,0,0-0.1,0-0.1L4,0.7L4,0.7L4,0.7z
			 M4.3,0.9L4.3,0.9L4.3,0.8c0-0.1,0-0.1-0.1-0.1c0,0-0.1,0-0.1,0.1v0.2H4.1V0.7c0,0,0-0.1,0-0.1h0.1l0,0h0c0,0,0.1-0.1,0.1-0.1
			c0.1,0,0.1,0,0.1,0.1L4.3,0.9L4.3,0.9z M4.5,0.9L4.5,0.9L4.4,0.5h0.1V0.9z M4.7,1C4.7,1,4.6,0.9,4.6,0.8c0-0.1,0.1-0.2,0.1-0.2
			c0.1,0,0.1,0.1,0.1,0.1C4.9,0.9,4.8,1,4.7,1z M4.7,0.7c0,0-0.1,0-0.1,0.1c0,0.1,0,0.1,0.1,0.1c0,0,0.1,0,0.1-0.1
			C4.8,0.7,4.8,0.7,4.7,0.7L4.7,0.7z M5.1,0.9L5.1,0.9L5.1,0.9C5.1,0.9,5.1,1,5.1,0.9C5,1,5,0.9,5,0.9C5,0.8,5,0.8,5.1,0.8v0
			c0,0,0-0.1-0.1-0.1c0,0-0.1,0-0.1,0l0,0c0,0,0.1,0,0.1,0c0.1,0,0.1,0,0.1,0.1L5.1,0.9C5.2,0.9,5.2,0.9,5.1,0.9L5.1,0.9L5.1,0.9z
			 M5.1,0.8C5.1,0.8,5,0.8,5,0.9c0,0,0,0,0,0C5.1,0.9,5.1,0.9,5.1,0.8L5.1,0.8z M5.5,0.9L5.5,0.9L5.5,0.9C5.5,0.9,5.4,1,5.5,0.9
			C5.3,1,5.3,0.9,5.3,0.8c0-0.1,0.1-0.2,0.1-0.2c0,0,0.1,0,0.1,0h0V0.5h0.1L5.5,0.9C5.6,0.9,5.6,0.9,5.5,0.9L5.5,0.9L5.5,0.9z
			 M5.5,0.8C5.5,0.7,5.5,0.7,5.5,0.8c-0.1-0.1-0.1,0-0.1,0c0,0.1,0,0.1,0.1,0.1C5.5,0.9,5.5,0.9,5.5,0.8L5.5,0.8L5.5,0.8z M6,1
			C5.9,1,5.8,0.9,5.8,0.8c0-0.1,0.1-0.2,0.1-0.2c0.1,0,0.1,0.1,0.1,0.1C6.1,0.9,6,1,6,1L6,1z M6,0.7c0,0-0.1,0-0.1,0.1
			c0,0.1,0,0.1,0.1,0.1c0,0,0.1,0,0.1-0.1C6,0.7,6,0.7,6,0.7L6,0.7z M6.4,0.9L6.4,0.9L6.4,0.8c0-0.1,0-0.1-0.1-0.1
			c0,0-0.1,0-0.1,0.1v0.2H6.2V0.7c0,0,0-0.1,0-0.1h0.1l0,0h0c0,0,0.1-0.1,0.1-0.1c0.1,0,0.1,0,0.1,0.1V0.9z M6.9,0.7L6.9,0.7
			L6.8,0.8c0,0,0,0.1,0,0.1c0,0,0,0,0,0l0,0c0,0,0,0,0,0c-0.1,0-0.1,0-0.1-0.1V0.7h0v0h0V0.6l0.1,0L6.9,0.7L6.9,0.7L6.9,0.7L6.9,0.7
			z M7.2,0.9L7.2,0.9L7.2,0.8c0-0.1,0-0.1-0.1-0.1c0,0-0.1,0-0.1,0.1v0.2H7V0.5H7v0.2h0c0,0,0,0,0.1,0c0.1,0,0.1,0,0.1,0.1L7.2,0.9
			L7.2,0.9z M7.6,0.8H7.4c0,0.1,0,0.1,0.1,0.1C7.5,0.9,7.5,0.9,7.6,0.8l0,0.1c0,0-0.1,0-0.1,0C7.4,1,7.3,0.9,7.3,0.8
			c0-0.1,0.1-0.2,0.1-0.2C7.5,0.7,7.6,0.7,7.6,0.8C7.6,0.8,7.6,0.8,7.6,0.8L7.6,0.8z M7.5,0.8C7.5,0.7,7.5,0.7,7.5,0.8
			c-0.1-0.1-0.1,0-0.1,0H7.5L7.5,0.8z"/>
	</g>
</g>
</svg>
