<?xml version="1.0" encoding="utf-8"?>
<!-- Generator: Adobe Illustrator 24.2.1, SVG Export Plug-In . SVG Version: 6.00 Build 0)  -->
<svg version="1.1" id="Layer_1" xmlns="http://www.w3.org/2000/svg" xmlns:xlink="http://www.w3.org/1999/xlink" x="0px" y="0px"
	 viewBox="0 0 34.3 10.8" style="enable-background:new 0 0 34.3 10.8;" xml:space="preserve">
<style type="text/css">
	.st0{fill:#A6A4A4;}
	.st1{fill:#FFFFFF;stroke:#FFFFFF;stroke-width:4.914858e-02;stroke-miterlimit:59.2593;}
	.st2{fill:#FFFFFF;}
	.st3{fill:url(#SVGID_1_);}
	.st4{fill:url(#SVGID_2_);}
	.st5{fill:url(#SVGID_3_);}
	.st6{fill:url(#SVGID_4_);}
	.st7{opacity:0.2;enable-background:new    ;}
	.st8{opacity:0.12;enable-background:new    ;}
	.st9{opacity:0.25;fill:#FFFFFF;enable-background:new    ;}
</style>
<g>
	<path d="M32.5,10.3H1.8c-0.7,0-1.2-0.5-1.2-1.2V1.7c0-0.7,0.5-1.2,1.2-1.2h30.7c0.7,0,1.2,0.5,1.2,1.2v7.4
		C33.7,9.8,33.2,10.3,32.5,10.3z"/>
	<path class="st0" d="M32.5,0.7c0.6,0,1,0.5,1,1v7.4c0,0.6-0.5,1-1,1H1.8c-0.6,0-1-0.5-1-1V1.7c0-0.6,0.5-1,1-1H32.5 M32.5,0.5H1.8
		c-0.7,0-1.2,0.6-1.2,1.2v7.4c0,0.7,0.5,1.2,1.2,1.2h30.7c0.7,0,1.2-0.5,1.2-1.2V1.7C33.7,1.1,33.2,0.5,32.5,0.5z"/>
	<path class="st1" d="M12.2,3c0,0.2,0,0.4-0.2,0.5c-0.1,0.1-0.3,0.2-0.5,0.2c-0.2,0-0.4-0.1-0.5-0.2c-0.1-0.1-0.2-0.3-0.2-0.5
		s0.1-0.4,0.2-0.5c0.1-0.1,0.3-0.2,0.5-0.2c0.1,0,0.2,0,0.3,0.1c0.1,0,0.2,0.1,0.2,0.2l-0.1,0.1c-0.1-0.1-0.2-0.2-0.4-0.2
		c-0.1,0-0.3,0-0.4,0.2c-0.1,0.1-0.2,0.2-0.2,0.4s0,0.3,0.2,0.4s0.2,0.2,0.4,0.2c0.2,0,0.3,0,0.4-0.2C12,3.3,12,3.2,12,3.1h-0.5V2.9
		L12.2,3L12.2,3L12.2,3z M13.3,2.4h-0.7v0.5h0.6V3h-0.6v0.5h0.7v0.2h-0.9V2.2h0.9V2.4z M14.1,3.7h-0.2V2.4h-0.4V2.2h1v0.2h-0.4V3.7z
		 M15.2,3.7V2.2h0.2v1.5H15.2z M16.3,3.7h-0.2V2.4h-0.4V2.2h1v0.2h-0.4L16.3,3.7L16.3,3.7z M18.6,3.5c-0.1,0.1-0.3,0.2-0.5,0.2
		s-0.4-0.1-0.5-0.2c-0.1-0.1-0.2-0.3-0.2-0.5s0.1-0.4,0.2-0.5c0.1-0.1,0.3-0.2,0.5-0.2c0.2,0,0.4,0.1,0.5,0.2s0.2,0.3,0.2,0.5
		S18.8,3.3,18.6,3.5z M17.7,3.4c0.1,0.1,0.2,0.2,0.4,0.2c0.1,0,0.3,0,0.4-0.2c0.1-0.1,0.2-0.2,0.2-0.4s0-0.3-0.2-0.4
		c-0.1-0.1-0.2-0.2-0.4-0.2c-0.1,0-0.3,0-0.4,0.2c-0.1,0.1-0.2,0.2-0.2,0.4S17.6,3.3,17.7,3.4z M19.1,3.7V2.2h0.2L20,3.4V2.2h0.2
		v1.5H20l-0.8-1.2v1.2H19.1L19.1,3.7z"/>
	<path class="st2" d="M17.3,5.8c-0.6,0-1.1,0.4-1.1,1.1c0,0.6,0.5,1.1,1.1,1.1s1.1-0.4,1.1-1.1C18.3,6.3,17.9,5.8,17.3,5.8z
		 M17.3,7.5c-0.3,0-0.6-0.3-0.6-0.6c0-0.4,0.3-0.6,0.6-0.6c0.3,0,0.6,0.2,0.6,0.6C17.9,7.3,17.6,7.5,17.3,7.5z M15,5.8
		c-0.6,0-1.1,0.4-1.1,1.1C13.9,7.5,14.4,8,15,8S16,7.5,16,6.9C16,6.3,15.6,5.8,15,5.8z M15,7.5c-0.3,0-0.6-0.3-0.6-0.6
		c0-0.4,0.3-0.6,0.6-0.6c0.3,0,0.6,0.2,0.6,0.6C15.6,7.3,15.3,7.5,15,7.5z M12.3,6.2v0.4h1.1c0,0.2-0.1,0.4-0.2,0.6
		c-0.1,0.1-0.4,0.3-0.8,0.3c-0.7,0-1.2-0.5-1.2-1.2s0.5-1.2,1.2-1.2c0.3,0,0.6,0.1,0.8,0.3l0.3-0.3c-0.3-0.2-0.6-0.4-1.1-0.4
		c-0.9,0-1.6,0.7-1.6,1.6s0.8,1.6,1.6,1.6c0.5,0,0.8-0.1,1.1-0.5c0.3-0.3,0.4-0.7,0.4-1c0-0.1,0-0.2,0-0.3L12.3,6.2L12.3,6.2z
		 M23.4,6.5c-0.1-0.2-0.3-0.7-0.9-0.7s-1,0.4-1,1.1c0,0.6,0.4,1.1,1,1.1c0.5,0,0.8-0.3,0.9-0.5l-0.3-0.2c-0.1,0.2-0.3,0.3-0.5,0.3
		s-0.4-0.1-0.5-0.3l1.4-0.6L23.4,6.5L23.4,6.5z M22,6.9c0-0.4,0.3-0.6,0.5-0.6c0.2,0,0.3,0.1,0.4,0.2L22,6.9L22,6.9z M20.8,7.9h0.5
		V4.8h-0.5V7.9z M20.1,6.1c-0.1-0.1-0.3-0.2-0.6-0.2c-0.5,0-1,0.5-1,1.1s0.5,1,1,1c0.2,0,0.4-0.1,0.5-0.2h0v0.1
		c0,0.4-0.2,0.6-0.6,0.6c-0.3,0-0.5-0.2-0.5-0.4l-0.4,0.2c0.1,0.3,0.4,0.6,0.9,0.6c0.5,0,1-0.3,1-1.1V5.9h-0.4L20.1,6.1L20.1,6.1z
		 M19.5,7.5c-0.3,0-0.6-0.3-0.6-0.6c0-0.4,0.3-0.6,0.6-0.6c0.3,0,0.6,0.3,0.6,0.6C20.1,7.3,19.9,7.5,19.5,7.5z M25.5,4.8h-1.1v3.1
		h0.5V6.7h0.6c0.5,0,1-0.4,1-1S26.1,4.8,25.5,4.8z M25.6,6.3h-0.7V5.2h0.7c0.3,0,0.5,0.3,0.5,0.5C26.1,6,25.9,6.3,25.6,6.3L25.6,6.3
		z M28.4,5.8c-0.3,0-0.7,0.1-0.8,0.5L28,6.5c0.1-0.2,0.2-0.2,0.4-0.2c0.2,0,0.5,0.1,0.5,0.4v0c-0.1,0-0.3-0.1-0.5-0.1
		c-0.4,0-0.9,0.2-0.9,0.7c0,0.4,0.4,0.7,0.8,0.7c0.3,0,0.5-0.1,0.6-0.3h0v0.2h0.4V6.7C29.3,6.1,28.9,5.8,28.4,5.8L28.4,5.8z
		 M28.3,7.5c-0.1,0-0.4-0.1-0.4-0.3c0-0.2,0.3-0.3,0.5-0.3c0.2,0,0.3,0,0.4,0.1C28.8,7.3,28.6,7.5,28.3,7.5z M30.9,5.9l-0.5,1.3h0
		l-0.5-1.3h-0.5l0.8,1.9l-0.5,1h0.5l1.3-2.9H30.9L30.9,5.9z M26.8,7.9h0.5V4.8h-0.5V7.9z"/>
	<g>
		
			<linearGradient id="SVGID_1_" gradientUnits="userSpaceOnUse" x1="-317.9548" y1="619.7848" x2="-318.6508" y2="620.4807" gradientTransform="matrix(5.9259 0 0 5.9259 1890.0614 -3670.167)">
			<stop  offset="0" style="stop-color:#4896D1"/>
			<stop  offset="7.000001e-03" style="stop-color:#4998D2"/>
			<stop  offset="0.26" style="stop-color:#41B8EA"/>
			<stop  offset="0.512" style="stop-color:#3FC6F1"/>
			<stop  offset="0.76" style="stop-color:#55C8E8"/>
			<stop  offset="1" style="stop-color:#5AC8E7"/>
		</linearGradient>
		<path class="st3" d="M3.1,2.3C3,2.4,3,2.5,3,2.7v5.4c0,0.1,0,0.3,0.1,0.3l0,0l3-3v0L3.1,2.3z"/>
		
			<linearGradient id="SVGID_2_" gradientUnits="userSpaceOnUse" x1="-317.4555" y1="620.2552" x2="-318.459" y2="620.2552" gradientTransform="matrix(5.9259 0 0 5.9259 1890.0614 -3670.167)">
			<stop  offset="0" style="stop-color:#FDDF00"/>
			<stop  offset="0.409" style="stop-color:#FDBC11"/>
			<stop  offset="0.775" style="stop-color:#F9A31A"/>
			<stop  offset="1" style="stop-color:#F89B1C"/>
		</linearGradient>
		<path class="st4" d="M7.2,6.5l-1-1V5.4l1-1l0,0l1.2,0.7c0.3,0.2,0.3,0.5,0,0.7L7.2,6.5z"/>
		
			<linearGradient id="SVGID_3_" gradientUnits="userSpaceOnUse" x1="-317.8295" y1="620.3479" x2="-318.7733" y2="621.2916" gradientTransform="matrix(5.9259 0 0 5.9259 1890.0614 -3670.167)">
			<stop  offset="0" style="stop-color:#EE3F49"/>
			<stop  offset="1" style="stop-color:#C11E63"/>
		</linearGradient>
		<path class="st5" d="M7.2,6.4l-1-1L3.1,8.5c0.1,0.1,0.3,0.1,0.5,0L7.2,6.4"/>
		
			<linearGradient id="SVGID_4_" gradientUnits="userSpaceOnUse" x1="-318.5575" y1="619.4326" x2="-318.136" y2="619.854" gradientTransform="matrix(5.9259 0 0 5.9259 1890.0614 -3670.167)">
			<stop  offset="0" style="stop-color:#319F71"/>
			<stop  offset="6.900000e-02" style="stop-color:#2BA670"/>
			<stop  offset="0.476" style="stop-color:#4AB870"/>
			<stop  offset="0.801" style="stop-color:#5DBC6A"/>
			<stop  offset="1" style="stop-color:#66BD68"/>
		</linearGradient>
		<path class="st6" d="M7.2,4.4l-3.6-2c-0.2-0.1-0.4-0.1-0.5,0l3.1,3L7.2,4.4L7.2,4.4z"/>
		<path class="st7" d="M7.2,6.4l-3.6,2c-0.2,0.1-0.4,0.1-0.5,0l0,0l0,0c0.1,0.1,0.3,0.1,0.5,0L7.2,6.4z"/>
		<path class="st8" d="M3.1,8.4C3,8.4,3,8.2,3,8.1v0C3,8.3,3,8.4,3.1,8.4L3.1,8.4L3.1,8.4L3.1,8.4z M8.4,5.7L7.2,6.4l0,0L8.4,5.7
			c0.2-0.1,0.2-0.2,0.2-0.3C8.6,5.5,8.5,5.6,8.4,5.7z"/>
		<path class="st9" d="M3.6,2.4l4.8,2.7c0.1,0.1,0.2,0.2,0.2,0.3c0-0.1-0.1-0.2-0.2-0.3L3.6,2.4C3.3,2.1,3,2.3,3,2.7v0
			C3,2.3,3.3,2.2,3.6,2.4z"/>
	</g>
</g>
</svg>
