<?xml version="1.0" encoding="utf-8"?>
<!-- Generator: Adobe Illustrator 24.2.1, SVG Export Plug-In . SVG Version: 6.00 Build 0)  -->
<svg version="1.1" id="Layer_1" xmlns="http://www.w3.org/2000/svg" xmlns:xlink="http://www.w3.org/1999/xlink" x="0px" y="0px"
	 viewBox="0 0 842.6 389.1" style="enable-background:new 0 0 842.6 389.1;" xml:space="preserve">
<style type="text/css">
	.st0{fill:url(#SVGID_1_);}
	.st1{fill:url(#SVGID_2_);}
	.st2{fill:url(#SVGID_3_);}
	.st3{fill:url(#SVGID_4_);}
	.st4{fill:url(#SVGID_5_);}
	.st5{fill:url(#SVGID_6_);}
	.st6{fill:url(#SVGID_7_);}
	.st7{fill:url(#SVGID_8_);}
	.st8{fill:url(#SVGID_9_);}
	.st9{fill:#070707;}
	.st10{fill:url(#SVGID_10_);}
	.st11{fill:url(#SVGID_11_);}
	.st12{fill:url(#SVGID_12_);}
	.st13{fill:url(#SVGID_13_);}
	.st14{fill:url(#SVGID_14_);}
	.st15{fill:url(#SVGID_15_);}
	.st16{fill:url(#SVGID_16_);}
	.st17{fill:url(#SVGID_17_);}
	.st18{fill:url(#SVGID_18_);}
	.st19{fill:url(#SVGID_19_);}
	.st20{fill:url(#SVGID_20_);}
	.st21{fill:url(#SVGID_21_);}
	.st22{fill:url(#SVGID_22_);}
	.st23{fill:url(#SVGID_23_);}
</style>
<g>
	
		<linearGradient id="SVGID_1_" gradientUnits="userSpaceOnUse" x1="-228.5843" y1="596.8715" x2="941.38" y2="601.2866" gradientTransform="matrix(1 0 0 1 0 -403.5652)">
		<stop  offset="0" style="stop-color:#A4874F"/>
		<stop  offset="0.417" style="stop-color:#FFCD7B"/>
		<stop  offset="1" style="stop-color:#E1B071"/>
	</linearGradient>
	<path class="st0" d="M116.9,340.7c-57,0-79.3-50.7-84.2-94.9l-23,35.5c20.8,37.9,59.8,61.4,110.5,61.4c61.2,0,105-33.9,105-84.4
		c0-99.3-165.6-74.7-165.6-153.5c0-34.3,30.6-56.2,62.3-56.2c46.6,0,68.2,49.9,72.2,89.8l23-35.5c-18.5-33.7-55.5-56.5-98.6-56.5
		c-43.8,0-95.3,23.8-95.3,78.5c0,97,162.4,69.3,162.4,155.1C185.3,315.9,156.7,340.7,116.9,340.7z"/>
	
		<linearGradient id="SVGID_2_" gradientUnits="userSpaceOnUse" x1="-228.5801" y1="595.7447" x2="941.3843" y2="600.1596" gradientTransform="matrix(1 0 0 1 0 -403.5652)">
		<stop  offset="0" style="stop-color:#A4874F"/>
		<stop  offset="0.417" style="stop-color:#FFCD7B"/>
		<stop  offset="1" style="stop-color:#E1B071"/>
	</linearGradient>
	<path class="st1" d="M381.4,342.6c89,0,136.9-59.5,136.9-148.8c0-89.4-47.9-147.5-136.9-147.5c-89.4,0-137.8,58.3-137.8,147.5
		C243.7,283.4,292,342.6,381.4,342.6z M381.4,50.7c64.2,0,95.7,61.7,95.7,147.3s-31.4,140.8-95.7,140.8
		c-64.6,0-96.6-55.5-96.6-140.8S316.6,50.7,381.4,50.7z"/>
	
		<linearGradient id="SVGID_3_" gradientUnits="userSpaceOnUse" x1="-228.5762" y1="594.7247" x2="941.388" y2="599.1395" gradientTransform="matrix(1 0 0 1 0 -403.5652)">
		<stop  offset="0" style="stop-color:#A4874F"/>
		<stop  offset="0.417" style="stop-color:#FFCD7B"/>
		<stop  offset="1" style="stop-color:#E1B071"/>
	</linearGradient>
	<path class="st2" d="M670.1,342.6c27.6,0,52.8-9.5,73-25.5c2.5-0.8,4.4-1.1,6.7-1.1c10.7,0,20.4,7.9,26.3,22.7h1.9v-39h-41v17.1
		c-18.3,13.2-39.8,21.9-61.2,21.9c-56.2,0-93.4-59.5-93.4-144.8c0-85.8,37.1-145.6,88.6-145.6c45.2,0,81,46.3,84.4,99h1.9l22.5-34.7
		c-20.4-37.6-62.3-66.3-110.1-66.3C600,46.5,537,107.9,537,194.6C537.4,280.5,600.8,342.6,670.1,342.6z"/>
	
		<linearGradient id="SVGID_4_" gradientUnits="userSpaceOnUse" x1="-228.6083" y1="603.2234" x2="941.3563" y2="607.6384" gradientTransform="matrix(1 0 0 1 0 -403.5652)">
		<stop  offset="0" style="stop-color:#A4874F"/>
		<stop  offset="0.417" style="stop-color:#FFCD7B"/>
		<stop  offset="1" style="stop-color:#E1B071"/>
	</linearGradient>
	<polygon class="st3" points="684.4,217 724.5,217 750.5,189.5 709.2,189.5 	"/>
	
		<linearGradient id="SVGID_5_" gradientUnits="userSpaceOnUse" x1="-228.6087" y1="603.3272" x2="941.3558" y2="607.7424" gradientTransform="matrix(1 0 0 1 0 -403.5652)">
		<stop  offset="0" style="stop-color:#A4874F"/>
		<stop  offset="0.417" style="stop-color:#FFCD7B"/>
		<stop  offset="1" style="stop-color:#E1B071"/>
	</linearGradient>
	<polygon class="st4" points="758.8,189.5 730.6,217.4 785.8,217.4 	"/>
	
		<linearGradient id="SVGID_6_" gradientUnits="userSpaceOnUse" x1="-228.6079" y1="603.1185" x2="941.3566" y2="607.5334" gradientTransform="matrix(1 0 0 1 0 -403.5652)">
		<stop  offset="0" style="stop-color:#A4874F"/>
		<stop  offset="0.417" style="stop-color:#FFCD7B"/>
		<stop  offset="1" style="stop-color:#E1B071"/>
	</linearGradient>
	<polygon class="st5" points="792.8,217.4 832.9,217.4 807.3,189.5 767.5,189.5 	"/>
	
		<linearGradient id="SVGID_7_" gradientUnits="userSpaceOnUse" x1="-228.8159" y1="658.2533" x2="941.1485" y2="662.6683" gradientTransform="matrix(1 0 0 1 0 -403.5652)">
		<stop  offset="0" style="stop-color:#A4874F"/>
		<stop  offset="0.417" style="stop-color:#FFCD7B"/>
		<stop  offset="1" style="stop-color:#E1B071"/>
	</linearGradient>
	<polygon class="st6" points="785.9,223.2 730.6,223.2 758.9,293.7 	"/>
	
		<linearGradient id="SVGID_8_" gradientUnits="userSpaceOnUse" x1="-228.8155" y1="658.1564" x2="941.1487" y2="662.5714" gradientTransform="matrix(1 0 0 1 0 -403.5652)">
		<stop  offset="0" style="stop-color:#A4874F"/>
		<stop  offset="0.417" style="stop-color:#FFCD7B"/>
		<stop  offset="1" style="stop-color:#E1B071"/>
	</linearGradient>
	<polygon class="st7" points="792,223.2 764.3,293.7 831.9,223.2 	"/>
	
		<linearGradient id="SVGID_9_" gradientUnits="userSpaceOnUse" x1="-228.8163" y1="658.3792" x2="941.1479" y2="662.7941" gradientTransform="matrix(1 0 0 1 0 -403.5652)">
		<stop  offset="0" style="stop-color:#A4874F"/>
		<stop  offset="0.417" style="stop-color:#FFCD7B"/>
		<stop  offset="1" style="stop-color:#E1B071"/>
	</linearGradient>
	<polygon class="st8" points="753.7,293.7 724.5,223.2 684.4,223.2 	"/>
</g>
</svg>
