<?xml version="1.0" encoding="utf-8"?>
<!-- Generator: Adobe Illustrator 24.2.1, SVG Export Plug-In . SVG Version: 6.00 Build 0)  -->
<svg version="1.1" id="Layer_1" xmlns="http://www.w3.org/2000/svg" xmlns:xlink="http://www.w3.org/1999/xlink" x="0px" y="0px"
	 viewBox="0 0 807.7 359.5" style="enable-background:new 0 0 807.7 359.5;" xml:space="preserve">
<style type="text/css">
	.st0{fill:#400F45;}
</style>
<g>
	<g>
		<path class="st0" d="M182.5,240.9c-41.4,0-57.6-36.8-61.1-68.9l-16.7,25.8c15.1,27.5,43.4,44.6,80.2,44.6
			c44.4,0,76.2-24.6,76.2-61.3c0-72.1-120.2-54.2-120.2-111.4c0-24.9,22.2-40.8,45.2-40.8c33.8,0,49.5,36.2,52.4,65.2l16.7-25.8
			c-13.4-24.5-40.3-41-71.6-41c-31.8,0-69.2,17.3-69.2,57c0,70.4,117.9,50.3,117.9,112.6C232.2,222.9,211.4,240.9,182.5,240.9z"/>
		<path class="st0" d="M374.5,242.3c64.6,0,99.4-43.2,99.4-108c0-64.9-34.8-107.1-99.4-107.1c-64.9,0-100,42.3-100,107.1
			C274.6,199.3,309.6,242.3,374.5,242.3z M374.5,30.4c46.6,0,69.5,44.8,69.5,106.9s-22.8,102.2-69.5,102.2
			c-46.9,0-70.1-40.3-70.1-102.2S327.5,30.4,374.5,30.4z"/>
		<path class="st0" d="M584.1,242.3c20,0,38.3-6.9,53-18.5c1.8-0.6,3.2-0.8,4.9-0.8c7.8,0,14.8,5.7,19.1,16.5h1.4v-28.3h-29.8v12.4
			c-13.3,9.6-28.9,15.9-44.4,15.9c-40.8,0-67.8-43.2-67.8-105.1c0-62.3,26.9-105.7,64.3-105.7c32.8,0,58.8,33.6,61.3,71.9h1.4
			l16.3-25.2c-14.8-27.3-45.2-48.1-79.9-48.1c-50.7,0-96.4,44.6-96.4,107.5C487.8,197.2,533.8,242.3,584.1,242.3z"/>
		<polygon class="st0" points="594.5,151.1 623.6,151.1 642.5,131.1 612.5,131.1 		"/>
		<polygon class="st0" points="648.5,131.1 628,151.4 668.1,151.4 		"/>
		<polygon class="st0" points="673.2,151.4 702.3,151.4 683.7,131.1 654.8,131.1 		"/>
		<polygon class="st0" points="668.2,155.6 628,155.6 648.6,206.8 		"/>
		<polygon class="st0" points="672.6,155.6 652.5,206.8 701.6,155.6 		"/>
		<polygon class="st0" points="644.8,206.8 623.6,155.6 594.5,155.6 		"/>
	</g>
	<g>
		<path class="st0" d="M24.6,323.1c0,2.8,0.6,4.8,1.9,5.7s3.7,1.4,7.6,1.4c2.8,0,5.1-0.3,6.8-0.9s2.9-1.5,3.9-2.8
			c0.6-0.8,1.1-1.9,1.4-3.2c0.3-1.4,0.6-2,1.1-2c0.2,0,0.3,0,0.3,0.2s0.2,0.5,0.2,0.9l-0.2,8c0,0.6-0.2,1.1-0.3,1.2
			c-0.2,0.2-0.5,0.3-1.1,0.3c-0.2,0-0.8,0-1.9,0c-5.6-0.3-11.1-0.5-16.8-0.5c-4.5,0-8.8,0.2-12.8,0.3c-0.5,0-0.8,0-0.9,0
			c-0.3,0-0.6,0-0.8-0.2c-0.2-0.2-0.3-0.3-0.3-0.5c0-0.5,0.5-0.6,1.4-0.8c0.2,0,0.2,0,0.2,0c0.5,0,0.9-0.2,1.2-0.2
			c0.3-0.2,0.6-0.2,0.9-0.3c0.8-0.3,1.2-0.8,1.5-1.5c0.3-0.6,0.5-1.7,0.5-3.4v-26.9c0-1.5-0.2-2.6-0.5-3.2s-0.8-1.1-1.5-1.4
			c-0.3-0.2-0.6-0.2-1.1-0.3c-0.3-0.2-0.8-0.2-1.2-0.2h-0.2c-0.9-0.2-1.4-0.3-1.4-0.6c0-0.2,0.2-0.3,0.3-0.5
			c0.2-0.2,0.5-0.2,0.8-0.2c0.2,0,0.5,0,0.9,0c2.3,0.2,4.6,0.2,6.8,0.2c2.3,0,4.8,0,7.1-0.2c0.5,0,0.6,0,0.8,0c0.3,0,0.6,0,0.8,0.2
			s0.3,0.2,0.3,0.5s-0.5,0.5-1.2,0.6c-0.2,0-0.2,0-0.3,0c-0.3,0-0.6,0-0.9,0s-0.6,0.2-1.1,0.2c-0.9,0.3-1.5,0.8-1.9,1.4
			c-0.3,0.8-0.5,1.9-0.5,3.6v25L24.6,323.1L24.6,323.1z"/>
		<path class="st0" d="M76.2,321.6c0,3.9,0.6,6.3,1.7,7.3c1.1,0.9,3.6,1.4,7.1,1.4c2.9,0,5.1-0.3,6.6-0.8c1.5-0.6,2.6-1.5,3.4-2.9
			c0.5-0.8,0.8-1.5,0.9-2.6c0.3-1.1,0.5-1.5,0.9-1.5c0.3,0,0.5,0.2,0.5,0.3c0.2,0.2,0.2,0.8,0.2,1.5c0,0.6,0,1.5-0.2,2.9
			s-0.2,2.3-0.2,3.1c0,0.8-0.2,1.2-0.3,1.4c-0.2,0.2-0.8,0.3-1.7,0.3c-0.2,0-0.8,0-1.7,0c-6.6-0.2-13.4-0.3-20.6-0.3
			c-2.5,0-4.8,0.2-7.1,0.3c-0.3,0-0.6,0-0.6,0c-0.3,0-0.6,0-0.8-0.2c-0.2-0.2-0.3-0.3-0.3-0.5c0-0.5,0.5-0.6,1.4-0.8h0.2
			c0.5,0,0.9-0.2,1.2-0.2c0.3-0.2,0.6-0.2,0.9-0.3c0.8-0.3,1.2-0.8,1.5-1.5c0.3-0.6,0.5-1.7,0.5-3.4v-26.9c0-1.5-0.2-2.6-0.5-3.2
			s-0.8-1.1-1.5-1.4c-0.3-0.2-0.6-0.2-0.9-0.3c-0.3-0.2-0.8-0.2-1.2-0.2h-0.2c-0.9-0.2-1.4-0.3-1.4-0.6c0-0.2,0.2-0.3,0.3-0.5
			c0.2-0.2,0.5-0.2,0.8-0.2c0.2,0,0.5,0,0.9,0c2.8,0.2,5.7,0.2,8.5,0.2c1.4,0,3.6,0,7-0.2c3.2,0,5.9-0.2,7.9-0.2h1.2
			c1.5,0,2.6,0.2,2.9,0.3c0.5,0.2,0.6,0.6,0.6,1.1c0,0.2,0,0.5-0.2,1.2c0,0.8-0.2,1.4-0.2,2s0,1.2,0.2,1.9s0.2,1.1,0.2,1.2
			c0,0.3,0,0.6-0.2,0.8s-0.3,0.2-0.5,0.2c-0.5,0-0.6-0.5-0.8-1.5c-0.2-1.1-0.5-1.9-0.8-2.5c-0.8-1.2-1.9-2-3.2-2.5
			c-1.5-0.5-4-0.8-7.6-0.8h-0.5c-2.2,0-3.6,0.2-3.9,0.5c-0.5,0.3-0.6,1.2-0.6,2.8v13.8c2.8-0.2,4.8-0.5,6-0.9
			c1.2-0.5,2.2-1.2,2.8-2.3c0.5-0.6,0.8-1.5,0.9-2.8c0.2-1.2,0.5-1.9,0.8-1.9s0.5,0.2,0.5,0.3c0.2,0.2,0.2,0.5,0.2,0.8
			s0,1.1-0.2,2.5s-0.2,2.8-0.2,3.9c0,1.5,0,3.2,0.2,4.9c0.2,1.7,0.2,2.6,0.2,2.6c0,0.3,0,0.6-0.2,0.8c-0.2,0.2-0.3,0.3-0.5,0.3
			c-0.3,0-0.5-0.5-0.8-1.2c-0.2-0.8-0.5-1.5-0.6-2.2c-0.6-1.2-1.5-2.2-2.8-2.6s-3.1-0.8-5.4-0.8h-1.1v10.1H76.2z"/>
		<path class="st0" d="M153.4,327.4c-0.9,0-1.9,0.2-2.6,0.3c-0.8,0.2-1.4,0.3-2,0.6c-0.5,0.2-1.1,0.5-1.9,0.9
			c-4.3,2.3-8.2,3.4-11.7,3.4c-2.9,0-5.6-0.5-8-1.5c-2.5-0.9-4.6-2.5-6.5-4.3c-1.9-1.9-3.2-3.9-4-6.2c-0.9-2.3-1.4-4.8-1.4-7.7
			c0-6.6,2-11.9,5.9-16.1s9-6.2,15.3-6.2c3.4,0,6.8,0.8,10.2,2.3c0.9,0.5,1.5,0.6,1.9,0.6s0.6-0.3,0.9-0.9c0.3-0.6,0.6-0.9,0.8-0.9
			c0.3,0,0.5,0.2,0.5,0.3c0.2,0.2,0.2,0.5,0.2,0.9v0.6l-0.3,8.8c0,0.3,0,0.5-0.2,0.6c-0.2,0.2-0.2,0.2-0.5,0.2s-0.6-0.5-0.8-1.2
			c-0.2-0.6-0.3-1.1-0.5-1.5c-1.1-2.8-2.5-4.9-4.3-6.3c-1.9-1.4-4.2-2-7.1-2c-4.8,0-8.5,1.7-11,5.1s-3.7,8.5-3.7,15
			c0,6,1.2,10.7,3.7,14.1s5.9,5.1,10,5.1c3.6,0,6.2-0.8,7.9-2.3s2.5-4,2.5-7.4c0-1.2-0.2-2.2-0.6-2.9c-0.3-0.8-0.9-1.2-1.5-1.5
			c-0.3-0.2-0.6-0.2-1.1-0.3c-0.3-0.2-0.6-0.2-0.9-0.2c0,0-0.2,0-0.3,0c-0.8-0.2-1.2-0.5-1.2-0.8c0-0.2,0.2-0.3,0.3-0.5
			c0.3-0.2,0.6-0.2,0.9-0.2c0.2,0,0.5,0,1.1,0.2c2,0.2,4,0.3,5.9,0.3c2,0,4-0.2,6-0.3c0.5,0,0.8-0.2,0.8-0.2c0.3,0,0.6,0,0.8,0.2
			s0.3,0.3,0.3,0.5c0,0.3-0.3,0.6-0.9,0.8c-0.2,0-0.2,0-0.2,0.2c-0.3,0-0.6,0.2-0.9,0.2c-0.3,0.2-0.6,0.3-0.9,0.5
			c-0.6,0.3-0.9,0.8-1.2,1.4c-0.2,0.6-0.3,1.7-0.3,3.6v0.6c0,0.9,0,1.7,0,2.5C152.5,326.2,153.2,326.8,153.4,327.4z"/>
		<path class="st0" d="M180.4,317.2l-2.6,6.6c-0.3,0.6-0.5,1.2-0.6,1.9c-0.2,0.6-0.2,1.1-0.2,1.5c0,0.8,0.2,1.4,0.5,1.9
			s0.8,0.9,1.5,1.1c0.5,0.2,0.6,0.2,0.9,0.3c0.2,0,0.3,0,0.5,0c0.5,0,0.8,0.2,1.1,0.3c0.2,0.2,0.3,0.3,0.3,0.5s-0.2,0.3-0.3,0.3
			c-0.2,0.2-0.5,0.2-0.8,0.2c-0.2,0-0.8,0-2-0.2s-2.5-0.2-3.6-0.2c-0.9,0-1.9,0-2.9,0.2c-1.1,0.2-1.9,0.2-2,0.2
			c-0.5,0-0.9,0-1.1-0.2c-0.3-0.2-0.3-0.3-0.3-0.5s0.2-0.3,0.3-0.5c0.2-0.2,0.5-0.2,0.9-0.3s0.9-0.2,1.4-0.3
			c0.3-0.2,0.8-0.3,1.1-0.5c0.6-0.3,1.4-0.9,2-1.9c0.6-0.9,1.4-2.3,2.2-4.2l13.3-31.8c0.2-0.5,0.3-0.8,0.5-0.9s0.3-0.3,0.6-0.3
			c0.2,0,0.5,0.2,0.6,0.3c0.2,0.2,0.3,0.5,0.6,0.9l13.3,33.2c0.6,1.4,1.1,2.5,1.7,3.2c0.6,0.8,1.2,1.2,1.9,1.5
			c0.3,0.2,0.6,0.2,0.9,0.3c0.3,0.2,0.6,0.2,1.1,0.2c0.6,0,0.9,0.2,1.1,0.3c0.2,0.2,0.3,0.3,0.3,0.5s-0.2,0.3-0.3,0.5
			c-0.2,0.2-0.5,0.2-0.9,0.2s-1.5,0-3.2-0.2c-1.7,0-3.1-0.2-4.3-0.2c-0.8,0-2,0-3.6,0.2c-1.5,0.2-2.8,0.2-3.7,0.2
			c-0.5,0-0.9,0-1.1-0.2c-0.3-0.2-0.5-0.3-0.5-0.5s0.2-0.3,0.3-0.5c0.3-0.2,0.8-0.3,1.4-0.5c1.1-0.2,2-0.3,2.5-0.6
			c0.5-0.3,0.8-0.8,0.8-1.4c0-0.5-0.2-0.9-0.3-1.7c-0.2-0.8-0.3-1.4-0.6-2.2l-2.8-7.3h-15.8L180.4,317.2L180.4,317.2z M181.2,315.5
			h13.9l-6.6-17.3L181.2,315.5z"/>
		<path class="st0" d="M260.8,330.4c0,0.2,0,0.3-0.2,0.5s-0.3,0.2-0.5,0.2c-0.3,0-0.6-0.3-0.8-1.1c-0.3-0.8-0.6-1.1-1.2-1.1
			c-0.5,0-1.1,0.3-1.9,0.8c-0.3,0.3-0.6,0.5-0.9,0.6c-1.5,0.9-3.2,1.5-5.1,2c-1.7,0.5-3.6,0.6-5.4,0.6c-2.8,0-5.4-0.5-7.9-1.4
			s-4.6-2.2-6.5-3.9c-2-1.9-3.6-4-4.5-6.5c-1.1-2.5-1.5-5.3-1.5-8.3c0-2.3,0.3-4.6,0.9-6.8c0.6-2.2,1.5-4.2,2.6-6
			c1.9-2.9,4.5-5.3,7.4-6.8c3.1-1.5,6.5-2.3,10.2-2.3c3.4,0,6.8,0.9,10.4,2.6c0.8,0.3,1.2,0.6,1.4,0.6c0.3,0,0.6-0.3,0.9-1.1
			c0.3-0.8,0.5-1.1,0.8-1.1s0.5,0.2,0.5,0.3c0.2,0.2,0.2,0.5,0.2,1.1l0.3,8.8c0,0.3,0,0.5,0,0.8c0,0,0,0,0,0.2c0,0.3,0,0.5-0.2,0.6
			c-0.2,0.2-0.3,0.2-0.5,0.2c-0.3,0-0.6-0.3-0.8-1.1c-0.2-0.8-0.3-1.4-0.6-1.9c-1.1-2.8-2.6-4.9-4.6-6.3s-4.5-2-7.4-2
			c-4.3,0-7.9,1.9-10.5,5.4c-2.6,3.6-3.9,8.5-3.9,14.8c0,5.9,1.2,10.4,3.9,13.8c2.6,3.4,6.2,5.1,10.7,5.1c2.6,0,4.9-0.6,7-2
			c2-1.4,3.6-3.2,4.6-5.7c0.5-1.1,0.9-2.3,1.2-3.6c0.5-1.4,0.8-2,1.1-2c0.2,0,0.3,0,0.3,0.2c0.2,0.2,0.2,0.3,0.2,0.5v11.4h0.3V330.4
			z"/>
		<path class="st0" d="M299.5,325.1c0,1.5,0.2,2.8,0.5,3.4s0.8,1.1,1.5,1.4c0.3,0.2,0.6,0.3,1.1,0.3c0.3,0.2,0.8,0.2,1.2,0.2
			c0,0,0,0,0.2,0c0.9,0.2,1.4,0.5,1.4,0.8c0,0.2-0.2,0.3-0.3,0.5c-0.2,0.2-0.5,0.2-0.8,0.2c-0.2,0-0.3,0-0.8,0
			c-2.3-0.2-4.6-0.3-7.1-0.3s-4.8,0.2-7.1,0.3c-0.5,0-0.6,0-0.8,0c-0.3,0-0.6,0-0.8-0.2c-0.2-0.2-0.3-0.3-0.3-0.5
			c0-0.5,0.5-0.6,1.4-0.8h0.2c0.5,0,0.9-0.2,1.4-0.2c0.3-0.2,0.8-0.2,0.9-0.3c0.8-0.3,1.2-0.8,1.5-1.5c0.3-0.6,0.5-1.7,0.5-3.4v-9.2
			l-10.4-18.7c0-0.2-0.2-0.3-0.3-0.5c-1.2-2.2-2.3-3.4-3.4-3.6c-0.2,0-0.5,0-0.8-0.2c-0.9-0.2-1.5-0.5-1.5-0.8s0.2-0.5,0.3-0.5
			c0.2-0.2,0.6-0.2,0.9-0.2c0.2,0,0.5,0,0.6,0s0.3,0,0.5,0s0.2,0,0.5,0c1.5,0.2,2.9,0.2,4.2,0.2c1.1,0,2.3,0,3.9-0.2
			c1.4,0,2.2-0.2,2.3-0.2c0.3,0,0.8,0,1.2,0s0.9,0,1.1,0c0.6,0,0.9,0,1.1,0.2s0.3,0.3,0.3,0.5c0,0.3-0.3,0.6-1.1,0.6
			c-0.5,0-0.8,0-1.1,0.2c-0.8,0.2-1.4,0.5-1.9,0.8s-0.6,0.9-0.6,1.5c0,0.3,0.2,0.9,0.3,1.5c0.3,0.6,0.6,1.4,0.9,2.2l8,15.5
			c0.8-1.2,1.9-3.1,3.2-5.4c4.5-7.4,6.8-11.9,6.8-13.4c0-0.6-0.2-1.2-0.5-1.5s-0.8-0.6-1.2-0.8c-0.3,0-0.6-0.2-1.1-0.2
			c-0.9-0.2-1.4-0.5-1.4-0.8c0-0.2,0.2-0.3,0.3-0.5c0.2-0.2,0.5-0.2,0.9-0.2c0.3,0,0.5,0,0.6,0c0.2,0,0.3,0,0.6,0c0.6,0,1.2,0,2,0.2
			c0.8,0,1.4,0,2.2,0c1.5,0,3.1,0,4.5-0.2l0,0c0.2,0,0.2,0,0.2,0h0.2c0.2,0,0.5,0,0.5,0.2c0.2,0.2,0.2,0.2,0.2,0.3
			c0,0.3-0.3,0.5-0.8,0.8c-0.2,0-0.2,0-0.2,0.2c-0.8,0.2-1.4,0.3-2,0.8c-0.6,0.3-1.2,0.9-1.7,1.5c-0.3,0.5-1.9,2.9-4.5,7.4
			s-5.4,8.8-8,13v9.4h0.4V325.1z"/>
		<path class="st0" d="M361,312c0-2.8,0.5-5.4,1.5-7.9s2.6-4.8,4.6-6.8c2.2-2.2,4.6-3.7,7.3-4.8c2.8-1.1,5.6-1.7,8.7-1.7
			s6.2,0.6,9,1.9c2.8,1.2,5.3,2.9,7.3,5.1c1.7,1.9,3.1,4,3.9,6.3c0.9,2.3,1.2,4.9,1.2,7.9s-0.6,5.6-1.7,8.2s-2.6,4.8-4.6,6.6
			c-2,1.9-4.3,3.2-7.1,4.3c-2.8,1.1-5.6,1.5-8.3,1.5c-3.1,0-5.9-0.5-8.5-1.5c-2.6-0.9-4.9-2.5-7-4.3c-2.2-2-3.9-4.3-4.9-6.8
			C361.4,317.8,361,315.1,361,312z M368.2,311.7c0,6,1.4,10.8,4,14.4c2.6,3.7,6.2,5.4,10.5,5.4s7.9-1.9,10.5-5.4
			c2.6-3.6,4-8.3,4-14.4c0-6-1.2-10.8-3.9-14.4c-2.6-3.6-6.2-5.3-10.5-5.3s-7.9,1.9-10.5,5.4C369.6,301.2,368.2,305.8,368.2,311.7z"
			/>
		<path class="st0" d="M435,325.1c0,1.7,0.2,2.8,0.5,3.4s0.8,1.1,1.5,1.4c0.6,0.3,1.4,0.5,2.6,0.5l0,0h0.2c1.1,0.2,1.5,0.5,1.5,0.8
			c0,0.2-0.2,0.3-0.3,0.5c-0.2,0.2-0.5,0.2-0.8,0.2c-0.2,0-0.3,0-0.8,0c-2.5-0.2-5.1-0.3-7.7-0.3c-2.5,0-4.8,0.2-7.1,0.3
			c-0.5,0-0.6,0-0.8,0c-0.3,0-0.6,0-0.8-0.2c-0.2-0.2-0.3-0.3-0.3-0.5c0-0.3,0.5-0.6,1.4-0.8h0.2c0.5,0,0.9-0.2,1.2-0.2
			c0.3-0.2,0.8-0.2,1.1-0.3c0.8-0.3,1.2-0.9,1.5-1.5s0.5-1.7,0.5-3.2v-26.9c0-1.5-0.2-2.6-0.5-3.2s-0.8-1.1-1.5-1.5
			c-0.3-0.2-0.6-0.2-0.9-0.3c-0.3-0.2-0.8-0.2-1.2-0.2h-0.2c-0.9-0.2-1.4-0.3-1.4-0.6c0-0.2,0.2-0.3,0.3-0.5
			c0.2-0.2,0.5-0.2,0.8-0.2c0.2,0,0.5,0,0.9,0c2.6,0.2,5.4,0.2,8.2,0.2c5.6,0,11,0,16.4-0.2c0.9,0,1.5,0,1.7,0c0.8,0,1.2,0,1.5,0.2
			s0.6,0.3,0.6,0.6c0,0.2,0,0.2,0.2,0.5c0,0.2,0,0.5,0,0.8v1.1c0,1.4,0.2,2.9,0.3,4.3c0,0.3,0.2,0.5,0.2,0.6c0,0.3,0,0.5-0.2,0.6
			c-0.2,0.2-0.3,0.3-0.5,0.3c-0.3,0-0.6-0.5-0.9-1.5c-0.3-0.9-0.8-1.9-1.2-2.5c-0.8-1.2-2.2-2-3.9-2.5c-1.7-0.5-4.3-0.8-7.6-0.8
			c-1.2,0-2.3,0-3.1,0.2c-0.8,0-1.2,0.2-1.4,0.3c-0.2,0.2-0.3,0.6-0.5,1.4s-0.2,1.9-0.2,3.2v12.7c2.8,0,4.6-0.3,5.7-0.6
			c1.1-0.3,2-0.9,2.6-1.7c0.6-0.8,1.1-1.9,1.4-3.1c0.3-1.4,0.6-2,0.9-2s0.5,0.2,0.5,0.3c0.2,0.2,0.2,0.6,0.2,1.1c0,0.2,0,0.3,0,0.6
			c0,1.2-0.2,2.5-0.2,3.7c0,1.9,0,3.9,0.2,5.7c0,2,0.2,2.9,0.2,2.9c0,0.3,0,0.6-0.2,0.9c-0.2,0.2-0.3,0.3-0.5,0.3
			c-0.3,0-0.6-0.6-0.8-1.7c-0.3-1.1-0.6-2-1.1-2.6c-0.6-0.9-1.5-1.5-2.5-1.9c-0.9-0.3-2.5-0.6-4.3-0.6c-0.6,0-0.9,0-1.4,0
			c-0.3,0-0.6,0-0.9,0v12.5L435,325.1L435,325.1z"/>
		<path class="st0" d="M511.2,313.1v12.2c0,1.5,0.2,2.6,0.5,3.2s0.8,1.1,1.5,1.5c0.3,0.2,0.6,0.3,1.1,0.3c0.3,0.2,0.8,0.2,1.2,0.2
			c0,0,0,0,0.2,0c0.9,0.2,1.4,0.5,1.4,0.8c0,0.2-0.2,0.3-0.3,0.5c-0.2,0.2-0.5,0.2-0.8,0.2c-0.2,0-0.3,0-0.8,0
			c-2.3-0.2-4.6-0.3-7.1-0.3s-4.8,0.2-7.1,0.3c-0.3,0-0.6,0-0.6,0c-0.3,0-0.6,0-0.8-0.2s-0.3-0.3-0.3-0.5c0-0.5,0.5-0.6,1.4-0.8h0.2
			c0.5,0,0.9-0.2,1.2-0.2c0.3-0.2,0.6-0.2,0.9-0.3c0.8-0.3,1.2-0.8,1.5-1.5c0.3-0.6,0.5-1.7,0.5-3.4v-26.9c0-1.5-0.2-2.6-0.5-3.2
			s-0.8-1.1-1.5-1.4c-0.3-0.2-0.6-0.2-0.9-0.3c-0.3-0.2-0.8-0.2-1.2-0.2h-0.2c-0.9-0.2-1.4-0.3-1.4-0.6c0-0.2,0.2-0.3,0.3-0.5
			c0.2-0.2,0.5-0.2,0.8-0.2c0.2,0,0.5,0,0.9,0c2.3,0.2,4.6,0.2,6.8,0.2c1.1,0,2.5,0,3.9-0.2c1.5,0,2.3-0.2,2.8-0.2
			c5.3,0,9.3,0.9,12.1,2.6c2.8,1.9,4,4.5,4,7.9s-1.4,6-4,7.9c-2.8,1.9-6.5,2.8-11.4,2.8c-0.8,0-2,0-3.9-0.3
			C511.4,313.1,511.2,313.1,511.2,313.1z M511.2,311.5c0.8,0.2,1.4,0.2,2,0.2s1.1,0,1.5,0c3.2,0,5.6-0.8,7-2.2
			c1.5-1.5,2.2-3.9,2.2-7c0-3.2-0.8-5.6-2.3-7.1s-3.9-2.3-7.1-2.3c-1.2,0-2.2,0.2-2.6,0.5c-0.5,0.3-0.8,0.8-0.8,1.5L511.2,311.5z"/>
		<path class="st0" d="M553.1,298.2c0-1.5-0.2-2.6-0.5-3.2s-0.8-1.1-1.5-1.5c-0.3-0.2-0.6-0.2-0.9-0.3c-0.3-0.2-0.8-0.2-1.2-0.2
			h-0.2c-0.9-0.2-1.4-0.3-1.4-0.6c0-0.2,0.2-0.3,0.3-0.5c0.2-0.2,0.5-0.2,0.8-0.2c0.2,0,0.5,0,0.9,0c2.3,0.2,4.6,0.2,6.8,0.2
			c2.3,0,4.8,0,7.1-0.2c0.5,0,0.6,0,0.8,0c0.3,0,0.6,0,0.8,0.2s0.3,0.2,0.3,0.5s-0.5,0.5-1.2,0.6c-0.2,0-0.2,0-0.3,0
			c-0.3,0-0.5,0-0.8,0s-0.6,0.2-1.1,0.2c-0.9,0.3-1.5,0.8-1.9,1.4c-0.3,0.8-0.6,1.9-0.6,3.4v21.3c0,4,0.9,6.8,2.6,8.7
			s4.5,2.8,8.3,2.8c4.5,0,7.7-1.1,9.7-3.4c2.2-2.2,3.1-5.7,3.1-10.4v-18.7c0-1.5-0.2-2.6-0.5-3.2s-0.8-1.1-1.5-1.5
			c-0.3-0.2-0.6-0.2-0.9-0.3c-0.3-0.2-0.8-0.2-1.2-0.2h-0.2c-0.9-0.2-1.4-0.3-1.4-0.6c0-0.2,0.2-0.3,0.3-0.5s0.5-0.2,0.8-0.2
			s1.1,0,2.3,0.2s2.5,0.2,3.4,0.2s2,0,3.1-0.2c1.2,0,1.9-0.2,2.2-0.2s0.6,0,0.8,0.2s0.3,0.2,0.3,0.5s-0.5,0.5-1.2,0.6
			c-0.2,0-0.2,0-0.3,0c-0.3,0-0.6,0-0.9,0c-0.3,0-0.6,0.2-1.1,0.2c-0.9,0.3-1.5,0.8-1.9,1.4c-0.3,0.8-0.5,1.9-0.5,3.6v17.2
			c0,6.3-1.2,10.8-3.7,13.4s-6.8,4-12.7,4c-5.1,0-9-1.1-11.4-3.2c-2.5-2.2-3.9-5.3-3.9-9.6v-21.6h0.2V298.2z"/>
		<path class="st0" d="M620.1,325.1c0,1.5,0.2,2.8,0.5,3.4s0.8,1.1,1.5,1.5c0.3,0.2,0.6,0.3,0.9,0.3c0.3,0.2,0.8,0.2,1.2,0.2h0.2
			c0.9,0.2,1.4,0.3,1.4,0.8c0,0.2-0.2,0.3-0.3,0.5c-0.2,0.2-0.5,0.2-0.8,0.2c-0.2,0-0.3,0-0.8,0c-2.3-0.2-4.8-0.3-7.1-0.3
			c-2.5,0-4.8,0.2-7.1,0.3c-0.3,0-0.6,0-0.8,0c-0.3,0-0.6,0-0.8-0.2s-0.3-0.3-0.3-0.5c0-0.5,0.5-0.6,1.4-0.8h0.2
			c0.5,0,0.9-0.2,1.2-0.2c0.3-0.2,0.6-0.2,1.1-0.3c0.8-0.3,1.2-0.8,1.5-1.4s0.5-1.7,0.5-3.4v-26.9c0-1.5-0.2-2.6-0.5-3.2
			s-0.8-1.1-1.5-1.4c-0.3-0.2-0.6-0.2-0.9-0.3s-0.8-0.2-1.2-0.2h-0.2c-0.9-0.2-1.4-0.3-1.4-0.6c0-0.2,0.2-0.3,0.3-0.5
			c0.2-0.2,0.5-0.2,0.8-0.2h0.5c0.5,0,0.9,0,1.7,0.2c0.8,0,1.7,0,2.6,0c1.5,0,3.6,0,6-0.2c2.5-0.2,4.3-0.2,5.4-0.2
			c5.1,0,8.8,0.8,11.3,2.5c2.3,1.7,3.6,4.2,3.6,7.7c0,2.9-0.9,5.4-2.8,7.1c-1.9,1.9-4.6,2.9-8.3,3.4l13,15.1
			c0.5,0.6,1.1,1.2,1.9,1.7c0.6,0.5,1.5,0.9,2.8,1.4c0,0,0,0,0.2,0c0.9,0.5,1.4,0.8,1.4,0.9c0,0.2-0.2,0.3-0.3,0.3
			c-0.2,0.2-0.5,0.2-0.6,0.2s-0.2,0-0.3,0H647c0,0-0.2,0-0.5,0c-1.4-0.2-2.6-0.2-3.9-0.2c-0.2,0-0.3,0-0.6,0c-0.2,0-0.5,0-0.9,0.2
			h-1.4c-0.8,0-1.4,0-1.7-0.2s-0.6-0.5-0.9-0.8l-13-16.2c-0.5-0.5-0.8-0.9-1.2-1.1c-0.5-0.2-0.9-0.3-1.7-0.3c-0.5,0-0.8,0.2-0.9,0.3
			s-0.2,0.5-0.2,0.9v10.2h0V325.1z M620.1,310.3c0,0.8,0.2,1.1,0.3,1.4c0.2,0.2,0.6,0.3,1.2,0.3c4.3,0,7.3-0.8,9.1-2.2
			c1.9-1.4,2.8-3.9,2.8-7.1c0-3.4-0.9-5.9-2.6-7.6c-1.7-1.5-4.3-2.5-7.9-2.5c-1.1,0-1.9,0.2-2.3,0.5c-0.5,0.3-0.6,0.9-0.6,1.9V310.3
			L620.1,310.3z"/>
		<path class="st0" d="M676,325.1c0,1.5,0.2,2.6,0.5,3.2s0.9,1.2,1.7,1.5c0.3,0.2,0.8,0.3,1.2,0.3c0.5,0.2,0.9,0.2,1.4,0.2h0.2
			c0.9,0.2,1.4,0.5,1.4,0.8c0,0.2-0.2,0.3-0.3,0.5c-0.2,0.2-0.5,0.2-0.8,0.2c-0.2,0-0.3,0-0.8,0c-2.5-0.2-5.1-0.3-7.6-0.3
			s-5.1,0.2-7.6,0.3c-0.5,0-0.6,0-0.8,0c-0.3,0-0.6,0-0.9-0.2c-0.2-0.2-0.3-0.3-0.3-0.5c0-0.5,0.5-0.6,1.5-0.8h0.2c0,0,0,0,0.2,0
			c1.1-0.2,2-0.3,2.5-0.5c0.8-0.3,1.4-0.9,1.7-1.5s0.5-1.7,0.5-3.2v-26.9c0-1.5-0.2-2.6-0.5-3.2s-0.8-1.1-1.5-1.5
			c-0.3-0.2-0.6-0.2-1.1-0.3c-0.5-0.2-0.9-0.2-1.5-0.2h-0.2c-1.1-0.2-1.7-0.3-1.7-0.6c0-0.2,0.2-0.3,0.6-0.5
			c0.3-0.2,0.8-0.2,1.2-0.2c0.2,0,0.5,0,0.9,0c2.3,0.2,4.6,0.2,6.8,0.2c2.3,0,4.8,0,7.1-0.2c0.5,0,0.6,0,0.8,0c0.5,0,0.8,0,1.1,0.2
			s0.5,0.2,0.5,0.3c0,0.3-0.5,0.5-1.4,0.6c-0.2,0-0.3,0-0.3,0c-0.5,0-0.8,0-1.2,0c-0.3,0-0.8,0.2-1.1,0.2c-0.9,0.3-1.5,0.8-1.9,1.4
			c-0.3,0.8-0.6,1.9-0.6,3.4L676,325.1L676,325.1L676,325.1z"/>
		<path class="st0" d="M722.9,325.1c0,1.5,0.2,2.6,0.5,3.4c0.3,0.6,0.9,1.2,1.7,1.5c0.6,0.3,1.4,0.5,2.5,0.5c0,0,0,0,0.2,0
			c0,0,0,0,0.2,0c1.1,0.2,1.5,0.5,1.5,0.8c0,0.2-0.2,0.3-0.3,0.5c-0.2,0.2-0.5,0.2-0.9,0.2c-0.2,0-0.3,0-0.8,0
			c-2.5-0.2-5.1-0.3-7.7-0.3s-5.1,0.2-7.7,0.3c-0.5,0-0.6,0-0.8,0c-0.3,0-0.6,0-0.8-0.2s-0.3-0.3-0.3-0.5c0-0.5,0.5-0.6,1.5-0.8h0.2
			c0,0,0,0,0.2,0c1.1-0.2,2-0.3,2.5-0.5c0.8-0.3,1.4-0.9,1.7-1.5s0.5-1.7,0.5-3.4V295c0-0.8-0.2-1.2-0.6-1.4
			c-0.5-0.3-1.4-0.5-2.8-0.5h-2.3c-3.2,0-5.6,0.2-7,0.5c-1.2,0.3-2.3,0.9-2.9,1.9c-0.5,0.8-0.8,1.7-1.1,3.1c-0.2,1.4-0.5,2-0.8,2
			c-0.2,0-0.3,0-0.5-0.2c0-0.2-0.2-0.5-0.2-0.8v-6.8c0-0.5,0.2-0.9,0.3-1.1c0.3-0.2,0.6-0.3,1.4-0.3c0.2,0,0.6,0,1.5,0
			c5.7,0.3,11.6,0.3,17.8,0.3s12.1-0.2,17.8-0.3c0.9,0,1.4,0,1.5,0c0.6,0,1.1,0.2,1.4,0.3c0.2,0.2,0.3,0.6,0.3,1.1v6.8
			c0,0.5,0,0.8-0.2,0.9c0,0.2-0.2,0.2-0.3,0.2c-0.3,0-0.5-0.6-0.8-2c-0.2-1.4-0.6-2.3-1.1-3.1c-0.6-0.9-1.5-1.5-2.8-1.9
			c-1.2-0.3-4-0.5-8.3-0.5H726c-1.5,0-2.5,0.2-2.8,0.3c-0.3,0.3-0.6,0.8-0.6,1.4V325h0.3V325.1z"/>
		<path class="st0" d="M777.6,325.1c0,1.5,0.2,2.8,0.5,3.4s0.8,1.1,1.5,1.4c0.3,0.2,0.6,0.3,1.1,0.3c0.3,0.2,0.8,0.2,1.2,0.2
			c0,0,0,0,0.2,0c0.9,0.2,1.4,0.5,1.4,0.8c0,0.2-0.2,0.3-0.3,0.5c-0.2,0.2-0.5,0.2-0.8,0.2c0,0-0.3,0-0.8,0
			c-2.3-0.2-4.6-0.3-7.1-0.3s-4.8,0.2-7.1,0.3c-0.5,0-0.6,0-0.8,0c-0.3,0-0.6,0-0.8-0.2s-0.3-0.3-0.3-0.5c0-0.5,0.5-0.6,1.4-0.8h0.2
			c0.5,0,0.9-0.2,1.4-0.2c0.3-0.2,0.8-0.2,0.9-0.3c0.8-0.3,1.2-0.8,1.5-1.5c0.3-0.6,0.5-1.7,0.5-3.4v-9.2L761,297.1
			c0-0.2-0.2-0.3-0.3-0.5c-1.2-2.2-2.3-3.4-3.4-3.6c-0.2,0-0.5,0-0.8-0.2c-0.9-0.2-1.5-0.5-1.5-0.8s0.2-0.5,0.3-0.5
			c0.2-0.2,0.6-0.2,0.9-0.2c0.2,0,0.5,0,0.6,0s0.3,0,0.5,0c0,0,0.2,0,0.5,0c1.5,0.2,2.9,0.2,4.2,0.2c1.1,0,2.3,0,3.9-0.2
			c1.4,0,2.2-0.2,2.3-0.2c0.3,0,0.8,0,1.2,0c0.5,0,0.9,0,1.1,0c0.6,0,0.9,0,1.1,0.2c0.2,0.2,0.3,0.3,0.3,0.5c0,0.3-0.3,0.6-1.1,0.6
			c-0.5,0-0.8,0-1.1,0.2c-0.8,0.2-1.4,0.5-1.9,0.8s-0.6,0.9-0.6,1.5c0,0.3,0.2,0.9,0.3,1.5c0.3,0.6,0.6,1.4,0.9,2.2l8,15.5
			c0.8-1.2,1.9-3.1,3.2-5.4c4.5-7.4,6.8-11.9,6.8-13.4c0-0.6-0.2-1.2-0.5-1.5s-0.8-0.6-1.2-0.8c-0.3,0-0.6-0.2-1.1-0.2
			c-0.9-0.2-1.4-0.5-1.4-0.8c0-0.2,0.2-0.3,0.3-0.5c0.2-0.2,0.5-0.2,0.9-0.2c0.3,0,0.5,0,0.6,0c0.2,0,0.3,0,0.6,0c0.6,0,1.2,0,2,0.2
			c0.8,0,1.4,0,2.2,0c1.5,0,3.1,0,4.5-0.2l0,0h0.2h0.2c0.2,0,0.5,0,0.5,0.2c0.2,0.2,0.2,0.2,0.2,0.3c0,0.3-0.3,0.5-0.8,0.8
			c-0.2,0-0.2,0-0.2,0.2c-0.8,0.2-1.4,0.3-2,0.8c-0.6,0.3-1.2,0.9-1.7,1.5c-0.3,0.5-1.9,2.9-4.5,7.4s-5.4,8.8-8,13v9.4h0.4V325.1z"
			/>
	</g>
</g>
</svg>
