<?xml version="1.0" encoding="utf-8"?>
<!-- Generator: Adobe Illustrator 24.2.1, SVG Export Plug-In . SVG Version: 6.00 Build 0)  -->
<svg version="1.1" id="Layer_1" xmlns="http://www.w3.org/2000/svg" xmlns:xlink="http://www.w3.org/1999/xlink" x="0px" y="0px"
	 viewBox="0 0 530.5 279.4" style="enable-background:new 0 0 530.5 279.4;" xml:space="preserve">
<style type="text/css">
	.st0{fill:url(#SVGID_1_);}
	.st1{fill:url(#SVGID_2_);}
	.st2{fill:url(#SVGID_3_);}
	.st3{fill:url(#SVGID_4_);}
	.st4{fill:url(#SVGID_5_);}
	.st5{fill:url(#SVGID_6_);}
	.st6{fill:url(#SVGID_7_);}
	.st7{fill:url(#SVGID_8_);}
	.st8{fill:url(#SVGID_9_);}
	.st9{fill:#070707;}
</style>
<g>
	<linearGradient id="SVGID_1_" gradientUnits="userSpaceOnUse" x1="-129.2404" y1="106.3784" x2="581.0751" y2="109.0589">
		<stop  offset="0" style="stop-color:#A4874F"/>
		<stop  offset="0.417" style="stop-color:#FFCD7B"/>
		<stop  offset="1" style="stop-color:#E1B071"/>
	</linearGradient>
	<path class="st0" d="M80.5,195.9c-34.6,0-48.2-30.8-51.1-57.6l-14,21.6c12.6,23,36.3,37.3,67.1,37.3c37.1,0,63.7-20.6,63.7-51.3
		c0-60.3-100.5-45.3-100.5-93.2c0-20.8,18.6-34.1,37.8-34.1c28.3,0,41.4,30.3,43.8,54.5l14-21.6C130.1,31,107.6,17.2,81.4,17.2
		c-26.6,0-57.9,14.5-57.9,47.7c0,58.9,98.6,42.1,98.6,94.2C122.1,180.9,104.7,195.9,80.5,195.9z"/>
	<linearGradient id="SVGID_2_" gradientUnits="userSpaceOnUse" x1="-129.2381" y1="105.7779" x2="581.0773" y2="108.4583">
		<stop  offset="0" style="stop-color:#A4874F"/>
		<stop  offset="0.417" style="stop-color:#FFCD7B"/>
		<stop  offset="1" style="stop-color:#E1B071"/>
	</linearGradient>
	<path class="st1" d="M241.1,197.1c54,0,83.1-36.1,83.1-90.3c0-54.3-29.1-89.6-83.1-89.6c-54.3,0-83.6,35.4-83.6,89.6
		C157.5,161.1,186.8,197.1,241.1,197.1z M241.1,19.9c39,0,58.1,37.5,58.1,89.4s-19.1,85.5-58.1,85.5c-39.2,0-58.6-33.7-58.6-85.5
		S201.8,19.9,241.1,19.9z"/>
	<linearGradient id="SVGID_3_" gradientUnits="userSpaceOnUse" x1="-129.2356" y1="105.1162" x2="581.0798" y2="107.7966">
		<stop  offset="0" style="stop-color:#A4874F"/>
		<stop  offset="0.417" style="stop-color:#FFCD7B"/>
		<stop  offset="1" style="stop-color:#E1B071"/>
	</linearGradient>
	<path class="st2" d="M416.4,197.1c16.7,0,32-5.8,44.3-15.5c1.5-0.5,2.7-0.7,4.1-0.7c6.5,0,12.4,4.8,16,13.8h1.2V171h-24.9v10.4
		c-11.1,8-24.2,13.3-37.1,13.3c-34.1,0-56.7-36.1-56.7-87.9c0-52.1,22.5-88.4,53.8-88.4c27.4,0,49.2,28.1,51.3,60.1h1.2l13.6-21.1
		c-12.4-22.8-37.8-40.2-66.8-40.2c-42.4,0-80.6,37.3-80.6,89.9C335.8,159.4,374.3,197.1,416.4,197.1z"/>
	<linearGradient id="SVGID_4_" gradientUnits="userSpaceOnUse" x1="-129.2551" y1="110.2806" x2="581.0604" y2="112.961">
		<stop  offset="0" style="stop-color:#A4874F"/>
		<stop  offset="0.417" style="stop-color:#FFCD7B"/>
		<stop  offset="1" style="stop-color:#E1B071"/>
	</linearGradient>
	<polygon class="st3" points="425.1,120.8 449.4,120.8 465.2,104.1 440.1,104.1 	"/>
	<linearGradient id="SVGID_5_" gradientUnits="userSpaceOnUse" x1="-129.2553" y1="110.3385" x2="581.0601" y2="113.019">
		<stop  offset="0" style="stop-color:#A4874F"/>
		<stop  offset="0.417" style="stop-color:#FFCD7B"/>
		<stop  offset="1" style="stop-color:#E1B071"/>
	</linearGradient>
	<polygon class="st4" points="470.2,104.1 453.1,121.1 486.6,121.1 	"/>
	<linearGradient id="SVGID_6_" gradientUnits="userSpaceOnUse" x1="-129.2548" y1="110.2115" x2="581.0606" y2="112.8919">
		<stop  offset="0" style="stop-color:#A4874F"/>
		<stop  offset="0.417" style="stop-color:#FFCD7B"/>
		<stop  offset="1" style="stop-color:#E1B071"/>
	</linearGradient>
	<polygon class="st5" points="490.9,121.1 515.2,121.1 499.7,104.1 475.5,104.1 	"/>
	<linearGradient id="SVGID_7_" gradientUnits="userSpaceOnUse" x1="-129.3812" y1="143.7094" x2="580.9342" y2="146.3899">
		<stop  offset="0" style="stop-color:#A4874F"/>
		<stop  offset="0.417" style="stop-color:#FFCD7B"/>
		<stop  offset="1" style="stop-color:#E1B071"/>
	</linearGradient>
	<polygon class="st6" points="486.7,124.6 453.1,124.6 470.3,167.4 	"/>
	<linearGradient id="SVGID_8_" gradientUnits="userSpaceOnUse" x1="-129.381" y1="143.6504" x2="580.9344" y2="146.3308">
		<stop  offset="0" style="stop-color:#A4874F"/>
		<stop  offset="0.417" style="stop-color:#FFCD7B"/>
		<stop  offset="1" style="stop-color:#E1B071"/>
	</linearGradient>
	<polygon class="st7" points="490.4,124.6 473.6,167.4 514.6,124.6 	"/>
	<linearGradient id="SVGID_9_" gradientUnits="userSpaceOnUse" x1="-129.3815" y1="143.7858" x2="580.9339" y2="146.4662">
		<stop  offset="0" style="stop-color:#A4874F"/>
		<stop  offset="0.417" style="stop-color:#FFCD7B"/>
		<stop  offset="1" style="stop-color:#E1B071"/>
	</linearGradient>
	<polygon class="st8" points="467.1,167.4 449.4,124.6 425.1,124.6 	"/>
</g>
<g>
	<path class="st9" d="M6.1,532.4c8.2,0,14-4.5,14-11.3c0-13.3-22.1-10-22.1-20.5c0-4.6,4.1-7.5,8.3-7.5c6.2,0,9.1,6.7,9.7,12
		l3.1-4.7c-2.5-4.5-7.4-7.5-13.2-7.5c-5.9,0-12.7,3.2-12.7,10.5c0,13,21.7,9.3,21.7,20.7c0,4.8-3.8,8.1-9.2,8.1
		c-7.6,0-10.6-6.8-11.3-12.7l-3.1,4.7C-5.9,529.2-0.7,532.4,6.1,532.4z"/>
	<path class="st9" d="M52.8,493.5v-0.1H43v0.1c1.3,0.6,2.1,2.2,2.1,3.9v15.4H30.2v-15.4c0-1.8,0.9-3.3,2.2-3.9v-0.1h-9.9v0.1
		c1.3,0.6,2.1,2.2,2.1,3.9v30.5c0,1.7-0.9,3.3-2.1,3.9v0.1h9.9v-0.1c-1.3-0.6-2.2-2.1-2.2-3.9v-14.6h14.9v14.6
		c0,1.7-0.9,3.3-2.1,3.9v0.1h9.9v-0.1c-1.3-0.6-2.2-2.1-2.2-3.9v-30.5C50.6,495.6,51.5,494,52.8,493.5z"/>
	<path class="st9" d="M77.7,531.7v0.1h9.7v-0.1c-1.3-1-2.1-2.1-2.8-3.9l-11.3-30.5c-0.9-2.5-2.3-4-3.3-4h-5.9v0.1
		c1.3,0.6,2.7,2.2,3.3,3.9l0.2,0.4l-10.9,30.1c-0.5,1.5-2,3.3-3.3,3.9v0.1h5.2v-0.1c-0.9-0.4-1.4-1.3-1.4-2.4c0-0.5,0.1-1,0.3-1.5
		l3.3-9.2h14.6l3.4,9.2c0.2,0.5,0.3,1,0.3,1.5C79.1,530.4,78.6,531.3,77.7,531.7z M61,518.1l6.9-19.3l7.2,19.3H61z"/>
	<path class="st9" d="M114.8,531.9h1.2v-34.5c0-1.8,0.9-3.3,2.2-3.9v-0.1h-5.4v0.1c1.3,0.6,2.1,2.2,2.1,3.9V522l-19.4-28.7h-8.2v0.1
		c1.2,0.6,3,2,3.8,3.6v30.8c0,1.7-0.9,3.3-2.1,3.9v0.1h5.4v-0.1c-1.3-0.6-2.2-2.1-2.2-3.9v-29.4L114.8,531.9z"/>
	<path class="st9" d="M140.4,493.6h0.4c4.1,0,7.5,3.5,10.7,9.4h0.1c-0.9-3.9-0.7-6-0.9-9.7h-30.6c-0.3,3.7-0.1,5.8-0.9,9.7h0.1
		c3.2-5.9,6.6-9.4,10.7-9.4h0.4c1.3,0,2.2,1.5,2.2,3.7v30.5c0,1.3-0.7,2.7-1.6,3.5c-0.2,0.2-0.4,0.3-0.6,0.4v0.1h9.9v-0.1
		c-0.2-0.1-0.4-0.2-0.6-0.4c-1-0.8-1.6-2.2-1.6-3.5v-30.5C138.2,495.1,139.1,493.6,140.4,493.6z"/>
	<path class="st9" d="M183.2,493.5v-0.1h-9.9v0.1c1.3,0.6,2.1,2.2,2.1,3.9v15.4h-14.9v-15.4c0-1.8,0.9-3.3,2.2-3.9v-0.1H153v0.1
		c1.3,0.6,2.1,2.2,2.1,3.9v30.5c0,1.7-0.9,3.3-2.1,3.9v0.1h9.9v-0.1c-1.3-0.6-2.2-2.1-2.2-3.9v-14.6h14.9v14.6
		c0,1.7-0.9,3.3-2.1,3.9v0.1h9.9v-0.1c-1.3-0.6-2.2-2.1-2.2-3.9v-30.5C181,495.6,181.9,494,183.2,493.5z"/>
	<path class="st9" d="M195.6,493.5v-0.1h-9.9v0.1c1.3,0.6,2.1,2.2,2.1,3.9v30.5c0,1.7-0.9,3.3-2.1,3.9v0.1h9.9v-0.1
		c-1.3-0.6-2.2-2.1-2.2-3.9v-30.5C193.4,495.6,194.3,494,195.6,493.5z"/>
	<path class="st9" d="M214.8,512.5c0,11.9,6.5,19.9,18.4,19.9c11.9,0,18.3-7.9,18.3-19.9c0-11.9-6.4-19.7-18.3-19.7
		C221.3,492.8,214.8,500.6,214.8,512.5z M246,513c0,11.4-4.2,18.8-12.8,18.8c-8.6,0-12.9-7.4-12.9-18.8c0-11.4,4.3-19.7,12.9-19.7
		C241.8,493.4,246,501.6,246,513z"/>
	<path class="st9" d="M280.1,531.9h1.2v-34.5c0-1.8,0.9-3.3,2.2-3.9v-0.1H278v0.1c1.3,0.6,2.1,2.2,2.1,3.9V522l-19.4-28.7h-8.2v0.1
		c1.2,0.6,3,2,3.8,3.6v30.8c0,1.7-0.9,3.3-2.1,3.9v0.1h5.4v-0.1c-1.3-0.6-2.2-2.1-2.2-3.9v-29.4L280.1,531.9z"/>
	<path class="st9" d="M285.9,531.6v0.3h25.7c0.2-3.7,1.2-6.4,2.5-10.3H314c-3.1,5.9-8.2,10-12.4,10h-5.9c-1.3,0-2.2-1.5-2.2-3.7
		v-30.5c0-1.8,0.9-3.3,2.2-3.9v-0.1h-9.9v0.1c1.3,0.6,2.1,2.2,2.1,3.9v30.5C288,529.5,287.2,530.9,285.9,531.6z"/>
	<path class="st9" d="M325.1,493.5v-0.1h-9.9v0.1c1.3,0.6,2.1,2.2,2.1,3.9v30.5c0,1.7-0.9,3.3-2.1,3.9v0.1h9.9v-0.1
		c-1.3-0.6-2.2-2.1-2.2-3.9v-30.5C322.9,495.6,323.8,494,325.1,493.5z"/>
	<path class="st9" d="M326.8,493.5c1.2,0.6,3,2,3.8,3.6v30.8c0,1.7-0.9,3.3-2.1,3.9v0.1h5.4v-0.1c-1.3-0.6-2.2-2.1-2.2-3.9v-29.4
		l22.6,33.4h1.2v-34.5c0-1.8,0.9-3.3,2.2-3.9v-0.1h-5.4v0.1c1.3,0.6,2.1,2.2,2.1,3.9V522L335,493.4h-8.2V493.5z"/>
	<path class="st9" d="M360.1,531.6v0.3h25.7c0.2-3.7,1.2-6.4,2.5-10.3h-0.1c-3.1,5.9-8.2,10-12.4,10H370c-1.3,0-2.2-1.5-2.2-3.7
		v-15.5h7.8c3.1,0,5.4,1.5,5.5,3.9h0.3v-8.1h-0.3c-0.2,2.3-2.4,3.8-5.5,3.8h-7.8v-14.7c0-2.3,1.6-3.7,3.9-3.7h4.2
		c4.6,0,8.9,3.9,10.7,10h0.1c-0.5-3.9-0.6-6.6-0.9-10.3h-25.7v0.3c1.3,0.6,2.1,2.1,2.1,3.7v30.5
		C362.2,529.5,361.4,530.9,360.1,531.6z"/>
	<path class="st9" d="M424.9,493c6,0,10.8,6.2,11.3,13.2h0.3l3-4.6c-2.7-5-8.3-8.9-14.7-8.9c-9.3,0-17.8,8.2-17.8,19.8
		c0,11.5,8.5,19.8,17.8,19.8c3.7,0,7-1.3,9.8-3.4c0.3-0.1,0.6-0.2,0.9-0.2c1.4,0,2.7,1.1,3.5,3h0.3v-15.3c0-1.8,0.9-3.3,2.2-3.9
		v-0.1h-9.9v0.1c1.3,0.6,2.2,2.2,2.2,3.9v12.3c-2.5,1.8-5.3,2.9-8.2,2.9c-7.5,0-12.5-7.9-12.5-19.4C413.1,501,418,493,424.9,493z"/>
	<path class="st9" d="M443.7,512.5c0,11.9,6.5,19.9,18.4,19.9c11.9,0,18.3-7.9,18.3-19.9c0-11.9-6.4-19.7-18.3-19.7
		C450.1,492.8,443.7,500.6,443.7,512.5z M474.9,513c0,11.4-4.2,18.8-12.8,18.8c-8.6,0-12.9-7.4-12.9-18.8c0-11.4,4.3-19.7,12.9-19.7
		C470.6,493.4,474.9,501.6,474.9,513z"/>
	<path class="st9" d="M483,531.6v0.3h25.7c0.2-3.7,1.2-6.4,2.5-10.3h-0.1c-3.1,5.9-8.2,10-12.4,10h-5.9c-1.3,0-2.2-1.5-2.2-3.7
		v-30.5c0-1.8,0.9-3.3,2.2-3.9v-0.1H483v0.1c1.3,0.6,2.1,2.2,2.1,3.9v30.5C485.1,529.5,484.3,530.9,483,531.6z"/>
	<path class="st9" d="M544.5,512.6c0-11.6-8.4-19.2-18.5-19.2h-13.6v0.3c1.3,0.6,2.1,2.1,2.1,3.7v30.5c0,1.7-0.9,3-2.1,3.7v0.3h13.5
		C536,531.9,544.5,524.1,544.5,512.6z M520,527.9v-30.5c0-2.3,1.6-3.7,3.9-3.7h2c7.5,0,12.5,7.4,12.5,18.9c0,11.4-5,18.8-12.5,18.8
		h-3.7C520.9,531.3,520,529.8,520,527.9z"/>
</g>
<path class="st9" d="M617.7,485.2c-10.5,87.4-162.8,156.7-349.3,156.7c-192.3,0-348.3-73.8-349.8-165c-0.4,3.2-0.6,6.4-0.6,9.6
	c0,91.9,156.6,166.3,349.9,166.3s349.9-74.5,349.9-166.3C617.8,486.1,617.7,485.6,617.7,485.2z"/>
<g>
	<path class="st9" d="M20.2,262.5c0,1.8,0.4,3.1,1.2,3.7c0.8,0.6,2.4,0.9,4.9,0.9c1.8,0,3.3-0.2,4.4-0.6c1.1-0.4,1.9-1,2.5-1.8
		c0.4-0.5,0.7-1.2,0.9-2.1c0.2-0.9,0.4-1.3,0.7-1.3c0.1,0,0.2,0,0.2,0.1c0,0.1,0.1,0.3,0.1,0.6l-0.1,5.2c0,0.4-0.1,0.7-0.2,0.8
		c-0.1,0.1-0.3,0.2-0.7,0.2c-0.1,0-0.5,0-1.2,0c-3.6-0.2-7.2-0.3-10.9-0.3c-2.9,0-5.7,0.1-8.3,0.2c-0.3,0-0.5,0-0.6,0
		c-0.2,0-0.4,0-0.5-0.1c-0.1-0.1-0.2-0.2-0.2-0.3c0-0.3,0.3-0.4,0.9-0.5c0.1,0,0.1,0,0.1,0c0.3,0,0.6-0.1,0.8-0.1
		c0.2-0.1,0.4-0.1,0.6-0.2c0.5-0.2,0.8-0.5,1-1c0.2-0.4,0.3-1.1,0.3-2.2v-17.4c0-1-0.1-1.7-0.3-2.1c-0.2-0.4-0.5-0.7-1-0.9
		c-0.2-0.1-0.4-0.1-0.7-0.2c-0.2-0.1-0.5-0.1-0.8-0.1c0,0-0.1,0-0.1,0c-0.6-0.1-0.9-0.2-0.9-0.4c0-0.1,0.1-0.2,0.2-0.3
		c0.1-0.1,0.3-0.1,0.5-0.1c0.1,0,0.3,0,0.6,0c1.5,0.1,3,0.1,4.4,0.1c1.5,0,3.1,0,4.6-0.1c0.3,0,0.4,0,0.5,0c0.2,0,0.4,0,0.5,0.1
		c0.1,0.1,0.2,0.1,0.2,0.3c0,0.2-0.3,0.3-0.8,0.4c-0.1,0-0.1,0-0.2,0c-0.2,0-0.4,0-0.6,0c-0.2,0-0.4,0.1-0.7,0.1
		c-0.6,0.2-1,0.5-1.2,0.9c-0.2,0.5-0.3,1.2-0.3,2.3V262.5z"/>
	<path class="st9" d="M53.6,261.5c0,2.5,0.4,4.1,1.1,4.7c0.7,0.6,2.3,0.9,4.6,0.9c1.9,0,3.3-0.2,4.3-0.5c1-0.4,1.7-1,2.2-1.9
		c0.3-0.5,0.5-1,0.6-1.7c0.2-0.7,0.3-1,0.6-1c0.2,0,0.3,0.1,0.3,0.2c0.1,0.1,0.1,0.5,0.1,1c0,0.4,0,1-0.1,1.9
		c-0.1,0.9-0.1,1.5-0.1,2c0,0.5-0.1,0.8-0.2,0.9c-0.1,0.1-0.5,0.2-1.1,0.2c-0.1,0-0.5,0-1.1,0c-4.3-0.1-8.7-0.2-13.3-0.2
		c-1.6,0-3.1,0.1-4.6,0.2c-0.2,0-0.4,0-0.4,0c-0.2,0-0.4,0-0.5-0.1c-0.1-0.1-0.2-0.2-0.2-0.3c0-0.3,0.3-0.4,0.9-0.5c0,0,0.1,0,0.1,0
		c0.3,0,0.6-0.1,0.8-0.1c0.2-0.1,0.4-0.1,0.6-0.2c0.5-0.2,0.8-0.5,1-1c0.2-0.4,0.3-1.1,0.3-2.2v-17.4c0-1-0.1-1.7-0.3-2.1
		c-0.2-0.4-0.5-0.7-1-0.9c-0.2-0.1-0.4-0.1-0.6-0.2c-0.2-0.1-0.5-0.1-0.8-0.1c0,0-0.1,0-0.1,0c-0.6-0.1-0.9-0.2-0.9-0.4
		c0-0.1,0.1-0.2,0.2-0.3c0.1-0.1,0.3-0.1,0.5-0.1c0.1,0,0.3,0,0.6,0c1.8,0.1,3.7,0.1,5.5,0.1c0.9,0,2.3,0,4.5-0.1
		c2.1,0,3.8-0.1,5.1-0.1H63c1,0,1.7,0.1,1.9,0.2c0.3,0.1,0.4,0.4,0.4,0.7c0,0.1,0,0.3-0.1,0.8c0,0.5-0.1,0.9-0.1,1.3
		c0,0.4,0,0.8,0.1,1.2c0.1,0.4,0.1,0.7,0.1,0.8c0,0.2,0,0.4-0.1,0.5c-0.1,0.1-0.2,0.1-0.3,0.1c-0.3,0-0.4-0.3-0.5-1
		s-0.3-1.2-0.5-1.6c-0.5-0.8-1.2-1.3-2.1-1.6c-1-0.3-2.6-0.5-4.9-0.5h-0.3c-1.4,0-2.3,0.1-2.5,0.3c-0.3,0.2-0.4,0.8-0.4,1.8v8.9
		c1.8-0.1,3.1-0.3,3.9-0.6c0.8-0.3,1.4-0.8,1.8-1.5c0.3-0.4,0.5-1,0.6-1.8c0.1-0.8,0.3-1.2,0.5-1.2c0.2,0,0.3,0.1,0.3,0.2
		c0.1,0.1,0.1,0.3,0.1,0.5c0,0.2,0,0.7-0.1,1.6c-0.1,0.9-0.1,1.8-0.1,2.5c0,1,0,2.1,0.1,3.2c0.1,1.1,0.1,1.7,0.1,1.7
		c0,0.2,0,0.4-0.1,0.5c-0.1,0.1-0.2,0.2-0.3,0.2c-0.2,0-0.3-0.3-0.5-0.8c-0.1-0.5-0.3-1-0.4-1.4c-0.4-0.8-1-1.4-1.8-1.7
		c-0.8-0.3-2-0.5-3.5-0.5h-0.7V261.5z"/>
	<path class="st9" d="M103.5,265.3c-0.6,0-1.2,0.1-1.7,0.2c-0.5,0.1-0.9,0.2-1.3,0.4c-0.3,0.1-0.7,0.3-1.2,0.6
		c-2.8,1.5-5.3,2.2-7.6,2.2c-1.9,0-3.6-0.3-5.2-1c-1.6-0.6-3-1.6-4.2-2.8c-1.2-1.2-2.1-2.5-2.6-4c-0.6-1.5-0.9-3.1-0.9-5
		c0-4.3,1.3-7.7,3.8-10.4c2.5-2.7,5.8-4,9.9-4c2.2,0,4.4,0.5,6.6,1.5c0.6,0.3,1,0.4,1.2,0.4c0.2,0,0.4-0.2,0.6-0.6s0.4-0.6,0.5-0.6
		c0.2,0,0.3,0.1,0.3,0.2c0.1,0.1,0.1,0.3,0.1,0.6v0.4l-0.2,5.7c0,0.2,0,0.3-0.1,0.4c-0.1,0.1-0.1,0.1-0.3,0.1
		c-0.2,0-0.4-0.3-0.5-0.8c-0.1-0.4-0.2-0.7-0.3-1c-0.7-1.8-1.6-3.2-2.8-4.1c-1.2-0.9-2.7-1.3-4.6-1.3c-3.1,0-5.5,1.1-7.1,3.3
		c-1.6,2.2-2.4,5.5-2.4,9.7c0,3.9,0.8,6.9,2.4,9.1c1.6,2.2,3.8,3.3,6.5,3.3c2.3,0,4-0.5,5.1-1.5c1.1-1,1.6-2.6,1.6-4.8
		c0-0.8-0.1-1.4-0.4-1.9c-0.2-0.5-0.6-0.8-1-1c-0.2-0.1-0.4-0.1-0.7-0.2c-0.2-0.1-0.4-0.1-0.6-0.1c0,0-0.1,0-0.2,0
		c-0.5-0.1-0.8-0.3-0.8-0.5c0-0.1,0.1-0.2,0.2-0.3c0.2-0.1,0.4-0.1,0.6-0.1c0.1,0,0.3,0,0.7,0.1c1.3,0.1,2.6,0.2,3.8,0.2
		c1.3,0,2.6-0.1,3.9-0.2c0.3,0,0.5-0.1,0.5-0.1c0.2,0,0.4,0,0.5,0.1c0.1,0.1,0.2,0.2,0.2,0.3c0,0.2-0.2,0.4-0.6,0.5
		c-0.1,0-0.1,0-0.1,0.1c-0.2,0-0.4,0.1-0.6,0.1c-0.2,0.1-0.4,0.2-0.6,0.3c-0.4,0.2-0.6,0.5-0.8,0.9c-0.1,0.4-0.2,1.1-0.2,2.3v0.4
		c0,0.6,0,1.1,0,1.6S103.4,264.9,103.5,265.3z"/>
	<path class="st9" d="M121,258.7l-1.7,4.3c-0.2,0.4-0.3,0.8-0.4,1.2c-0.1,0.4-0.1,0.7-0.1,1c0,0.5,0.1,0.9,0.3,1.2
		c0.2,0.3,0.5,0.6,1,0.7c0.3,0.1,0.4,0.1,0.6,0.2c0.1,0,0.2,0,0.3,0c0.3,0,0.5,0.1,0.7,0.2c0.1,0.1,0.2,0.2,0.2,0.3
		c0,0.1-0.1,0.2-0.2,0.2c-0.1,0.1-0.3,0.1-0.5,0.1c-0.1,0-0.5,0-1.3-0.1c-0.8-0.1-1.6-0.1-2.3-0.1c-0.6,0-1.2,0-1.9,0.1
		c-0.7,0.1-1.2,0.1-1.3,0.1c-0.3,0-0.6,0-0.7-0.1c-0.2-0.1-0.2-0.2-0.2-0.3c0-0.1,0.1-0.2,0.2-0.3c0.1-0.1,0.3-0.1,0.6-0.2
		c0.3-0.1,0.6-0.1,0.9-0.2c0.2-0.1,0.5-0.2,0.7-0.3c0.4-0.2,0.9-0.6,1.3-1.2c0.4-0.6,0.9-1.5,1.4-2.7l8.6-20.6
		c0.1-0.3,0.2-0.5,0.3-0.6c0.1-0.1,0.2-0.2,0.4-0.2c0.1,0,0.3,0.1,0.4,0.2c0.1,0.1,0.2,0.3,0.4,0.6l8.6,21.5
		c0.4,0.9,0.7,1.6,1.1,2.1c0.4,0.5,0.8,0.8,1.2,1c0.2,0.1,0.4,0.1,0.6,0.2c0.2,0.1,0.4,0.1,0.7,0.1c0.4,0,0.6,0.1,0.7,0.2
		c0.1,0.1,0.2,0.2,0.2,0.3c0,0.1-0.1,0.2-0.2,0.3c-0.1,0.1-0.3,0.1-0.6,0.1c-0.3,0-1,0-2.1-0.1c-1.1,0-2-0.1-2.8-0.1
		c-0.5,0-1.3,0-2.3,0.1c-1,0.1-1.8,0.1-2.4,0.1c-0.3,0-0.6,0-0.7-0.1c-0.2-0.1-0.3-0.2-0.3-0.3c0-0.1,0.1-0.2,0.2-0.3
		c0.2-0.1,0.5-0.2,0.9-0.3c0.7-0.1,1.3-0.2,1.6-0.4c0.3-0.2,0.5-0.5,0.5-0.9c0-0.3-0.1-0.6-0.2-1.1c-0.1-0.5-0.2-0.9-0.4-1.4
		l-1.8-4.7H121z M121.5,257.6h9l-4.3-11.2L121.5,257.6z"/>
	<path class="st9" d="M173,267.2c0,0.1,0,0.2-0.1,0.3c-0.1,0.1-0.2,0.1-0.3,0.1c-0.2,0-0.4-0.2-0.5-0.7c-0.2-0.5-0.4-0.7-0.8-0.7
		c-0.3,0-0.7,0.2-1.2,0.5c-0.2,0.2-0.4,0.3-0.6,0.4c-1,0.6-2.1,1-3.3,1.3c-1.1,0.3-2.3,0.4-3.5,0.4c-1.8,0-3.5-0.3-5.1-0.9
		s-3-1.4-4.2-2.5c-1.3-1.2-2.3-2.6-2.9-4.2c-0.7-1.6-1-3.4-1-5.4c0-1.5,0.2-3,0.6-4.4c0.4-1.4,1-2.7,1.7-3.9
		c1.2-1.9,2.9-3.4,4.8-4.4c2-1,4.2-1.5,6.6-1.5c2.2,0,4.4,0.6,6.7,1.7c0.5,0.2,0.8,0.4,0.9,0.4c0.2,0,0.4-0.2,0.6-0.7
		c0.2-0.5,0.3-0.7,0.5-0.7c0.2,0,0.3,0.1,0.3,0.2c0.1,0.1,0.1,0.3,0.1,0.7l0.2,5.7c0,0.2,0,0.3,0,0.5c0,0,0,0,0,0.1
		c0,0.2,0,0.3-0.1,0.4c-0.1,0.1-0.2,0.1-0.3,0.1c-0.2,0-0.4-0.2-0.5-0.7c-0.1-0.5-0.2-0.9-0.4-1.2c-0.7-1.8-1.7-3.2-3-4.1
		c-1.3-0.9-2.9-1.3-4.8-1.3c-2.8,0-5.1,1.2-6.8,3.5c-1.7,2.3-2.5,5.5-2.5,9.6c0,3.8,0.8,6.7,2.5,8.9c1.7,2.2,4,3.3,6.9,3.3
		c1.7,0,3.2-0.4,4.5-1.3c1.3-0.9,2.3-2.1,3-3.7c0.3-0.7,0.6-1.5,0.8-2.3c0.3-0.9,0.5-1.3,0.7-1.3c0.1,0,0.2,0,0.2,0.1
		c0.1,0.1,0.1,0.2,0.1,0.3V267.2z"/>
	<path class="st9" d="M198,263.8c0,1,0.1,1.8,0.3,2.2c0.2,0.4,0.5,0.7,1,0.9c0.2,0.1,0.4,0.2,0.7,0.2c0.2,0.1,0.5,0.1,0.8,0.1
		c0,0,0,0,0.1,0c0.6,0.1,0.9,0.3,0.9,0.5c0,0.1-0.1,0.2-0.2,0.3c-0.1,0.1-0.3,0.1-0.5,0.1c-0.1,0-0.2,0-0.5,0
		c-1.5-0.1-3-0.2-4.6-0.2c-1.6,0-3.1,0.1-4.6,0.2c-0.3,0-0.4,0-0.5,0c-0.2,0-0.4,0-0.5-0.1c-0.1-0.1-0.2-0.2-0.2-0.3
		c0-0.3,0.3-0.4,0.9-0.5c0,0,0.1,0,0.1,0c0.3,0,0.6-0.1,0.9-0.1c0.2-0.1,0.5-0.1,0.6-0.2c0.5-0.2,0.8-0.5,1-1
		c0.2-0.4,0.3-1.1,0.3-2.2v-5.9l-6.7-12.1c0-0.1-0.1-0.2-0.2-0.3c-0.8-1.4-1.5-2.2-2.2-2.3c-0.1,0-0.3,0-0.5-0.1
		c-0.6-0.1-1-0.3-1-0.5c0-0.2,0.1-0.3,0.2-0.3c0.1-0.1,0.4-0.1,0.6-0.1c0.1,0,0.3,0,0.4,0c0.1,0,0.2,0,0.3,0c0.1,0,0.1,0,0.3,0
		c1,0.1,1.9,0.1,2.7,0.1c0.7,0,1.5,0,2.5-0.1c0.9,0,1.4-0.1,1.5-0.1c0.2,0,0.5,0,0.8,0c0.3,0,0.6,0,0.7,0c0.4,0,0.6,0,0.7,0.1
		c0.1,0.1,0.2,0.2,0.2,0.3c0,0.2-0.2,0.4-0.7,0.4c-0.3,0-0.5,0-0.7,0.1c-0.5,0.1-0.9,0.3-1.2,0.5c-0.3,0.2-0.4,0.6-0.4,1
		c0,0.2,0.1,0.6,0.2,1c0.2,0.4,0.4,0.9,0.6,1.4l5.2,10c0.5-0.8,1.2-2,2.1-3.5c2.9-4.8,4.4-7.7,4.4-8.7c0-0.4-0.1-0.8-0.3-1
		c-0.2-0.2-0.5-0.4-0.8-0.5c-0.2,0-0.4-0.1-0.7-0.1c-0.6-0.1-0.9-0.3-0.9-0.5c0-0.1,0.1-0.2,0.2-0.3c0.1-0.1,0.3-0.1,0.6-0.1
		c0.2,0,0.3,0,0.4,0c0.1,0,0.2,0,0.4,0c0.4,0,0.8,0,1.3,0.1c0.5,0,0.9,0,1.4,0c1,0,2,0,2.9-0.1h0c0.1,0,0.1,0,0.1,0c0,0,0.1,0,0.1,0
		c0.1,0,0.3,0,0.3,0.1c0.1,0.1,0.1,0.1,0.1,0.2c0,0.2-0.2,0.3-0.5,0.5c-0.1,0-0.1,0-0.1,0.1c-0.5,0.1-0.9,0.2-1.3,0.5
		c-0.4,0.2-0.8,0.6-1.1,1c-0.2,0.3-1.2,1.9-2.9,4.8c-1.7,2.9-3.5,5.7-5.2,8.4V263.8z"/>
	<path class="st9" d="M237.8,255.3c0-1.8,0.3-3.5,1-5.1c0.7-1.6,1.7-3.1,3-4.4c1.4-1.4,3-2.4,4.7-3.1c1.8-0.7,3.6-1.1,5.6-1.1
		c2,0,4,0.4,5.8,1.2c1.8,0.8,3.4,1.9,4.7,3.3c1.1,1.2,2,2.6,2.5,4.1c0.6,1.5,0.8,3.2,0.8,5.1c0,1.9-0.4,3.6-1.1,5.3
		c-0.7,1.7-1.7,3.1-3,4.3c-1.3,1.2-2.8,2.1-4.6,2.8c-1.8,0.7-3.6,1-5.4,1c-2,0-3.8-0.3-5.5-1c-1.7-0.6-3.2-1.6-4.5-2.8
		c-1.4-1.3-2.5-2.8-3.2-4.4C238.1,259.1,237.8,257.3,237.8,255.3z M242.5,255.1c0,3.9,0.9,7,2.6,9.3c1.7,2.4,4,3.5,6.8,3.5
		c2.8,0,5.1-1.2,6.8-3.5c1.7-2.3,2.6-5.4,2.6-9.3c0-3.9-0.8-7-2.5-9.3c-1.7-2.3-4-3.4-6.8-3.4c-2.8,0-5.1,1.2-6.8,3.5
		C243.4,248.3,242.5,251.3,242.5,255.1z"/>
	<path class="st9" d="M285.7,263.8c0,1.1,0.1,1.8,0.3,2.2c0.2,0.4,0.5,0.7,1,0.9c0.4,0.2,0.9,0.3,1.7,0.3c0,0,0,0,0,0
		c0,0,0.1,0,0.1,0c0.7,0.1,1,0.3,1,0.5c0,0.1-0.1,0.2-0.2,0.3c-0.1,0.1-0.3,0.1-0.5,0.1c-0.1,0-0.2,0-0.5,0c-1.6-0.1-3.3-0.2-5-0.2
		c-1.6,0-3.1,0.1-4.6,0.2c-0.3,0-0.4,0-0.5,0c-0.2,0-0.4,0-0.5-0.1c-0.1-0.1-0.2-0.2-0.2-0.3c0-0.2,0.3-0.4,0.9-0.5c0,0,0.1,0,0.1,0
		c0.3,0,0.6-0.1,0.8-0.1c0.2-0.1,0.5-0.1,0.7-0.2c0.5-0.2,0.8-0.6,1-1c0.2-0.4,0.3-1.1,0.3-2.1v-17.4c0-1-0.1-1.7-0.3-2.1
		c-0.2-0.4-0.5-0.7-1-1c-0.2-0.1-0.4-0.1-0.6-0.2c-0.2-0.1-0.5-0.1-0.8-0.1c0,0-0.1,0-0.1,0c-0.6-0.1-0.9-0.2-0.9-0.4
		c0-0.1,0.1-0.2,0.2-0.3c0.1-0.1,0.3-0.1,0.5-0.1c0.1,0,0.3,0,0.6,0c1.7,0.1,3.5,0.1,5.3,0.1c3.6,0,7.1,0,10.6-0.1c0.6,0,1,0,1.1,0
		c0.5,0,0.8,0,1,0.1c0.2,0.1,0.4,0.2,0.4,0.4c0,0.1,0,0.1,0.1,0.3c0,0.1,0,0.3,0,0.5v0.7c0,0.9,0.1,1.9,0.2,2.8
		c0,0.2,0.1,0.3,0.1,0.4c0,0.2,0,0.3-0.1,0.4c-0.1,0.1-0.2,0.2-0.3,0.2c-0.2,0-0.4-0.3-0.6-1c-0.2-0.6-0.5-1.2-0.8-1.6
		c-0.5-0.8-1.4-1.3-2.5-1.6c-1.1-0.3-2.8-0.5-4.9-0.5c-0.8,0-1.5,0-2,0.1c-0.5,0-0.8,0.1-0.9,0.2c-0.1,0.1-0.2,0.4-0.3,0.9
		c-0.1,0.5-0.1,1.2-0.1,2.1v8.2c1.8,0,3-0.2,3.7-0.4c0.7-0.2,1.3-0.6,1.7-1.1c0.4-0.5,0.7-1.2,0.9-2c0.2-0.9,0.4-1.3,0.6-1.3
		c0.2,0,0.3,0.1,0.3,0.2c0.1,0.1,0.1,0.4,0.1,0.7c0,0.1,0,0.2,0,0.4c0,0.8-0.1,1.6-0.1,2.4c0,1.2,0,2.5,0.1,3.7
		c0,1.3,0.1,1.9,0.1,1.9c0,0.2,0,0.4-0.1,0.6c-0.1,0.1-0.2,0.2-0.3,0.2c-0.2,0-0.4-0.4-0.5-1.1c-0.2-0.7-0.4-1.3-0.7-1.7
		c-0.4-0.6-1-1-1.6-1.2c-0.6-0.2-1.6-0.4-2.8-0.4c-0.4,0-0.6,0-0.9,0c-0.2,0-0.4,0-0.6,0V263.8z"/>
	<path class="st9" d="M335,256v7.9c0,1,0.1,1.7,0.3,2.1c0.2,0.4,0.5,0.7,1,1c0.2,0.1,0.4,0.2,0.7,0.2c0.2,0.1,0.5,0.1,0.8,0.1
		c0,0,0,0,0.1,0c0.6,0.1,0.9,0.3,0.9,0.5c0,0.1-0.1,0.2-0.2,0.3c-0.1,0.1-0.3,0.1-0.5,0.1c-0.1,0-0.2,0-0.5,0
		c-1.5-0.1-3-0.2-4.6-0.2c-1.6,0-3.1,0.1-4.6,0.2c-0.2,0-0.4,0-0.4,0c-0.2,0-0.4,0-0.5-0.1c-0.1-0.1-0.2-0.2-0.2-0.3
		c0-0.3,0.3-0.4,0.9-0.5c0,0,0.1,0,0.1,0c0.3,0,0.6-0.1,0.8-0.1c0.2-0.1,0.4-0.1,0.6-0.2c0.5-0.2,0.8-0.5,1-1
		c0.2-0.4,0.3-1.1,0.3-2.2v-17.4c0-1-0.1-1.7-0.3-2.1c-0.2-0.4-0.5-0.7-1-0.9c-0.2-0.1-0.4-0.1-0.6-0.2c-0.2-0.1-0.5-0.1-0.8-0.1
		c0,0-0.1,0-0.1,0c-0.6-0.1-0.9-0.2-0.9-0.4c0-0.1,0.1-0.2,0.2-0.3c0.1-0.1,0.3-0.1,0.5-0.1c0.1,0,0.3,0,0.6,0
		c1.5,0.1,3,0.1,4.4,0.1c0.7,0,1.6,0,2.5-0.1c1,0,1.5-0.1,1.8-0.1c3.4,0,6,0.6,7.8,1.7c1.8,1.2,2.6,2.9,2.6,5.1
		c0,2.2-0.9,3.9-2.6,5.1c-1.8,1.2-4.2,1.8-7.4,1.8c-0.5,0-1.3,0-2.5-0.2C335.1,256,335,256,335,256z M335,255
		c0.5,0.1,0.9,0.1,1.3,0.1c0.4,0,0.7,0,1,0c2.1,0,3.6-0.5,4.5-1.4c1-1,1.4-2.5,1.4-4.5c0-2.1-0.5-3.6-1.5-4.6c-1-1-2.5-1.5-4.6-1.5
		c-0.8,0-1.4,0.1-1.7,0.3c-0.3,0.2-0.5,0.5-0.5,1L335,255z"/>
	<path class="st9" d="M362.1,246.4c0-1-0.1-1.7-0.3-2.1c-0.2-0.4-0.5-0.7-1-1c-0.2-0.1-0.4-0.1-0.6-0.2c-0.2-0.1-0.5-0.1-0.8-0.1
		c0,0-0.1,0-0.1,0c-0.6-0.1-0.9-0.2-0.9-0.4c0-0.1,0.1-0.2,0.2-0.3c0.1-0.1,0.3-0.1,0.5-0.1c0.1,0,0.3,0,0.6,0
		c1.5,0.1,3,0.1,4.4,0.1c1.5,0,3.1,0,4.6-0.1c0.3,0,0.4,0,0.5,0c0.2,0,0.4,0,0.5,0.1c0.1,0.1,0.2,0.1,0.2,0.3c0,0.2-0.3,0.3-0.8,0.4
		c-0.1,0-0.1,0-0.2,0c-0.2,0-0.3,0-0.5,0c-0.2,0-0.4,0.1-0.7,0.1c-0.6,0.2-1,0.5-1.2,0.9c-0.2,0.5-0.4,1.2-0.4,2.2V260
		c0,2.6,0.6,4.4,1.7,5.6c1.1,1.2,2.9,1.8,5.4,1.8c2.9,0,5-0.7,6.3-2.2c1.4-1.4,2-3.7,2-6.7v-12.1c0-1-0.1-1.7-0.3-2.1s-0.5-0.7-1-1
		c-0.2-0.1-0.4-0.1-0.6-0.2c-0.2-0.1-0.5-0.1-0.8-0.1c0,0-0.1,0-0.1,0c-0.6-0.1-0.9-0.2-0.9-0.4c0-0.1,0.1-0.2,0.2-0.3
		c0.1-0.1,0.3-0.1,0.5-0.1c0.2,0,0.7,0,1.5,0.1c0.8,0.1,1.6,0.1,2.2,0.1c0.6,0,1.3,0,2-0.1c0.8,0,1.2-0.1,1.4-0.1
		c0.2,0,0.4,0,0.5,0.1c0.1,0.1,0.2,0.1,0.2,0.3c0,0.2-0.3,0.3-0.8,0.4c-0.1,0-0.1,0-0.2,0c-0.2,0-0.4,0-0.6,0
		c-0.2,0-0.4,0.1-0.7,0.1c-0.6,0.2-1,0.5-1.2,0.9c-0.2,0.5-0.3,1.2-0.3,2.3v11.1c0,4.1-0.8,7-2.4,8.7c-1.6,1.7-4.4,2.6-8.2,2.6
		c-3.3,0-5.8-0.7-7.4-2.1c-1.6-1.4-2.5-3.4-2.5-6.2V246.4z"/>
	<path class="st9" d="M405.4,263.8c0,1,0.1,1.8,0.3,2.2c0.2,0.4,0.5,0.7,1,1c0.2,0.1,0.4,0.2,0.6,0.2c0.2,0.1,0.5,0.1,0.8,0.1
		c0,0,0.1,0,0.1,0c0.6,0.1,0.9,0.2,0.9,0.5c0,0.1-0.1,0.2-0.2,0.3c-0.1,0.1-0.3,0.1-0.5,0.1c-0.1,0-0.2,0-0.5,0
		c-1.5-0.1-3.1-0.2-4.6-0.2c-1.6,0-3.1,0.1-4.6,0.2c-0.2,0-0.4,0-0.5,0c-0.2,0-0.4,0-0.5-0.1c-0.1-0.1-0.2-0.2-0.2-0.3
		c0-0.3,0.3-0.4,0.9-0.5c0,0,0.1,0,0.1,0c0.3,0,0.6-0.1,0.8-0.1c0.2-0.1,0.4-0.1,0.7-0.2c0.5-0.2,0.8-0.5,1-0.9
		c0.2-0.4,0.3-1.1,0.3-2.2v-17.4c0-1-0.1-1.7-0.3-2.1c-0.2-0.4-0.5-0.7-1-0.9c-0.2-0.1-0.4-0.1-0.6-0.2c-0.2-0.1-0.5-0.1-0.8-0.1
		c0,0-0.1,0-0.1,0c-0.6-0.1-0.9-0.2-0.9-0.4c0-0.1,0.1-0.2,0.2-0.3c0.1-0.1,0.3-0.1,0.5-0.1h0.3c0.3,0,0.6,0,1.1,0.1
		c0.5,0,1.1,0,1.7,0c1,0,2.3,0,3.9-0.1c1.6-0.1,2.8-0.1,3.5-0.1c3.3,0,5.7,0.5,7.3,1.6c1.5,1.1,2.3,2.7,2.3,5c0,1.9-0.6,3.5-1.8,4.6
		c-1.2,1.2-3,1.9-5.4,2.2l8.4,9.8c0.3,0.4,0.7,0.8,1.2,1.1c0.4,0.3,1,0.6,1.8,0.9c0,0,0,0,0.1,0c0.6,0.3,0.9,0.5,0.9,0.6
		c0,0.1-0.1,0.2-0.2,0.2c-0.1,0.1-0.3,0.1-0.4,0.1c-0.1,0-0.1,0-0.2,0c0,0-0.1,0-0.1,0c0,0-0.1,0-0.3,0c-0.9-0.1-1.7-0.1-2.5-0.1
		c-0.1,0-0.2,0-0.4,0c-0.1,0-0.3,0-0.6,0.1H418c-0.5,0-0.9,0-1.1-0.1c-0.2-0.1-0.4-0.3-0.6-0.5l-8.4-10.5c-0.3-0.3-0.5-0.6-0.8-0.7
		c-0.3-0.1-0.6-0.2-1.1-0.2c-0.3,0-0.5,0.1-0.6,0.2c-0.1,0.1-0.1,0.3-0.1,0.6V263.8z M405.4,254.2c0,0.5,0.1,0.7,0.2,0.9
		c0.1,0.1,0.4,0.2,0.8,0.2c2.8,0,4.7-0.5,5.9-1.4c1.2-0.9,1.8-2.5,1.8-4.6c0-2.2-0.6-3.8-1.7-4.9c-1.1-1-2.8-1.6-5.1-1.6
		c-0.7,0-1.2,0.1-1.5,0.3c-0.3,0.2-0.4,0.6-0.4,1.2V254.2z"/>
	<path class="st9" d="M441.6,263.8c0,1,0.1,1.7,0.3,2.1c0.2,0.4,0.6,0.8,1.1,1c0.2,0.1,0.5,0.2,0.8,0.2c0.3,0.1,0.6,0.1,0.9,0.1
		c0,0,0.1,0,0.1,0c0.6,0.1,0.9,0.3,0.9,0.5c0,0.1-0.1,0.2-0.2,0.3c-0.1,0.1-0.3,0.1-0.5,0.1c-0.1,0-0.2,0-0.5,0
		c-1.6-0.1-3.3-0.2-4.9-0.2c-1.6,0-3.3,0.1-4.9,0.2c-0.3,0-0.4,0-0.5,0c-0.2,0-0.4,0-0.6-0.1c-0.1-0.1-0.2-0.2-0.2-0.3
		c0-0.3,0.3-0.4,1-0.5c0,0,0.1,0,0.1,0c0,0,0,0,0.1,0c0.7-0.1,1.3-0.2,1.6-0.3c0.5-0.2,0.9-0.6,1.1-1c0.2-0.4,0.3-1.1,0.3-2.1v-17.4
		c0-1-0.1-1.7-0.3-2.1c-0.2-0.4-0.5-0.7-1-1c-0.2-0.1-0.4-0.1-0.7-0.2c-0.3-0.1-0.6-0.1-1-0.1c0,0-0.1,0-0.1,0
		c-0.7-0.1-1.1-0.2-1.1-0.4c0-0.1,0.1-0.2,0.4-0.3c0.2-0.1,0.5-0.1,0.8-0.1c0.1,0,0.3,0,0.6,0c1.5,0.1,3,0.1,4.4,0.1
		c1.5,0,3.1,0,4.6-0.1c0.3,0,0.4,0,0.5,0c0.3,0,0.5,0,0.7,0.1c0.2,0.1,0.3,0.1,0.3,0.2c0,0.2-0.3,0.3-0.9,0.4c-0.1,0-0.2,0-0.2,0
		c-0.3,0-0.5,0-0.8,0c-0.2,0-0.5,0.1-0.7,0.1c-0.6,0.2-1,0.5-1.2,0.9c-0.2,0.5-0.4,1.2-0.4,2.2V263.8z"/>
	<path class="st9" d="M471.9,263.8c0,1,0.1,1.7,0.3,2.2c0.2,0.4,0.6,0.8,1.1,1c0.4,0.2,0.9,0.3,1.6,0.3c0,0,0,0,0.1,0c0,0,0,0,0.1,0
		c0.7,0.1,1,0.3,1,0.5c0,0.1-0.1,0.2-0.2,0.3c-0.1,0.1-0.3,0.1-0.6,0.1c-0.1,0-0.2,0-0.5,0c-1.6-0.1-3.3-0.2-5-0.2
		c-1.7,0-3.3,0.1-5,0.2c-0.3,0-0.4,0-0.5,0c-0.2,0-0.4,0-0.5-0.1c-0.1-0.1-0.2-0.2-0.2-0.3c0-0.3,0.3-0.4,1-0.5c0,0,0.1,0,0.1,0
		c0,0,0,0,0.1,0c0.7-0.1,1.3-0.2,1.6-0.3c0.5-0.2,0.9-0.6,1.1-1c0.2-0.4,0.3-1.1,0.3-2.2v-19.5c0-0.5-0.1-0.8-0.4-0.9
		c-0.3-0.2-0.9-0.3-1.8-0.3h-1.5c-2.1,0-3.6,0.1-4.5,0.3c-0.8,0.2-1.5,0.6-1.9,1.2c-0.3,0.5-0.5,1.1-0.7,2c-0.1,0.9-0.3,1.3-0.5,1.3
		c-0.1,0-0.2,0-0.3-0.1c0-0.1-0.1-0.3-0.1-0.5v-4.4c0-0.3,0.1-0.6,0.2-0.7c0.2-0.1,0.4-0.2,0.9-0.2c0.1,0,0.4,0,1,0
		c3.7,0.2,7.5,0.2,11.5,0.2c4,0,7.8-0.1,11.5-0.2c0.6,0,0.9,0,1,0c0.4,0,0.7,0.1,0.9,0.2c0.1,0.1,0.2,0.4,0.2,0.7v4.4
		c0,0.3,0,0.5-0.1,0.6c0,0.1-0.1,0.1-0.2,0.1c-0.2,0-0.3-0.4-0.5-1.3c-0.1-0.9-0.4-1.5-0.7-2c-0.4-0.6-1-1-1.8-1.2s-2.6-0.3-5.4-0.3
		h-0.7c-1,0-1.6,0.1-1.8,0.2c-0.2,0.2-0.4,0.5-0.4,0.9V263.8z"/>
	<path class="st9" d="M507.3,263.8c0,1,0.1,1.8,0.3,2.2s0.5,0.7,1,0.9c0.2,0.1,0.4,0.2,0.7,0.2c0.2,0.1,0.5,0.1,0.8,0.1
		c0,0,0,0,0.1,0c0.6,0.1,0.9,0.3,0.9,0.5c0,0.1-0.1,0.2-0.2,0.3c-0.1,0.1-0.3,0.1-0.5,0.1c0,0-0.2,0-0.5,0c-1.5-0.1-3-0.2-4.6-0.2
		c-1.6,0-3.1,0.1-4.6,0.2c-0.3,0-0.4,0-0.5,0c-0.2,0-0.4,0-0.5-0.1c-0.1-0.1-0.2-0.2-0.2-0.3c0-0.3,0.3-0.4,0.9-0.5c0,0,0.1,0,0.1,0
		c0.3,0,0.6-0.1,0.9-0.1c0.2-0.1,0.5-0.1,0.6-0.2c0.5-0.2,0.8-0.5,1-1c0.2-0.4,0.3-1.1,0.3-2.2v-5.9l-6.7-12.1
		c0-0.1-0.1-0.2-0.2-0.3c-0.8-1.4-1.5-2.2-2.2-2.3c-0.1,0-0.3,0-0.5-0.1c-0.6-0.1-1-0.3-1-0.5c0-0.2,0.1-0.3,0.2-0.3
		c0.1-0.1,0.4-0.1,0.6-0.1c0.1,0,0.3,0,0.4,0c0.1,0,0.2,0,0.3,0c0,0,0.1,0,0.3,0c1,0.1,1.9,0.1,2.7,0.1c0.7,0,1.5,0,2.5-0.1
		c0.9,0,1.4-0.1,1.5-0.1c0.2,0,0.5,0,0.8,0c0.3,0,0.6,0,0.7,0c0.4,0,0.6,0,0.7,0.1c0.1,0.1,0.2,0.2,0.2,0.3c0,0.2-0.2,0.4-0.7,0.4
		c-0.3,0-0.5,0-0.7,0.1c-0.5,0.1-0.9,0.3-1.2,0.5c-0.3,0.2-0.4,0.6-0.4,1c0,0.2,0.1,0.6,0.2,1c0.2,0.4,0.4,0.9,0.6,1.4l5.2,10
		c0.5-0.8,1.2-2,2.1-3.5c2.9-4.8,4.4-7.7,4.4-8.7c0-0.4-0.1-0.8-0.3-1c-0.2-0.2-0.5-0.4-0.8-0.5c-0.2,0-0.4-0.1-0.7-0.1
		c-0.6-0.1-0.9-0.3-0.9-0.5c0-0.1,0.1-0.2,0.2-0.3c0.1-0.1,0.3-0.1,0.6-0.1c0.2,0,0.3,0,0.4,0c0.1,0,0.2,0,0.4,0
		c0.4,0,0.8,0,1.3,0.1c0.5,0,0.9,0,1.4,0c1,0,2,0,2.9-0.1h0c0,0,0.1,0,0.1,0c0,0,0.1,0,0.1,0c0.1,0,0.3,0,0.3,0.1
		c0.1,0.1,0.1,0.1,0.1,0.2c0,0.2-0.2,0.3-0.5,0.5c-0.1,0-0.1,0-0.1,0.1c-0.5,0.1-0.9,0.2-1.3,0.5c-0.4,0.2-0.8,0.6-1.1,1
		c-0.2,0.3-1.2,1.9-2.9,4.8c-1.7,2.9-3.5,5.7-5.2,8.4V263.8z"/>
</g>
</svg>
