<?xml version="1.0" encoding="utf-8"?>
<!-- Generator: Adobe Illustrator 24.2.1, SVG Export Plug-In . SVG Version: 6.00 Build 0)  -->
<svg version="1.1" id="Layer_1" xmlns="http://www.w3.org/2000/svg" xmlns:xlink="http://www.w3.org/1999/xlink" x="0px" y="0px"
	 viewBox="0 0 842.6 389.1" style="enable-background:new 0 0 842.6 389.1;" xml:space="preserve">
<style type="text/css">
	.st0{fill:url(#SVGID_1_);}
	.st1{fill:url(#SVGID_2_);}
	.st2{fill:url(#SVGID_3_);}
	.st3{fill:url(#SVGID_4_);}
	.st4{fill:url(#SVGID_5_);}
	.st5{fill:url(#SVGID_6_);}
	.st6{fill:url(#SVGID_7_);}
	.st7{fill:url(#SVGID_8_);}
	.st8{fill:url(#SVGID_9_);}
	.st9{fill:#070707;}
	.st10{fill:url(#SVGID_10_);}
	.st11{fill:url(#SVGID_11_);}
	.st12{fill:url(#SVGID_12_);}
	.st13{fill:url(#SVGID_13_);}
	.st14{fill:url(#SVGID_14_);}
	.st15{fill:url(#SVGID_15_);}
	.st16{fill:url(#SVGID_16_);}
	.st17{fill:url(#SVGID_17_);}
	.st18{fill:url(#SVGID_18_);}
	.st19{fill:url(#SVGID_19_);}
	.st20{fill:url(#SVGID_20_);}
	.st21{fill:url(#SVGID_21_);}
	.st22{fill:url(#SVGID_22_);}
	.st23{fill:url(#SVGID_23_);}
</style>
<g>
	
		<linearGradient id="SVGID_1_" gradientUnits="userSpaceOnUse" x1="-50.3818" y1="195.3692" x2="798.951" y2="192.1641" gradientTransform="matrix(1 0 0 -1 0 346.4348)">
		<stop  offset="0" style="stop-color:#A4874F"/>
		<stop  offset="0.417" style="stop-color:#FFCD7B"/>
		<stop  offset="1" style="stop-color:#E1B071"/>
	</linearGradient>
	<path class="st0" d="M200.4,258.1c-41.4,0-57.6-36.8-61.1-68.9L122.6,215c15.1,27.5,43.4,44.6,80.2,44.6
		c44.4,0,76.2-24.6,76.2-61.3c0-72.1-120.2-54.2-120.2-111.4c0-24.9,22.2-40.8,45.2-40.8c33.8,0,49.5,36.2,52.4,65.2l16.7-25.8
		c-13.4-24.5-40.3-41-71.6-41c-31.8,0-69.2,17.3-69.2,57c0,70.4,117.9,50.3,117.9,112.6C250.1,240.1,229.3,258.1,200.4,258.1z"/>
	
		<linearGradient id="SVGID_2_" gradientUnits="userSpaceOnUse" x1="-50.3789" y1="196.1472" x2="798.9539" y2="192.9422" gradientTransform="matrix(1 0 0 -1 0 346.4348)">
		<stop  offset="0" style="stop-color:#A4874F"/>
		<stop  offset="0.417" style="stop-color:#FFCD7B"/>
		<stop  offset="1" style="stop-color:#E1B071"/>
	</linearGradient>
	<path class="st1" d="M392.4,259.5c64.6,0,99.4-43.2,99.4-108c0-64.9-34.8-107.1-99.4-107.1c-64.9,0-100,42.3-100,107.1
		C292.5,216.5,327.5,259.5,392.4,259.5z M392.4,47.6c46.6,0,69.5,44.8,69.5,106.9s-22.8,102.2-69.5,102.2
		c-46.9,0-70.1-40.3-70.1-102.2S345.4,47.6,392.4,47.6z"/>
	
		<linearGradient id="SVGID_3_" gradientUnits="userSpaceOnUse" x1="-50.3759" y1="196.9381" x2="798.9568" y2="193.7332" gradientTransform="matrix(1 0 0 -1 0 346.4348)">
		<stop  offset="0" style="stop-color:#A4874F"/>
		<stop  offset="0.417" style="stop-color:#FFCD7B"/>
		<stop  offset="1" style="stop-color:#E1B071"/>
	</linearGradient>
	<path class="st2" d="M602,259.5c20,0,38.3-6.9,53-18.5c1.8-0.6,3.2-0.8,4.9-0.8c7.8,0,14.8,5.7,19.1,16.5h1.4v-28.3h-29.8v12.4
		c-13.3,9.6-28.9,15.9-44.4,15.9c-40.8,0-67.8-43.2-67.8-105.1c0-62.3,26.9-105.7,64.3-105.7c32.8,0,58.8,33.6,61.3,71.9h1.4
		l16.3-25.2c-14.8-27.3-45.2-48.1-79.9-48.1c-50.7,0-96.4,44.6-96.4,107.5C505.7,214.4,551.7,259.5,602,259.5z"/>
	
		<linearGradient id="SVGID_4_" gradientUnits="userSpaceOnUse" x1="-50.3993" y1="190.7307" x2="798.9336" y2="187.5257" gradientTransform="matrix(1 0 0 -1 0 346.4348)">
		<stop  offset="0" style="stop-color:#A4874F"/>
		<stop  offset="0.417" style="stop-color:#FFCD7B"/>
		<stop  offset="1" style="stop-color:#E1B071"/>
	</linearGradient>
	<polygon class="st3" points="612.4,168.3 641.5,168.3 660.4,148.3 630.4,148.3 	"/>
	
		<linearGradient id="SVGID_5_" gradientUnits="userSpaceOnUse" x1="-50.3997" y1="190.6259" x2="798.9331" y2="187.4207" gradientTransform="matrix(1 0 0 -1 0 346.4348)">
		<stop  offset="0" style="stop-color:#A4874F"/>
		<stop  offset="0.417" style="stop-color:#FFCD7B"/>
		<stop  offset="1" style="stop-color:#E1B071"/>
	</linearGradient>
	<polygon class="st4" points="666.4,148.3 645.9,168.6 686,168.6 	"/>
	
		<linearGradient id="SVGID_6_" gradientUnits="userSpaceOnUse" x1="-50.3991" y1="190.7776" x2="798.9337" y2="187.5726" gradientTransform="matrix(1 0 0 -1 0 346.4348)">
		<stop  offset="0" style="stop-color:#A4874F"/>
		<stop  offset="0.417" style="stop-color:#FFCD7B"/>
		<stop  offset="1" style="stop-color:#E1B071"/>
	</linearGradient>
	<polygon class="st5" points="691.1,168.6 720.2,168.6 701.6,148.3 672.7,148.3 	"/>
	
		<linearGradient id="SVGID_7_" gradientUnits="userSpaceOnUse" x1="-50.5501" y1="150.7657" x2="798.7827" y2="147.5606" gradientTransform="matrix(1 0 0 -1 0 346.4348)">
		<stop  offset="0" style="stop-color:#A4874F"/>
		<stop  offset="0.417" style="stop-color:#FFCD7B"/>
		<stop  offset="1" style="stop-color:#E1B071"/>
	</linearGradient>
	<polygon class="st6" points="686.1,172.8 645.9,172.8 666.5,224 	"/>
	
		<linearGradient id="SVGID_8_" gradientUnits="userSpaceOnUse" x1="-50.5498" y1="150.836" x2="798.7829" y2="147.631" gradientTransform="matrix(1 0 0 -1 0 346.4348)">
		<stop  offset="0" style="stop-color:#A4874F"/>
		<stop  offset="0.417" style="stop-color:#FFCD7B"/>
		<stop  offset="1" style="stop-color:#E1B071"/>
	</linearGradient>
	<polygon class="st7" points="690.5,172.8 670.4,224 719.5,172.8 	"/>
	
		<linearGradient id="SVGID_9_" gradientUnits="userSpaceOnUse" x1="-50.5504" y1="150.6742" x2="798.7823" y2="147.4692" gradientTransform="matrix(1 0 0 -1 0 346.4348)">
		<stop  offset="0" style="stop-color:#A4874F"/>
		<stop  offset="0.417" style="stop-color:#FFCD7B"/>
		<stop  offset="1" style="stop-color:#E1B071"/>
	</linearGradient>
	<polygon class="st8" points="662.7,224 641.5,172.8 612.4,172.8 	"/>
</g>
<g>
	<path class="st9" d="M162.2,564.6c8.2,0,14-4.5,14-11.3c0-13.3-22.1-10-22.1-20.5c0-4.6,4.1-7.5,8.3-7.5c6.2,0,9.1,6.7,9.7,12
		l3.1-4.7c-2.5-4.5-7.4-7.5-13.2-7.5c-5.9,0-12.7,3.2-12.7,10.5c0,13,21.7,9.3,21.7,20.7c0,4.8-3.8,8.1-9.2,8.1
		c-7.6,0-10.6-6.8-11.3-12.7l-3.1,4.7C150.2,561.4,155.4,564.6,162.2,564.6z"/>
	<path class="st9" d="M208.9,525.7v-0.1h-9.8v0.1c1.3,0.6,2.1,2.2,2.1,3.9V545h-14.9v-15.4c0-1.8,0.9-3.3,2.2-3.9v-0.1h-9.9v0.1
		c1.3,0.6,2.1,2.2,2.1,3.9v30.5c0,1.7-0.9,3.3-2.1,3.9v0.1h9.9V564c-1.3-0.6-2.2-2.1-2.2-3.9v-14.6h14.9v14.6c0,1.7-0.9,3.3-2.1,3.9
		v0.1h9.9V564c-1.3-0.6-2.2-2.1-2.2-3.9v-30.5C206.7,527.8,207.6,526.2,208.9,525.7z"/>
	<path class="st9" d="M233.8,563.9L233.8,563.9l9.7,0.1v-0.1c-1.3-1-2.1-2.1-2.8-3.9l-11.3-30.5c-0.9-2.5-2.3-4-3.3-4h-5.9v0.1
		c1.3,0.6,2.7,2.2,3.3,3.9l0.2,0.4L212.8,560c-0.5,1.5-2,3.3-3.3,3.9v0.1h5.2v-0.1c-0.9-0.4-1.4-1.3-1.4-2.4c0-0.5,0.1-1,0.3-1.5
		l3.3-9.2h14.6l3.4,9.2c0.2,0.5,0.3,1,0.3,1.5C235.2,562.6,234.7,563.5,233.8,563.9z M217.1,550.3L224,531l7.2,19.3H217.1z"/>
	<path class="st9" d="M270.9,564.1h1.2v-34.5c0-1.8,0.9-3.3,2.2-3.9v-0.1h-5.4v0.1c1.3,0.6,2.1,2.2,2.1,3.9v24.6l-19.4-28.7h-8.2
		v0.1c1.2,0.6,3,2,3.8,3.6V560c0,1.7-0.9,3.3-2.1,3.9v0.1h5.4v-0.1c-1.3-0.6-2.2-2.1-2.2-3.9v-29.4L270.9,564.1z"/>
	<path class="st9" d="M296.5,525.8h0.4c4.1,0,7.5,3.5,10.7,9.4h0.1c-0.9-3.9-0.7-6-0.9-9.7h-30.6c-0.3,3.7-0.1,5.8-0.9,9.7h0.1
		c3.2-5.9,6.6-9.4,10.7-9.4h0.4c1.3,0,2.2,1.5,2.2,3.7V560c0,1.3-0.7,2.7-1.6,3.5c-0.2,0.2-0.4,0.3-0.6,0.4v0.1h9.9v-0.1
		c-0.2-0.1-0.4-0.2-0.6-0.4c-1-0.8-1.6-2.2-1.6-3.5v-30.5C294.3,527.3,295.2,525.8,296.5,525.8z"/>
	<path class="st9" d="M339.3,525.7v-0.1h-9.9v0.1c1.3,0.6,2.1,2.2,2.1,3.9V545h-14.9v-15.4c0-1.8,0.9-3.3,2.2-3.9v-0.1h-9.7v0.1
		c1.3,0.6,2.1,2.2,2.1,3.9v30.5c0,1.7-0.9,3.3-2.1,3.9v0.1h9.9V564c-1.3-0.6-2.2-2.1-2.2-3.9v-14.6h14.9v14.6c0,1.7-0.9,3.3-2.1,3.9
		v0.1h9.9V564c-1.3-0.6-2.2-2.1-2.2-3.9v-30.5C337.1,527.8,338,526.2,339.3,525.7z"/>
	<path class="st9" d="M351.7,525.7v-0.1h-9.9v0.1c1.3,0.6,2.1,2.2,2.1,3.9v30.5c0,1.7-0.9,3.3-2.1,3.9v0.1h9.9V564
		c-1.3-0.6-2.2-2.1-2.2-3.9v-30.5C349.5,527.8,350.4,526.2,351.7,525.7z"/>
	<path class="st9" d="M370.9,544.7c0,11.9,6.5,19.9,18.4,19.9s18.3-7.9,18.3-19.9c0-11.9-6.4-19.7-18.3-19.7
		C377.4,525,370.9,532.8,370.9,544.7z M402.1,545.2c0,11.4-4.2,18.8-12.8,18.8s-12.9-7.4-12.9-18.8c0-11.4,4.3-19.7,12.9-19.7
		C397.9,525.6,402.1,533.8,402.1,545.2z"/>
	<path class="st9" d="M436.2,564.1h1.2v-34.5c0-1.8,0.9-3.3,2.2-3.9v-0.1h-5.5v0.1c1.3,0.6,2.1,2.2,2.1,3.9v24.6l-19.4-28.7h-8.2
		v0.1c1.2,0.6,3,2,3.8,3.6V560c0,1.7-0.9,3.3-2.1,3.9v0.1h5.4v-0.1c-1.3-0.6-2.2-2.1-2.2-3.9v-29.4L436.2,564.1z"/>
	<path class="st9" d="M442,563.8v0.3h25.7c0.2-3.7,1.2-6.4,2.5-10.3h-0.1c-3.1,5.9-8.2,10-12.4,10h-5.9c-1.3,0-2.2-1.5-2.2-3.7
		v-30.5c0-1.8,0.9-3.3,2.2-3.9v-0.1h-9.9v0.1c1.3,0.6,2.1,2.2,2.1,3.9v30.5C444.1,561.7,443.3,563.1,442,563.8z"/>
	<path class="st9" d="M481.2,525.7v-0.1h-9.9v0.1c1.3,0.6,2.1,2.2,2.1,3.9v30.5c0,1.7-0.9,3.3-2.1,3.9v0.1h9.9V564
		c-1.3-0.6-2.2-2.1-2.2-3.9v-30.5C479,527.8,479.9,526.2,481.2,525.7z"/>
	<path class="st9" d="M482.9,525.7c1.2,0.6,3,2,3.8,3.6v30.8c0,1.7-0.9,3.3-2.1,3.9v0.1h5.4V564c-1.3-0.6-2.2-2.1-2.2-3.9v-29.4
		l22.6,33.4h1.2v-34.5c0-1.8,0.9-3.3,2.2-3.9v-0.1h-5.4v0.1c1.3,0.6,2.1,2.2,2.1,3.9v24.6l-19.4-28.6h-8.2V525.7z"/>
	<path class="st9" d="M516.2,563.8v0.3h25.7c0.2-3.7,1.2-6.4,2.5-10.3h-0.1c-3.1,5.9-8.2,10-12.4,10h-5.8c-1.3,0-2.2-1.5-2.2-3.7
		v-15.5h7.8c3.1,0,5.4,1.5,5.5,3.9h0.3v-8.1h-0.3c-0.2,2.3-2.4,3.8-5.5,3.8h-7.8v-14.7c0-2.3,1.6-3.7,3.9-3.7h4.2
		c4.6,0,8.9,3.9,10.7,10h0.1c-0.5-3.9-0.6-6.6-0.9-10.3h-25.7v0.3c1.3,0.6,2.1,2.1,2.1,3.7V560C518.3,561.7,517.5,563.1,516.2,563.8
		z"/>
	<path class="st9" d="M581,525.2c6,0,10.8,6.2,11.3,13.2h0.3l3-4.6c-2.7-5-8.3-8.9-14.7-8.9c-9.3,0-17.8,8.2-17.8,19.8
		c0,11.5,8.5,19.8,17.8,19.8c3.7,0,7-1.3,9.8-3.4c0.3-0.1,0.6-0.2,0.9-0.2c1.4,0,2.7,1.1,3.5,3h0.3v-15.3c0-1.8,0.9-3.3,2.2-3.9
		v-0.1h-9.9v0.1c1.3,0.6,2.2,2.2,2.2,3.9v12.3c-2.5,1.8-5.3,2.9-8.2,2.9c-7.5,0-12.5-7.9-12.5-19.4
		C569.2,533.2,574.1,525.2,581,525.2z"/>
	<path class="st9" d="M599.8,544.7c0,11.9,6.5,19.9,18.4,19.9c11.9,0,18.3-7.9,18.3-19.9c0-11.9-6.4-19.7-18.3-19.7
		C606.2,525,599.8,532.8,599.8,544.7z M631,545.2c0,11.4-4.2,18.8-12.8,18.8c-8.6,0-12.9-7.4-12.9-18.8c0-11.4,4.3-19.7,12.9-19.7
		C626.7,525.6,631,533.8,631,545.2z"/>
	<path class="st9" d="M639.1,563.8v0.3h25.7c0.2-3.7,1.2-6.4,2.5-10.3h-0.1c-3.1,5.9-8.2,10-12.4,10h-5.9c-1.3,0-2.2-1.5-2.2-3.7
		v-30.5c0-1.8,0.9-3.3,2.2-3.9v-0.1h-9.8v0.1c1.3,0.6,2.1,2.2,2.1,3.9v30.5C641.2,561.7,640.4,563.1,639.1,563.8z"/>
	<path class="st9" d="M700.6,544.8c0-11.6-8.4-19.2-18.5-19.2h-13.6v0.3c1.3,0.6,2.1,2.1,2.1,3.7v30.5c0,1.7-0.9,3-2.1,3.7v0.3H682
		C692.1,564.1,700.6,556.3,700.6,544.8z M676.1,560.1v-30.5c0-2.3,1.6-3.7,3.9-3.7h2c7.5,0,12.5,7.4,12.5,18.9
		c0,11.4-5,18.8-12.5,18.8h-3.7C677,563.5,676.1,562,676.1,560.1z"/>
</g>
<path class="st9" d="M773.8,517.4C763.3,604.8,611,674.1,424.5,674.1c-192.3,0-348.3-73.8-349.8-165c-0.4,3.2-0.6,6.4-0.6,9.6
	C74.1,610.6,230.7,685,424,685s349.9-74.5,349.9-166.3C773.9,518.3,773.8,517.8,773.8,517.4z"/>
<g>
	<linearGradient id="SVGID_10_" gradientUnits="userSpaceOnUse" x1="-106.7642" y1="327.5625" x2="918.0364" y2="337.2405">
		<stop  offset="0" style="stop-color:#A4874F"/>
		<stop  offset="0.417" style="stop-color:#FFCD7B"/>
		<stop  offset="1" style="stop-color:#E1B071"/>
	</linearGradient>
	<path class="st10" d="M42.5,340.3c0,2.8,0.6,4.8,1.9,5.7s3.7,1.4,7.6,1.4c2.8,0,5.1-0.3,6.8-0.9c1.7-0.6,2.9-1.5,3.9-2.8
		c0.6-0.8,1.1-1.9,1.4-3.2c0.3-1.4,0.6-2,1.1-2c0.2,0,0.3,0,0.3,0.2c0,0.2,0.2,0.5,0.2,0.9l-0.2,8c0,0.6-0.2,1.1-0.3,1.2
		c-0.2,0.2-0.5,0.3-1.1,0.3c-0.2,0-0.8,0-1.9,0c-5.6-0.3-11.1-0.5-16.8-0.5c-4.5,0-8.8,0.2-12.8,0.3c-0.5,0-0.8,0-0.9,0
		c-0.3,0-0.6,0-0.8-0.2c-0.2-0.2-0.3-0.3-0.3-0.5c0-0.5,0.5-0.6,1.4-0.8c0.2,0,0.2,0,0.2,0c0.5,0,0.9-0.2,1.2-0.2
		c0.3-0.2,0.6-0.2,0.9-0.3c0.8-0.3,1.2-0.8,1.5-1.5c0.3-0.6,0.5-1.7,0.5-3.4v-26.9c0-1.5-0.2-2.6-0.5-3.2c-0.3-0.6-0.8-1.1-1.5-1.4
		c-0.3-0.2-0.6-0.2-1.1-0.3c-0.3-0.2-0.8-0.2-1.2-0.2h-0.2c-0.9-0.2-1.4-0.3-1.4-0.6c0-0.2,0.2-0.3,0.3-0.5c0.2-0.2,0.5-0.2,0.8-0.2
		c0.2,0,0.5,0,0.9,0c2.3,0.2,4.6,0.2,6.8,0.2c2.3,0,4.8,0,7.1-0.2c0.5,0,0.6,0,0.8,0c0.3,0,0.6,0,0.8,0.2c0.2,0.2,0.3,0.2,0.3,0.5
		c0,0.3-0.5,0.5-1.2,0.6c-0.2,0-0.2,0-0.3,0c-0.3,0-0.6,0-0.9,0s-0.6,0.2-1.1,0.2c-0.9,0.3-1.5,0.8-1.9,1.4
		c-0.3,0.8-0.5,1.9-0.5,3.6v25H42.5z"/>
	<linearGradient id="SVGID_11_" gradientUnits="userSpaceOnUse" x1="-106.7598" y1="327.1046" x2="918.0407" y2="336.7826">
		<stop  offset="0" style="stop-color:#A4874F"/>
		<stop  offset="0.417" style="stop-color:#FFCD7B"/>
		<stop  offset="1" style="stop-color:#E1B071"/>
	</linearGradient>
	<path class="st11" d="M94.1,338.8c0,3.9,0.6,6.3,1.7,7.3c1.1,0.9,3.6,1.4,7.1,1.4c2.9,0,5.1-0.3,6.6-0.8c1.5-0.6,2.6-1.5,3.4-2.9
		c0.5-0.8,0.8-1.5,0.9-2.6c0.3-1.1,0.5-1.5,0.9-1.5c0.3,0,0.5,0.2,0.5,0.3c0.2,0.2,0.2,0.8,0.2,1.5c0,0.6,0,1.5-0.2,2.9
		c-0.2,1.4-0.2,2.3-0.2,3.1c0,0.8-0.2,1.2-0.3,1.4c-0.2,0.2-0.8,0.3-1.7,0.3c-0.2,0-0.8,0-1.7,0c-6.6-0.2-13.4-0.3-20.6-0.3
		c-2.5,0-4.8,0.2-7.1,0.3c-0.3,0-0.6,0-0.6,0c-0.3,0-0.6,0-0.8-0.2c-0.2-0.2-0.3-0.3-0.3-0.5c0-0.5,0.5-0.6,1.4-0.8h0.2
		c0.5,0,0.9-0.2,1.2-0.2c0.3-0.2,0.6-0.2,0.9-0.3c0.8-0.3,1.2-0.8,1.5-1.5c0.3-0.6,0.5-1.7,0.5-3.4v-26.9c0-1.5-0.2-2.6-0.5-3.2
		c-0.3-0.6-0.8-1.1-1.5-1.4c-0.3-0.2-0.6-0.2-0.9-0.3c-0.3-0.2-0.8-0.2-1.2-0.2h-0.2c-0.9-0.2-1.4-0.3-1.4-0.6
		c0-0.2,0.2-0.3,0.3-0.5c0.2-0.2,0.5-0.2,0.8-0.2c0.2,0,0.5,0,0.9,0c2.8,0.2,5.7,0.2,8.5,0.2c1.4,0,3.6,0,7-0.2
		c3.2,0,5.9-0.2,7.9-0.2h1.2c1.5,0,2.6,0.2,2.9,0.3c0.5,0.2,0.6,0.6,0.6,1.1c0,0.2,0,0.5-0.2,1.2c0,0.8-0.2,1.4-0.2,2
		c0,0.6,0,1.2,0.2,1.9s0.2,1.1,0.2,1.2c0,0.3,0,0.6-0.2,0.8s-0.3,0.2-0.5,0.2c-0.5,0-0.6-0.5-0.8-1.5c-0.2-1.1-0.5-1.9-0.8-2.5
		c-0.8-1.2-1.9-2-3.2-2.5c-1.5-0.5-4-0.8-7.6-0.8h-0.5c-2.2,0-3.6,0.2-3.9,0.5c-0.5,0.3-0.6,1.2-0.6,2.8v13.8c2.8-0.2,4.8-0.5,6-0.9
		c1.2-0.5,2.2-1.2,2.8-2.3c0.5-0.6,0.8-1.5,0.9-2.8c0.2-1.2,0.5-1.9,0.8-1.9s0.5,0.2,0.5,0.3c0.2,0.2,0.2,0.5,0.2,0.8s0,1.1-0.2,2.5
		c-0.2,1.4-0.2,2.8-0.2,3.9c0,1.5,0,3.2,0.2,4.9c0.2,1.7,0.2,2.6,0.2,2.6c0,0.3,0,0.6-0.2,0.8c-0.2,0.2-0.3,0.3-0.5,0.3
		c-0.3,0-0.5-0.5-0.8-1.2c-0.2-0.8-0.5-1.5-0.6-2.2c-0.6-1.2-1.5-2.2-2.8-2.6s-3.1-0.8-5.4-0.8h-1.1V338.8z"/>
	<linearGradient id="SVGID_12_" gradientUnits="userSpaceOnUse" x1="-106.7532" y1="326.4051" x2="918.0473" y2="336.0831">
		<stop  offset="0" style="stop-color:#A4874F"/>
		<stop  offset="0.417" style="stop-color:#FFCD7B"/>
		<stop  offset="1" style="stop-color:#E1B071"/>
	</linearGradient>
	<path class="st12" d="M171.3,344.6c-0.9,0-1.9,0.2-2.6,0.3c-0.8,0.2-1.4,0.3-2,0.6c-0.5,0.2-1.1,0.5-1.9,0.9
		c-4.3,2.3-8.2,3.4-11.7,3.4c-2.9,0-5.6-0.5-8-1.5c-2.5-0.9-4.6-2.5-6.5-4.3c-1.9-1.9-3.2-3.9-4-6.2c-0.9-2.3-1.4-4.8-1.4-7.7
		c0-6.6,2-11.9,5.9-16.1c3.9-4.2,9-6.2,15.3-6.2c3.4,0,6.8,0.8,10.2,2.3c0.9,0.5,1.5,0.6,1.9,0.6s0.6-0.3,0.9-0.9
		c0.3-0.6,0.6-0.9,0.8-0.9c0.3,0,0.5,0.2,0.5,0.3c0.2,0.2,0.2,0.5,0.2,0.9v0.6l-0.3,8.8c0,0.3,0,0.5-0.2,0.6
		c-0.2,0.2-0.2,0.2-0.5,0.2s-0.6-0.5-0.8-1.2c-0.2-0.6-0.3-1.1-0.5-1.5c-1.1-2.8-2.5-4.9-4.3-6.3c-1.9-1.4-4.2-2-7.1-2
		c-4.8,0-8.5,1.7-11,5.1s-3.7,8.5-3.7,15c0,6,1.2,10.7,3.7,14.1s5.9,5.1,10,5.1c3.6,0,6.2-0.8,7.9-2.3s2.5-4,2.5-7.4
		c0-1.2-0.2-2.2-0.6-2.9c-0.3-0.8-0.9-1.2-1.5-1.5c-0.3-0.2-0.6-0.2-1.1-0.3c-0.3-0.2-0.6-0.2-0.9-0.2c0,0-0.2,0-0.3,0
		c-0.8-0.2-1.2-0.5-1.2-0.8c0-0.2,0.2-0.3,0.3-0.5c0.3-0.2,0.6-0.2,0.9-0.2c0.2,0,0.5,0,1.1,0.2c2,0.2,4,0.3,5.9,0.3
		c2,0,4-0.2,6-0.3c0.5,0,0.8-0.2,0.8-0.2c0.3,0,0.6,0,0.8,0.2c0.2,0.2,0.3,0.3,0.3,0.5c0,0.3-0.3,0.6-0.9,0.8c-0.2,0-0.2,0-0.2,0.2
		c-0.3,0-0.6,0.2-0.9,0.2c-0.3,0.2-0.6,0.3-0.9,0.5c-0.6,0.3-0.9,0.8-1.2,1.4c-0.2,0.6-0.3,1.7-0.3,3.6v0.6c0,0.9,0,1.7,0,2.5
		C170.4,343.4,171.1,344,171.3,344.6z"/>
	<linearGradient id="SVGID_13_" gradientUnits="userSpaceOnUse" x1="-106.7441" y1="325.4407" x2="918.0564" y2="335.1187">
		<stop  offset="0" style="stop-color:#A4874F"/>
		<stop  offset="0.417" style="stop-color:#FFCD7B"/>
		<stop  offset="1" style="stop-color:#E1B071"/>
	</linearGradient>
	<path class="st13" d="M198.3,334.4l-2.6,6.6c-0.3,0.6-0.5,1.2-0.6,1.9c-0.2,0.6-0.2,1.1-0.2,1.5c0,0.8,0.2,1.4,0.5,1.9
		c0.3,0.5,0.8,0.9,1.5,1.1c0.5,0.2,0.6,0.2,0.9,0.3c0.2,0,0.3,0,0.5,0c0.5,0,0.8,0.2,1.1,0.3c0.2,0.2,0.3,0.3,0.3,0.5
		c0,0.2-0.2,0.3-0.3,0.3c-0.2,0.2-0.5,0.2-0.8,0.2c-0.2,0-0.8,0-2-0.2c-1.2-0.2-2.5-0.2-3.6-0.2c-0.9,0-1.9,0-2.9,0.2
		c-1.1,0.2-1.9,0.2-2,0.2c-0.5,0-0.9,0-1.1-0.2c-0.3-0.2-0.3-0.3-0.3-0.5c0-0.2,0.2-0.3,0.3-0.5c0.2-0.2,0.5-0.2,0.9-0.3
		s0.9-0.2,1.4-0.3c0.3-0.2,0.8-0.3,1.1-0.5c0.6-0.3,1.4-0.9,2-1.9c0.6-0.9,1.4-2.3,2.2-4.2l13.3-31.8c0.2-0.5,0.3-0.8,0.5-0.9
		s0.3-0.3,0.6-0.3c0.2,0,0.5,0.2,0.6,0.3c0.2,0.2,0.3,0.5,0.6,0.9l13.3,33.2c0.6,1.4,1.1,2.5,1.7,3.2c0.6,0.8,1.2,1.2,1.9,1.5
		c0.3,0.2,0.6,0.2,0.9,0.3c0.3,0.2,0.6,0.2,1.1,0.2c0.6,0,0.9,0.2,1.1,0.3c0.2,0.2,0.3,0.3,0.3,0.5c0,0.2-0.2,0.3-0.3,0.5
		c-0.2,0.2-0.5,0.2-0.9,0.2s-1.5,0-3.2-0.2c-1.7,0-3.1-0.2-4.3-0.2c-0.8,0-2,0-3.6,0.2c-1.5,0.2-2.8,0.2-3.7,0.2
		c-0.5,0-0.9,0-1.1-0.2c-0.3-0.2-0.5-0.3-0.5-0.5c0-0.2,0.2-0.3,0.3-0.5c0.3-0.2,0.8-0.3,1.4-0.5c1.1-0.2,2-0.3,2.5-0.6
		c0.5-0.3,0.8-0.8,0.8-1.4c0-0.5-0.2-0.9-0.3-1.7c-0.2-0.8-0.3-1.4-0.6-2.2l-2.8-7.3h-15.8V334.4z M199.1,332.7H213l-6.6-17.3
		L199.1,332.7z"/>
	<linearGradient id="SVGID_14_" gradientUnits="userSpaceOnUse" x1="-106.7449" y1="325.5254" x2="918.0556" y2="335.2034">
		<stop  offset="0" style="stop-color:#A4874F"/>
		<stop  offset="0.417" style="stop-color:#FFCD7B"/>
		<stop  offset="1" style="stop-color:#E1B071"/>
	</linearGradient>
	<path class="st14" d="M278.7,347.6c0,0.2,0,0.3-0.2,0.5c-0.2,0.2-0.3,0.2-0.5,0.2c-0.3,0-0.6-0.3-0.8-1.1c-0.3-0.8-0.6-1.1-1.2-1.1
		c-0.5,0-1.1,0.3-1.9,0.8c-0.3,0.3-0.6,0.5-0.9,0.6c-1.5,0.9-3.2,1.5-5.1,2c-1.7,0.5-3.6,0.6-5.4,0.6c-2.8,0-5.4-0.5-7.9-1.4
		s-4.6-2.2-6.5-3.9c-2-1.9-3.6-4-4.5-6.5c-1.1-2.5-1.5-5.3-1.5-8.3c0-2.3,0.3-4.6,0.9-6.8c0.6-2.2,1.5-4.2,2.6-6
		c1.9-2.9,4.5-5.3,7.4-6.8c3.1-1.5,6.5-2.3,10.2-2.3c3.4,0,6.8,0.9,10.4,2.6c0.8,0.3,1.2,0.6,1.4,0.6c0.3,0,0.6-0.3,0.9-1.1
		c0.3-0.8,0.5-1.1,0.8-1.1c0.3,0,0.5,0.2,0.5,0.3c0.2,0.2,0.2,0.5,0.2,1.1l0.3,8.8c0,0.3,0,0.5,0,0.8c0,0,0,0,0,0.2
		c0,0.3,0,0.5-0.2,0.6c-0.2,0.2-0.3,0.2-0.5,0.2c-0.3,0-0.6-0.3-0.8-1.1c-0.2-0.8-0.3-1.4-0.6-1.9c-1.1-2.8-2.6-4.9-4.6-6.3
		s-4.5-2-7.4-2c-4.3,0-7.9,1.9-10.5,5.4c-2.6,3.6-3.9,8.5-3.9,14.8c0,5.9,1.2,10.4,3.9,13.8c2.6,3.4,6.2,5.1,10.7,5.1
		c2.6,0,4.9-0.6,7-2c2-1.4,3.6-3.2,4.6-5.7c0.5-1.1,0.9-2.3,1.2-3.6c0.5-1.4,0.8-2,1.1-2c0.2,0,0.3,0,0.3,0.2
		c0.2,0.2,0.2,0.3,0.2,0.5v11.4H278.7z"/>
	<linearGradient id="SVGID_15_" gradientUnits="userSpaceOnUse" x1="-106.7384" y1="324.8345" x2="918.0621" y2="334.5125">
		<stop  offset="0" style="stop-color:#A4874F"/>
		<stop  offset="0.417" style="stop-color:#FFCD7B"/>
		<stop  offset="1" style="stop-color:#E1B071"/>
	</linearGradient>
	<path class="st15" d="M317.4,342.3c0,1.5,0.2,2.8,0.5,3.4c0.3,0.6,0.8,1.1,1.5,1.4c0.3,0.2,0.6,0.3,1.1,0.3
		c0.3,0.2,0.8,0.2,1.2,0.2c0,0,0,0,0.2,0c0.9,0.2,1.4,0.5,1.4,0.8c0,0.2-0.2,0.3-0.3,0.5c-0.2,0.2-0.5,0.2-0.8,0.2
		c-0.2,0-0.3,0-0.8,0c-2.3-0.2-4.6-0.3-7.1-0.3s-4.8,0.2-7.1,0.3c-0.5,0-0.6,0-0.8,0c-0.3,0-0.6,0-0.8-0.2c-0.2-0.2-0.3-0.3-0.3-0.5
		c0-0.5,0.5-0.6,1.4-0.8h0.2c0.5,0,0.9-0.2,1.4-0.2c0.3-0.2,0.8-0.2,0.9-0.3c0.8-0.3,1.2-0.8,1.5-1.5c0.3-0.6,0.5-1.7,0.5-3.4V333
		l-10.4-18.7c0-0.2-0.2-0.3-0.3-0.5c-1.2-2.2-2.3-3.4-3.4-3.6c-0.2,0-0.5,0-0.8-0.2c-0.9-0.2-1.5-0.5-1.5-0.8c0-0.3,0.2-0.5,0.3-0.5
		c0.2-0.2,0.6-0.2,0.9-0.2c0.2,0,0.5,0,0.6,0s0.3,0,0.5,0c0.2,0,0.2,0,0.5,0c1.5,0.2,2.9,0.2,4.2,0.2c1.1,0,2.3,0,3.9-0.2
		c1.4,0,2.2-0.2,2.3-0.2c0.3,0,0.8,0,1.2,0s0.9,0,1.1,0c0.6,0,0.9,0,1.1,0.2c0.2,0.2,0.3,0.3,0.3,0.5c0,0.3-0.3,0.6-1.1,0.6
		c-0.5,0-0.8,0-1.1,0.2c-0.8,0.2-1.4,0.5-1.9,0.8c-0.5,0.3-0.6,0.9-0.6,1.5c0,0.3,0.2,0.9,0.3,1.5c0.3,0.6,0.6,1.4,0.9,2.2l8,15.5
		c0.8-1.2,1.9-3.1,3.2-5.4c4.5-7.4,6.8-11.9,6.8-13.4c0-0.6-0.2-1.2-0.5-1.5c-0.3-0.3-0.8-0.6-1.2-0.8c-0.3,0-0.6-0.2-1.1-0.2
		c-0.9-0.2-1.4-0.5-1.4-0.8c0-0.2,0.2-0.3,0.3-0.5c0.2-0.2,0.5-0.2,0.9-0.2c0.3,0,0.5,0,0.6,0c0.2,0,0.3,0,0.6,0c0.6,0,1.2,0,2,0.2
		c0.8,0,1.4,0,2.2,0c1.5,0,3.1,0,4.5-0.2l0,0c0.2,0,0.2,0,0.2,0h0.2c0.2,0,0.5,0,0.5,0.2c0.2,0.2,0.2,0.2,0.2,0.3
		c0,0.3-0.3,0.5-0.8,0.8c-0.2,0-0.2,0-0.2,0.2c-0.8,0.2-1.4,0.3-2,0.8c-0.6,0.3-1.2,0.9-1.7,1.5c-0.3,0.5-1.9,2.9-4.5,7.4
		c-2.6,4.5-5.4,8.8-8,13v9.4H317.4z"/>
	<linearGradient id="SVGID_16_" gradientUnits="userSpaceOnUse" x1="-106.7319" y1="324.149" x2="918.0686" y2="333.8271">
		<stop  offset="0" style="stop-color:#A4874F"/>
		<stop  offset="0.417" style="stop-color:#FFCD7B"/>
		<stop  offset="1" style="stop-color:#E1B071"/>
	</linearGradient>
	<path class="st16" d="M378.9,329.2c0-2.8,0.5-5.4,1.5-7.9s2.6-4.8,4.6-6.8c2.2-2.2,4.6-3.7,7.3-4.8c2.8-1.1,5.6-1.7,8.7-1.7
		s6.2,0.6,9,1.9c2.8,1.2,5.3,2.9,7.3,5.1c1.7,1.9,3.1,4,3.9,6.3c0.9,2.3,1.2,4.9,1.2,7.9s-0.6,5.6-1.7,8.2c-1.1,2.6-2.6,4.8-4.6,6.6
		c-2,1.9-4.3,3.2-7.1,4.3c-2.8,1.1-5.6,1.5-8.3,1.5c-3.1,0-5.9-0.5-8.5-1.5c-2.6-0.9-4.9-2.5-7-4.3c-2.2-2-3.9-4.3-4.9-6.8
		C379.3,335,378.9,332.3,378.9,329.2z M386.1,328.9c0,6,1.4,10.8,4,14.4c2.6,3.7,6.2,5.4,10.5,5.4c4.3,0,7.9-1.9,10.5-5.4
		c2.6-3.6,4-8.3,4-14.4c0-6-1.2-10.8-3.9-14.4c-2.6-3.6-6.2-5.3-10.5-5.3s-7.9,1.9-10.5,5.4C387.5,318.4,386.1,323,386.1,328.9z"/>
	<linearGradient id="SVGID_17_" gradientUnits="userSpaceOnUse" x1="-106.727" y1="323.631" x2="918.0735" y2="333.3091">
		<stop  offset="0" style="stop-color:#A4874F"/>
		<stop  offset="0.417" style="stop-color:#FFCD7B"/>
		<stop  offset="1" style="stop-color:#E1B071"/>
	</linearGradient>
	<path class="st17" d="M452.9,342.3c0,1.7,0.2,2.8,0.5,3.4c0.3,0.6,0.8,1.1,1.5,1.4c0.6,0.3,1.4,0.5,2.6,0.5l0,0h0.2
		c1.1,0.2,1.5,0.5,1.5,0.8c0,0.2-0.2,0.3-0.3,0.5c-0.2,0.2-0.5,0.2-0.8,0.2c-0.2,0-0.3,0-0.8,0c-2.5-0.2-5.1-0.3-7.7-0.3
		c-2.5,0-4.8,0.2-7.1,0.3c-0.5,0-0.6,0-0.8,0c-0.3,0-0.6,0-0.8-0.2c-0.2-0.2-0.3-0.3-0.3-0.5c0-0.3,0.5-0.6,1.4-0.8h0.2
		c0.5,0,0.9-0.2,1.2-0.2c0.3-0.2,0.8-0.2,1.1-0.3c0.8-0.3,1.2-0.9,1.5-1.5c0.3-0.6,0.5-1.7,0.5-3.2v-26.9c0-1.5-0.2-2.6-0.5-3.2
		c-0.3-0.6-0.8-1.1-1.5-1.5c-0.3-0.2-0.6-0.2-0.9-0.3c-0.3-0.2-0.8-0.2-1.2-0.2h-0.2c-0.9-0.2-1.4-0.3-1.4-0.6
		c0-0.2,0.2-0.3,0.3-0.5c0.2-0.2,0.5-0.2,0.8-0.2c0.2,0,0.5,0,0.9,0c2.6,0.2,5.4,0.2,8.2,0.2c5.6,0,11,0,16.4-0.2c0.9,0,1.5,0,1.7,0
		c0.8,0,1.2,0,1.5,0.2c0.3,0.2,0.6,0.3,0.6,0.6c0,0.2,0,0.2,0.2,0.5c0,0.2,0,0.5,0,0.8v1.1c0,1.4,0.2,2.9,0.3,4.3
		c0,0.3,0.2,0.5,0.2,0.6c0,0.3,0,0.5-0.2,0.6c-0.2,0.2-0.3,0.3-0.5,0.3c-0.3,0-0.6-0.5-0.9-1.5c-0.3-0.9-0.8-1.9-1.2-2.5
		c-0.8-1.2-2.2-2-3.9-2.5c-1.7-0.5-4.3-0.8-7.6-0.8c-1.2,0-2.3,0-3.1,0.2c-0.8,0-1.2,0.2-1.4,0.3c-0.2,0.2-0.3,0.6-0.5,1.4
		c-0.2,0.8-0.2,1.9-0.2,3.2v12.7c2.8,0,4.6-0.3,5.7-0.6c1.1-0.3,2-0.9,2.6-1.7c0.6-0.8,1.1-1.9,1.4-3.1c0.3-1.4,0.6-2,0.9-2
		s0.5,0.2,0.5,0.3c0.2,0.2,0.2,0.6,0.2,1.1c0,0.2,0,0.3,0,0.6c0,1.2-0.2,2.5-0.2,3.7c0,1.9,0,3.9,0.2,5.7c0,2,0.2,2.9,0.2,2.9
		c0,0.3,0,0.6-0.2,0.9c-0.2,0.2-0.3,0.3-0.5,0.3c-0.3,0-0.6-0.6-0.8-1.7c-0.3-1.1-0.6-2-1.1-2.6c-0.6-0.9-1.5-1.5-2.5-1.9
		c-0.9-0.3-2.5-0.6-4.3-0.6c-0.6,0-0.9,0-1.4,0c-0.3,0-0.6,0-0.9,0v12.5H452.9z"/>
	<linearGradient id="SVGID_18_" gradientUnits="userSpaceOnUse" x1="-106.7215" y1="323.0475" x2="918.079" y2="332.7256">
		<stop  offset="0" style="stop-color:#A4874F"/>
		<stop  offset="0.417" style="stop-color:#FFCD7B"/>
		<stop  offset="1" style="stop-color:#E1B071"/>
	</linearGradient>
	<path class="st18" d="M529.1,330.3v12.2c0,1.5,0.2,2.6,0.5,3.2c0.3,0.6,0.8,1.1,1.5,1.5c0.3,0.2,0.6,0.3,1.1,0.3
		c0.3,0.2,0.8,0.2,1.2,0.2c0,0,0,0,0.2,0c0.9,0.2,1.4,0.5,1.4,0.8c0,0.2-0.2,0.3-0.3,0.5c-0.2,0.2-0.5,0.2-0.8,0.2
		c-0.2,0-0.3,0-0.8,0c-2.3-0.2-4.6-0.3-7.1-0.3c-2.5,0-4.8,0.2-7.1,0.3c-0.3,0-0.6,0-0.6,0c-0.3,0-0.6,0-0.8-0.2
		c-0.2-0.2-0.3-0.3-0.3-0.5c0-0.5,0.5-0.6,1.4-0.8h0.2c0.5,0,0.9-0.2,1.2-0.2c0.3-0.2,0.6-0.2,0.9-0.3c0.8-0.3,1.2-0.8,1.5-1.5
		c0.3-0.6,0.5-1.7,0.5-3.4v-26.9c0-1.5-0.2-2.6-0.5-3.2c-0.3-0.6-0.8-1.1-1.5-1.4c-0.3-0.2-0.6-0.2-0.9-0.3
		c-0.3-0.2-0.8-0.2-1.2-0.2h-0.2c-0.9-0.2-1.4-0.3-1.4-0.6c0-0.2,0.2-0.3,0.3-0.5c0.2-0.2,0.5-0.2,0.8-0.2c0.2,0,0.5,0,0.9,0
		c2.3,0.2,4.6,0.2,6.8,0.2c1.1,0,2.5,0,3.9-0.2c1.5,0,2.3-0.2,2.8-0.2c5.3,0,9.3,0.9,12.1,2.6c2.8,1.9,4,4.5,4,7.9
		c0,3.4-1.4,6-4,7.9c-2.8,1.9-6.5,2.8-11.4,2.8c-0.8,0-2,0-3.9-0.3C529.3,330.3,529.1,330.3,529.1,330.3z M529.1,328.7
		c0.8,0.2,1.4,0.2,2,0.2c0.6,0,1.1,0,1.5,0c3.2,0,5.6-0.8,7-2.2c1.5-1.5,2.2-3.9,2.2-7c0-3.2-0.8-5.6-2.3-7.1
		c-1.5-1.5-3.9-2.3-7.1-2.3c-1.2,0-2.2,0.2-2.6,0.5c-0.5,0.3-0.8,0.8-0.8,1.5L529.1,328.7z"/>
	<linearGradient id="SVGID_19_" gradientUnits="userSpaceOnUse" x1="-106.7188" y1="322.762" x2="918.0817" y2="332.4401">
		<stop  offset="0" style="stop-color:#A4874F"/>
		<stop  offset="0.417" style="stop-color:#FFCD7B"/>
		<stop  offset="1" style="stop-color:#E1B071"/>
	</linearGradient>
	<path class="st19" d="M571,315.4c0-1.5-0.2-2.6-0.5-3.2c-0.3-0.6-0.8-1.1-1.5-1.5c-0.3-0.2-0.6-0.2-0.9-0.3
		c-0.3-0.2-0.8-0.2-1.2-0.2h-0.2c-0.9-0.2-1.4-0.3-1.4-0.6c0-0.2,0.2-0.3,0.3-0.5c0.2-0.2,0.5-0.2,0.8-0.2c0.2,0,0.5,0,0.9,0
		c2.3,0.2,4.6,0.2,6.8,0.2c2.3,0,4.8,0,7.1-0.2c0.5,0,0.6,0,0.8,0c0.3,0,0.6,0,0.8,0.2c0.2,0.2,0.3,0.2,0.3,0.5
		c0,0.3-0.5,0.5-1.2,0.6c-0.2,0-0.2,0-0.3,0c-0.3,0-0.5,0-0.8,0c-0.3,0-0.6,0.2-1.1,0.2c-0.9,0.3-1.5,0.8-1.9,1.4
		c-0.3,0.8-0.6,1.9-0.6,3.4v21.3c0,4,0.9,6.8,2.6,8.7s4.5,2.8,8.3,2.8c4.5,0,7.7-1.1,9.7-3.4c2.2-2.2,3.1-5.7,3.1-10.4v-18.7
		c0-1.5-0.2-2.6-0.5-3.2c-0.3-0.6-0.8-1.1-1.5-1.5c-0.3-0.2-0.6-0.2-0.9-0.3c-0.3-0.2-0.8-0.2-1.2-0.2h-0.2
		c-0.9-0.2-1.4-0.3-1.4-0.6c0-0.2,0.2-0.3,0.3-0.5s0.5-0.2,0.8-0.2c0.3,0,1.1,0,2.3,0.2s2.5,0.2,3.4,0.2s2,0,3.1-0.2
		c1.2,0,1.9-0.2,2.2-0.2c0.3,0,0.6,0,0.8,0.2c0.2,0.2,0.3,0.2,0.3,0.5c0,0.3-0.5,0.5-1.2,0.6c-0.2,0-0.2,0-0.3,0c-0.3,0-0.6,0-0.9,0
		c-0.3,0-0.6,0.2-1.1,0.2c-0.9,0.3-1.5,0.8-1.9,1.4c-0.3,0.8-0.5,1.9-0.5,3.6v17.2c0,6.3-1.2,10.8-3.7,13.4c-2.5,2.6-6.8,4-12.7,4
		c-5.1,0-9-1.1-11.4-3.2c-2.5-2.2-3.9-5.3-3.9-9.6v-21.6H571z"/>
	<linearGradient id="SVGID_20_" gradientUnits="userSpaceOnUse" x1="-106.7126" y1="322.1017" x2="918.088" y2="331.7798">
		<stop  offset="0" style="stop-color:#A4874F"/>
		<stop  offset="0.417" style="stop-color:#FFCD7B"/>
		<stop  offset="1" style="stop-color:#E1B071"/>
	</linearGradient>
	<path class="st20" d="M638,342.3c0,1.5,0.2,2.8,0.5,3.4c0.3,0.6,0.8,1.1,1.5,1.5c0.3,0.2,0.6,0.3,0.9,0.3c0.3,0.2,0.8,0.2,1.2,0.2
		h0.2c0.9,0.2,1.4,0.3,1.4,0.8c0,0.2-0.2,0.3-0.3,0.5c-0.2,0.2-0.5,0.2-0.8,0.2c-0.2,0-0.3,0-0.8,0c-2.3-0.2-4.8-0.3-7.1-0.3
		c-2.5,0-4.8,0.2-7.1,0.3c-0.3,0-0.6,0-0.8,0c-0.3,0-0.6,0-0.8-0.2c-0.2-0.2-0.3-0.3-0.3-0.5c0-0.5,0.5-0.6,1.4-0.8h0.2
		c0.5,0,0.9-0.2,1.2-0.2c0.3-0.2,0.6-0.2,1.1-0.3c0.8-0.3,1.2-0.8,1.5-1.4c0.3-0.6,0.5-1.7,0.5-3.4v-26.9c0-1.5-0.2-2.6-0.5-3.2
		c-0.3-0.6-0.8-1.1-1.5-1.4c-0.3-0.2-0.6-0.2-0.9-0.3s-0.8-0.2-1.2-0.2h-0.2c-0.9-0.2-1.4-0.3-1.4-0.6c0-0.2,0.2-0.3,0.3-0.5
		c0.2-0.2,0.5-0.2,0.8-0.2h0.5c0.5,0,0.9,0,1.7,0.2c0.8,0,1.7,0,2.6,0c1.5,0,3.6,0,6-0.2c2.5-0.2,4.3-0.2,5.4-0.2
		c5.1,0,8.8,0.8,11.3,2.5c2.3,1.7,3.6,4.2,3.6,7.7c0,2.9-0.9,5.4-2.8,7.1c-1.9,1.9-4.6,2.9-8.3,3.4l13,15.1c0.5,0.6,1.1,1.2,1.9,1.7
		c0.6,0.5,1.5,0.9,2.8,1.4c0,0,0,0,0.2,0c0.9,0.5,1.4,0.8,1.4,0.9c0,0.2-0.2,0.3-0.3,0.3c-0.2,0.2-0.5,0.2-0.6,0.2s-0.2,0-0.3,0
		h-0.2c0,0-0.2,0-0.5,0c-1.4-0.2-2.6-0.2-3.9-0.2c-0.2,0-0.3,0-0.6,0c-0.2,0-0.5,0-0.9,0.2h-1.4c-0.8,0-1.4,0-1.7-0.2
		c-0.3-0.2-0.6-0.5-0.9-0.8l-13-16.2c-0.5-0.5-0.8-0.9-1.2-1.1c-0.5-0.2-0.9-0.3-1.7-0.3c-0.5,0-0.8,0.2-0.9,0.3s-0.2,0.5-0.2,0.9
		v10.2H638z M638,327.5c0,0.8,0.2,1.1,0.3,1.4c0.2,0.2,0.6,0.3,1.2,0.3c4.3,0,7.3-0.8,9.1-2.2c1.9-1.4,2.8-3.9,2.8-7.1
		c0-3.4-0.9-5.9-2.6-7.6c-1.7-1.5-4.3-2.5-7.9-2.5c-1.1,0-1.9,0.2-2.3,0.5c-0.5,0.3-0.6,0.9-0.6,1.9L638,327.5L638,327.5z"/>
	<linearGradient id="SVGID_21_" gradientUnits="userSpaceOnUse" x1="-106.7061" y1="321.4116" x2="918.0945" y2="331.0897">
		<stop  offset="0" style="stop-color:#A4874F"/>
		<stop  offset="0.417" style="stop-color:#FFCD7B"/>
		<stop  offset="1" style="stop-color:#E1B071"/>
	</linearGradient>
	<path class="st21" d="M693.9,342.3c0,1.5,0.2,2.6,0.5,3.2c0.3,0.6,0.9,1.2,1.7,1.5c0.3,0.2,0.8,0.3,1.2,0.3
		c0.5,0.2,0.9,0.2,1.4,0.2h0.2c0.9,0.2,1.4,0.5,1.4,0.8c0,0.2-0.2,0.3-0.3,0.5c-0.2,0.2-0.5,0.2-0.8,0.2c-0.2,0-0.3,0-0.8,0
		c-2.5-0.2-5.1-0.3-7.6-0.3c-2.5,0-5.1,0.2-7.6,0.3c-0.5,0-0.6,0-0.8,0c-0.3,0-0.6,0-0.9-0.2c-0.2-0.2-0.3-0.3-0.3-0.5
		c0-0.5,0.5-0.6,1.5-0.8h0.2c0,0,0,0,0.2,0c1.1-0.2,2-0.3,2.5-0.5c0.8-0.3,1.4-0.9,1.7-1.5c0.3-0.6,0.5-1.7,0.5-3.2v-26.9
		c0-1.5-0.2-2.6-0.5-3.2c-0.3-0.6-0.8-1.1-1.5-1.5c-0.3-0.2-0.6-0.2-1.1-0.3c-0.5-0.2-0.9-0.2-1.5-0.2h-0.2
		c-1.1-0.2-1.7-0.3-1.7-0.6c0-0.2,0.2-0.3,0.6-0.5c0.3-0.2,0.8-0.2,1.2-0.2c0.2,0,0.5,0,0.9,0c2.3,0.2,4.6,0.2,6.8,0.2
		c2.3,0,4.8,0,7.1-0.2c0.5,0,0.6,0,0.8,0c0.5,0,0.8,0,1.1,0.2c0.3,0.2,0.5,0.2,0.5,0.3c0,0.3-0.5,0.5-1.4,0.6c-0.2,0-0.3,0-0.3,0
		c-0.5,0-0.8,0-1.2,0c-0.3,0-0.8,0.2-1.1,0.2c-0.9,0.3-1.5,0.8-1.9,1.4c-0.3,0.8-0.6,1.9-0.6,3.4v27.4H693.9z"/>
	<linearGradient id="SVGID_22_" gradientUnits="userSpaceOnUse" x1="-106.7007" y1="320.8416" x2="918.0999" y2="330.5196">
		<stop  offset="0" style="stop-color:#A4874F"/>
		<stop  offset="0.417" style="stop-color:#FFCD7B"/>
		<stop  offset="1" style="stop-color:#E1B071"/>
	</linearGradient>
	<path class="st22" d="M740.8,342.3c0,1.5,0.2,2.6,0.5,3.4c0.3,0.6,0.9,1.2,1.7,1.5c0.6,0.3,1.4,0.5,2.5,0.5c0,0,0,0,0.2,0
		c0,0,0,0,0.2,0c1.1,0.2,1.5,0.5,1.5,0.8c0,0.2-0.2,0.3-0.3,0.5c-0.2,0.2-0.5,0.2-0.9,0.2c-0.2,0-0.3,0-0.8,0
		c-2.5-0.2-5.1-0.3-7.7-0.3s-5.1,0.2-7.7,0.3c-0.5,0-0.6,0-0.8,0c-0.3,0-0.6,0-0.8-0.2c-0.2-0.2-0.3-0.3-0.3-0.5
		c0-0.5,0.5-0.6,1.5-0.8h0.2c0,0,0,0,0.2,0c1.1-0.2,2-0.3,2.5-0.5c0.8-0.3,1.4-0.9,1.7-1.5c0.3-0.6,0.5-1.7,0.5-3.4v-30.1
		c0-0.8-0.2-1.2-0.6-1.4c-0.5-0.3-1.4-0.5-2.8-0.5h-2.3c-3.2,0-5.6,0.2-7,0.5c-1.2,0.3-2.3,0.9-2.9,1.9c-0.5,0.8-0.8,1.7-1.1,3.1
		c-0.2,1.4-0.5,2-0.8,2c-0.2,0-0.3,0-0.5-0.2c0-0.2-0.2-0.5-0.2-0.8V310c0-0.5,0.2-0.9,0.3-1.1c0.3-0.2,0.6-0.3,1.4-0.3
		c0.2,0,0.6,0,1.5,0c5.7,0.3,11.6,0.3,17.8,0.3s12.1-0.2,17.8-0.3c0.9,0,1.4,0,1.5,0c0.6,0,1.1,0.2,1.4,0.3c0.2,0.2,0.3,0.6,0.3,1.1
		v6.8c0,0.5,0,0.8-0.2,0.9c0,0.2-0.2,0.2-0.3,0.2c-0.3,0-0.5-0.6-0.8-2c-0.2-1.4-0.6-2.3-1.1-3.1c-0.6-0.9-1.5-1.5-2.8-1.9
		c-1.2-0.3-4-0.5-8.3-0.5h-1.1c-1.5,0-2.5,0.2-2.8,0.3c-0.3,0.3-0.6,0.8-0.6,1.4v30.1H740.8z"/>
	<linearGradient id="SVGID_23_" gradientUnits="userSpaceOnUse" x1="-106.6958" y1="320.3196" x2="918.1048" y2="329.9977">
		<stop  offset="0" style="stop-color:#A4874F"/>
		<stop  offset="0.417" style="stop-color:#FFCD7B"/>
		<stop  offset="1" style="stop-color:#E1B071"/>
	</linearGradient>
	<path class="st23" d="M795.5,342.3c0,1.5,0.2,2.8,0.5,3.4c0.3,0.6,0.8,1.1,1.5,1.4c0.3,0.2,0.6,0.3,1.1,0.3
		c0.3,0.2,0.8,0.2,1.2,0.2c0,0,0,0,0.2,0c0.9,0.2,1.4,0.5,1.4,0.8c0,0.2-0.2,0.3-0.3,0.5c-0.2,0.2-0.5,0.2-0.8,0.2c0,0-0.3,0-0.8,0
		c-2.3-0.2-4.6-0.3-7.1-0.3c-2.5,0-4.8,0.2-7.1,0.3c-0.5,0-0.6,0-0.8,0c-0.3,0-0.6,0-0.8-0.2c-0.2-0.2-0.3-0.3-0.3-0.5
		c0-0.5,0.5-0.6,1.4-0.8h0.2c0.5,0,0.9-0.2,1.4-0.2c0.3-0.2,0.8-0.2,0.9-0.3c0.8-0.3,1.2-0.8,1.5-1.5c0.3-0.6,0.5-1.7,0.5-3.4V333
		l-10.4-18.7c0-0.2-0.2-0.3-0.3-0.5c-1.2-2.2-2.3-3.4-3.4-3.6c-0.2,0-0.5,0-0.8-0.2c-0.9-0.2-1.5-0.5-1.5-0.8c0-0.3,0.2-0.5,0.3-0.5
		c0.2-0.2,0.6-0.2,0.9-0.2c0.2,0,0.5,0,0.6,0s0.3,0,0.5,0c0,0,0.2,0,0.5,0c1.5,0.2,2.9,0.2,4.2,0.2c1.1,0,2.3,0,3.9-0.2
		c1.4,0,2.2-0.2,2.3-0.2c0.3,0,0.8,0,1.2,0c0.5,0,0.9,0,1.1,0c0.6,0,0.9,0,1.1,0.2c0.2,0.2,0.3,0.3,0.3,0.5c0,0.3-0.3,0.6-1.1,0.6
		c-0.5,0-0.8,0-1.1,0.2c-0.8,0.2-1.4,0.5-1.9,0.8c-0.5,0.3-0.6,0.9-0.6,1.5c0,0.3,0.2,0.9,0.3,1.5c0.3,0.6,0.6,1.4,0.9,2.2l8,15.5
		c0.8-1.2,1.9-3.1,3.2-5.4c4.5-7.4,6.8-11.9,6.8-13.4c0-0.6-0.2-1.2-0.5-1.5c-0.3-0.3-0.8-0.6-1.2-0.8c-0.3,0-0.6-0.2-1.1-0.2
		c-0.9-0.2-1.4-0.5-1.4-0.8c0-0.2,0.2-0.3,0.3-0.5c0.2-0.2,0.5-0.2,0.9-0.2c0.3,0,0.5,0,0.6,0c0.2,0,0.3,0,0.6,0c0.6,0,1.2,0,2,0.2
		c0.8,0,1.4,0,2.2,0c1.5,0,3.1,0,4.5-0.2l0,0h0.2h0.2c0.2,0,0.5,0,0.5,0.2c0.2,0.2,0.2,0.2,0.2,0.3c0,0.3-0.3,0.5-0.8,0.8
		c-0.2,0-0.2,0-0.2,0.2c-0.8,0.2-1.4,0.3-2,0.8c-0.6,0.3-1.2,0.9-1.7,1.5c-0.3,0.5-1.9,2.9-4.5,7.4c-2.6,4.5-5.4,8.8-8,13v9.4H795.5
		z"/>
</g>
</svg>
