<?xml version="1.0" encoding="utf-8"?>
<!-- Generator: Adobe Illustrator 24.2.1, SVG Export Plug-In . SVG Version: 6.00 Build 0)  -->
<svg version="1.1" id="Layer_1" xmlns="http://www.w3.org/2000/svg" xmlns:xlink="http://www.w3.org/1999/xlink" x="0px" y="0px"
	 viewBox="0 0 625.7 78.4" style="enable-background:new 0 0 625.7 78.4;" xml:space="preserve">
<style type="text/css">
	.st0{opacity:0.25;fill:#C4C3C3;}
	.st1{fill:#808184;}
	.st2{fill:none;stroke:#808184;stroke-width:0.5615;stroke-miterlimit:10;}
	.st3{fill:#E2E2E2;stroke:#808184;stroke-width:0.5615;stroke-miterlimit:10;}
</style>
<rect x="-0.7" y="0.3" class="st0" width="626.3" height="78.4"/>
<g>
	<path class="st1" d="M210.6,48.4c-0.2-0.1-0.3-0.2-0.4-0.3c-0.1-0.1-0.2-0.3-0.2-0.5h0.5c0,0.2,0.1,0.3,0.2,0.4
		c0.1,0.1,0.3,0.2,0.5,0.2c0.2,0,0.4-0.1,0.5-0.2c0.1-0.1,0.2-0.2,0.2-0.4c0-0.1,0-0.2-0.1-0.3c-0.1-0.1-0.2-0.1-0.3-0.2
		c-0.1,0-0.3-0.1-0.4-0.1c-0.2-0.1-0.4-0.1-0.5-0.2c-0.1-0.1-0.3-0.2-0.4-0.3c-0.1-0.1-0.1-0.3-0.1-0.5c0-0.2,0-0.4,0.1-0.5
		c0.1-0.1,0.2-0.3,0.4-0.3c0.2-0.1,0.4-0.1,0.6-0.1c0.3,0,0.6,0.1,0.8,0.2s0.3,0.4,0.3,0.6h-0.5c0-0.1-0.1-0.2-0.2-0.3
		c-0.1-0.1-0.3-0.2-0.5-0.2c-0.2,0-0.3,0-0.5,0.1c-0.1,0.1-0.2,0.2-0.2,0.4c0,0.1,0,0.2,0.1,0.3c0.1,0.1,0.2,0.1,0.3,0.2
		c0.1,0,0.2,0.1,0.4,0.1c0.2,0.1,0.4,0.1,0.5,0.2c0.1,0.1,0.3,0.2,0.4,0.3c0.1,0.1,0.1,0.3,0.1,0.5c0,0.2,0,0.3-0.1,0.5
		c-0.1,0.1-0.2,0.3-0.4,0.4c-0.2,0.1-0.4,0.1-0.6,0.1C211,48.5,210.8,48.5,210.6,48.4z"/>
	<path class="st1" d="M213.1,46.4c0.1-0.2,0.3-0.4,0.5-0.5c0.2-0.1,0.4-0.2,0.7-0.2c0.2,0,0.4,0.1,0.6,0.2c0.2,0.1,0.3,0.2,0.4,0.4
		v-0.5h0.5v2.7h-0.5V48c-0.1,0.2-0.2,0.3-0.4,0.4c-0.2,0.1-0.4,0.2-0.6,0.2c-0.2,0-0.5-0.1-0.7-0.2c-0.2-0.1-0.3-0.3-0.5-0.5
		c-0.1-0.2-0.2-0.5-0.2-0.7C212.9,46.8,212.9,46.6,213.1,46.4z M215.1,46.6c-0.1-0.2-0.2-0.3-0.3-0.3c-0.1-0.1-0.3-0.1-0.5-0.1
		c-0.2,0-0.3,0-0.5,0.1c-0.1,0.1-0.2,0.2-0.3,0.3c-0.1,0.2-0.1,0.3-0.1,0.5c0,0.2,0,0.4,0.1,0.5c0.1,0.2,0.2,0.3,0.3,0.4
		c0.1,0.1,0.3,0.1,0.5,0.1c0.2,0,0.3,0,0.5-0.1c0.1-0.1,0.3-0.2,0.3-0.4c0.1-0.2,0.1-0.3,0.1-0.5C215.2,46.9,215.1,46.7,215.1,46.6z
		"/>
	<path class="st1" d="M217.5,46.1h-0.6v2.3h-0.5v-2.3h-0.4v-0.4h0.4v-0.2c0-0.3,0.1-0.5,0.2-0.7c0.2-0.1,0.4-0.2,0.8-0.2v0.4
		c-0.2,0-0.3,0-0.4,0.1c-0.1,0.1-0.1,0.2-0.1,0.4v0.2h0.6V46.1z"/>
	<path class="st1" d="M220.5,47.3h-2.2c0,0.3,0.1,0.5,0.3,0.6c0.2,0.2,0.4,0.2,0.6,0.2c0.2,0,0.4,0,0.5-0.1c0.1-0.1,0.2-0.2,0.3-0.4
		h0.5c-0.1,0.3-0.2,0.5-0.4,0.6s-0.5,0.2-0.8,0.2c-0.3,0-0.5-0.1-0.7-0.2c-0.2-0.1-0.4-0.3-0.5-0.5s-0.2-0.5-0.2-0.7
		s0.1-0.5,0.2-0.7c0.1-0.2,0.3-0.4,0.5-0.5c0.2-0.1,0.4-0.2,0.7-0.2c0.3,0,0.5,0.1,0.7,0.2c0.2,0.1,0.4,0.3,0.5,0.5
		c0.1,0.2,0.2,0.4,0.2,0.7C220.5,47.1,220.5,47.2,220.5,47.3z M219.9,46.5c-0.1-0.1-0.2-0.2-0.3-0.3c-0.1-0.1-0.3-0.1-0.4-0.1
		c-0.2,0-0.4,0.1-0.6,0.2c-0.2,0.1-0.3,0.3-0.3,0.6h1.7C220,46.8,220,46.6,219.9,46.5z"/>
	<path class="st1" d="M225.1,48.5l-0.5-0.5c-0.2,0.2-0.3,0.3-0.5,0.4c-0.2,0.1-0.4,0.1-0.6,0.1c-0.2,0-0.4,0-0.6-0.1
		c-0.2-0.1-0.3-0.2-0.4-0.4c-0.1-0.2-0.2-0.3-0.2-0.6c0-0.2,0.1-0.5,0.2-0.6c0.1-0.2,0.3-0.3,0.6-0.4c-0.1-0.1-0.2-0.2-0.2-0.3
		c0-0.1-0.1-0.2-0.1-0.3c0-0.1,0-0.3,0.1-0.4c0.1-0.1,0.2-0.2,0.3-0.3c0.1-0.1,0.3-0.1,0.5-0.1c0.2,0,0.3,0,0.5,0.1
		c0.1,0.1,0.2,0.2,0.3,0.3c0.1,0.1,0.1,0.3,0.1,0.4h-0.5c0-0.1,0-0.2-0.1-0.3c-0.1-0.1-0.2-0.1-0.3-0.1c-0.1,0-0.2,0-0.3,0.1
		c-0.1,0.1-0.1,0.2-0.1,0.3c0,0.1,0,0.2,0.1,0.3c0.1,0.1,0.1,0.2,0.3,0.3l1,1l0.1-0.1l0.3-0.6h0.5l-0.4,0.7
		c-0.1,0.1-0.1,0.2-0.2,0.3l0.8,0.8H225.1z M223.9,48.1c0.1-0.1,0.3-0.2,0.4-0.3l-1-1c-0.4,0.2-0.6,0.4-0.6,0.8
		c0,0.2,0.1,0.4,0.2,0.5c0.1,0.1,0.3,0.2,0.5,0.2C223.6,48.2,223.8,48.1,223.9,48.1z"/>
	<path class="st1" d="M199.7,54.3c-0.2-0.1-0.3-0.2-0.4-0.3c-0.1-0.1-0.2-0.3-0.2-0.5h0.5c0,0.2,0.1,0.3,0.2,0.4
		c0.1,0.1,0.3,0.2,0.5,0.2c0.2,0,0.4-0.1,0.5-0.2c0.1-0.1,0.2-0.2,0.2-0.4c0-0.1,0-0.2-0.1-0.3c-0.1-0.1-0.2-0.1-0.3-0.2
		c-0.1,0-0.3-0.1-0.4-0.1c-0.2-0.1-0.4-0.1-0.5-0.2c-0.1-0.1-0.3-0.2-0.4-0.3c-0.1-0.1-0.1-0.3-0.1-0.5c0-0.2,0-0.4,0.1-0.5
		c0.1-0.1,0.2-0.3,0.4-0.3c0.2-0.1,0.4-0.1,0.6-0.1c0.3,0,0.6,0.1,0.8,0.2c0.2,0.2,0.3,0.4,0.3,0.6h-0.5c0-0.1-0.1-0.2-0.2-0.3
		c-0.1-0.1-0.3-0.2-0.5-0.2c-0.2,0-0.3,0-0.5,0.1c-0.1,0.1-0.2,0.2-0.2,0.4c0,0.1,0,0.2,0.1,0.3c0.1,0.1,0.2,0.1,0.3,0.2
		c0.1,0,0.2,0.1,0.4,0.1c0.2,0.1,0.4,0.1,0.5,0.2c0.1,0.1,0.3,0.2,0.4,0.3c0.1,0.1,0.1,0.3,0.1,0.5c0,0.2,0,0.3-0.1,0.5
		c-0.1,0.1-0.2,0.3-0.4,0.4c-0.2,0.1-0.4,0.1-0.6,0.1C200,54.5,199.8,54.4,199.7,54.3z"/>
	<path class="st1" d="M204.5,53.2h-2.2c0,0.3,0.1,0.5,0.3,0.6c0.2,0.2,0.4,0.2,0.6,0.2c0.2,0,0.4,0,0.5-0.1c0.1-0.1,0.2-0.2,0.3-0.4
		h0.5c-0.1,0.3-0.2,0.5-0.4,0.6s-0.5,0.2-0.8,0.2c-0.3,0-0.5-0.1-0.7-0.2c-0.2-0.1-0.4-0.3-0.5-0.5s-0.2-0.5-0.2-0.7
		s0.1-0.5,0.2-0.7c0.1-0.2,0.3-0.4,0.5-0.5c0.2-0.1,0.4-0.2,0.7-0.2c0.3,0,0.5,0.1,0.7,0.2c0.2,0.1,0.4,0.3,0.5,0.5
		c0.1,0.2,0.2,0.4,0.2,0.7C204.6,53.1,204.6,53.1,204.5,53.2z M204,52.4c-0.1-0.1-0.2-0.2-0.3-0.3c-0.1-0.1-0.3-0.1-0.4-0.1
		c-0.2,0-0.4,0.1-0.6,0.2c-0.2,0.1-0.3,0.3-0.3,0.6h1.7C204.1,52.7,204.1,52.6,204,52.4z"/>
	<path class="st1" d="M205.2,52.3c0.1-0.2,0.3-0.4,0.5-0.5c0.2-0.1,0.4-0.2,0.7-0.2c0.3,0,0.6,0.1,0.8,0.2c0.2,0.2,0.4,0.4,0.4,0.7
		h-0.5c0-0.2-0.1-0.3-0.3-0.4c-0.1-0.1-0.3-0.1-0.5-0.1c-0.3,0-0.5,0.1-0.6,0.3c-0.2,0.2-0.2,0.4-0.2,0.8c0,0.3,0.1,0.6,0.2,0.8
		c0.2,0.2,0.4,0.3,0.6,0.3c0.2,0,0.4,0,0.5-0.1c0.1-0.1,0.2-0.2,0.3-0.4h0.5c-0.1,0.3-0.2,0.5-0.4,0.7c-0.2,0.2-0.5,0.3-0.8,0.3
		c-0.3,0-0.5-0.1-0.7-0.2c-0.2-0.1-0.4-0.3-0.5-0.5c-0.1-0.2-0.2-0.5-0.2-0.7C205,52.8,205,52.5,205.2,52.3z"/>
	<path class="st1" d="M210.6,51.7v2.7h-0.5V54c-0.1,0.1-0.2,0.2-0.4,0.3c-0.2,0.1-0.3,0.1-0.5,0.1c-0.2,0-0.4,0-0.6-0.1
		c-0.2-0.1-0.3-0.2-0.4-0.4c-0.1-0.2-0.1-0.4-0.1-0.6v-1.6h0.4v1.5c0,0.3,0.1,0.5,0.2,0.6c0.1,0.1,0.3,0.2,0.6,0.2
		c0.2,0,0.4-0.1,0.6-0.2c0.1-0.1,0.2-0.4,0.2-0.6v-1.5H210.6z"/>
	<path class="st1" d="M212.1,51.8c0.1-0.1,0.3-0.1,0.5-0.1v0.5h-0.1c-0.5,0-0.8,0.3-0.8,0.8v1.5h-0.5v-2.7h0.5v0.4
		C211.9,52,212,51.9,212.1,51.8z"/>
	<path class="st1" d="M215.6,53.2h-2.2c0,0.3,0.1,0.5,0.3,0.6c0.2,0.2,0.4,0.2,0.6,0.2c0.2,0,0.4,0,0.5-0.1c0.1-0.1,0.2-0.2,0.3-0.4
		h0.5c-0.1,0.3-0.2,0.5-0.4,0.6s-0.5,0.2-0.8,0.2c-0.3,0-0.5-0.1-0.7-0.2c-0.2-0.1-0.4-0.3-0.5-0.5s-0.2-0.5-0.2-0.7
		s0.1-0.5,0.2-0.7c0.1-0.2,0.3-0.4,0.5-0.5c0.2-0.1,0.4-0.2,0.7-0.2c0.3,0,0.5,0.1,0.7,0.2c0.2,0.1,0.4,0.3,0.5,0.5
		c0.1,0.2,0.2,0.4,0.2,0.7C215.6,53.1,215.6,53.1,215.6,53.2z M215.1,52.4c-0.1-0.1-0.2-0.2-0.3-0.3c-0.1-0.1-0.3-0.1-0.4-0.1
		c-0.2,0-0.4,0.1-0.6,0.2c-0.2,0.1-0.3,0.3-0.3,0.6h1.7C215.2,52.7,215.1,52.6,215.1,52.4z"/>
	<path class="st1" d="M219.6,51.2c0.3,0.1,0.5,0.3,0.6,0.6c0.1,0.3,0.2,0.6,0.2,0.9s-0.1,0.7-0.2,0.9s-0.4,0.5-0.6,0.6
		c-0.3,0.1-0.6,0.2-1,0.2h-1.1V51h1.1C219,51,219.3,51,219.6,51.2z M219.7,53.7c0.2-0.2,0.4-0.6,0.4-1c0-0.4-0.1-0.8-0.4-1
		c-0.2-0.2-0.6-0.4-1-0.4H218v2.7h0.6C219.1,54.1,219.4,53.9,219.7,53.7z"/>
	<path class="st1" d="M223.5,53.2h-2.2c0,0.3,0.1,0.5,0.3,0.6c0.2,0.2,0.4,0.2,0.6,0.2c0.2,0,0.4,0,0.5-0.1c0.1-0.1,0.2-0.2,0.3-0.4
		h0.5c-0.1,0.3-0.2,0.5-0.4,0.6c-0.2,0.2-0.5,0.2-0.8,0.2c-0.3,0-0.5-0.1-0.7-0.2c-0.2-0.1-0.4-0.3-0.5-0.5
		c-0.1-0.2-0.2-0.5-0.2-0.7s0.1-0.5,0.2-0.7c0.1-0.2,0.3-0.4,0.5-0.5c0.2-0.1,0.4-0.2,0.7-0.2c0.3,0,0.5,0.1,0.7,0.2
		c0.2,0.1,0.4,0.3,0.5,0.5c0.1,0.2,0.2,0.4,0.2,0.7C223.5,53.1,223.5,53.1,223.5,53.2z M223,52.4c-0.1-0.1-0.2-0.2-0.3-0.3
		c-0.1-0.1-0.3-0.1-0.4-0.1c-0.2,0-0.4,0.1-0.6,0.2c-0.2,0.1-0.3,0.3-0.3,0.6h1.7C223.1,52.7,223,52.6,223,52.4z"/>
	<path class="st1" d="M224.6,50.8v3.7h-0.5v-3.7H224.6z"/>
	<path class="st1" d="M225.4,51.2c-0.1-0.1-0.1-0.1-0.1-0.2c0-0.1,0-0.2,0.1-0.2c0.1-0.1,0.1-0.1,0.2-0.1c0.1,0,0.2,0,0.2,0.1
		c0.1,0.1,0.1,0.1,0.1,0.2c0,0.1,0,0.2-0.1,0.2c-0.1,0.1-0.1,0.1-0.2,0.1C225.5,51.3,225.4,51.2,225.4,51.2z M225.8,51.7v2.7h-0.5
		v-2.7H225.8z"/>
	<path class="st1" d="M227.6,54l0.8-2.3h0.5l-1.1,2.7h-0.5l-1.1-2.7h0.5L227.6,54z"/>
	<path class="st1" d="M231.8,53.2h-2.2c0,0.3,0.1,0.5,0.3,0.6c0.2,0.2,0.4,0.2,0.6,0.2c0.2,0,0.4,0,0.5-0.1c0.1-0.1,0.2-0.2,0.3-0.4
		h0.5c-0.1,0.3-0.2,0.5-0.4,0.6s-0.5,0.2-0.8,0.2c-0.3,0-0.5-0.1-0.7-0.2c-0.2-0.1-0.4-0.3-0.5-0.5s-0.2-0.5-0.2-0.7
		s0.1-0.5,0.2-0.7c0.1-0.2,0.3-0.4,0.5-0.5c0.2-0.1,0.4-0.2,0.7-0.2c0.3,0,0.5,0.1,0.7,0.2c0.2,0.1,0.4,0.3,0.5,0.5
		c0.1,0.2,0.2,0.4,0.2,0.7C231.8,53.1,231.8,53.1,231.8,53.2z M231.2,52.4c-0.1-0.1-0.2-0.2-0.3-0.3c-0.1-0.1-0.3-0.1-0.4-0.1
		c-0.2,0-0.4,0.1-0.6,0.2c-0.2,0.1-0.3,0.3-0.3,0.6h1.7C231.4,52.7,231.3,52.6,231.2,52.4z"/>
	<path class="st1" d="M233.2,51.8c0.1-0.1,0.3-0.1,0.5-0.1v0.5h-0.1c-0.5,0-0.8,0.3-0.8,0.8v1.5h-0.5v-2.7h0.5v0.4
		C233,52,233.1,51.9,233.2,51.8z"/>
	<path class="st1" d="M236.6,51.7l-1.6,4h-0.5l0.5-1.3l-1.1-2.7h0.5l0.9,2.2l0.8-2.2H236.6z"/>
</g>
<g>
	<path class="st1" d="M312.5,45v0.4H311v1.2h1.2v0.4H311v1.6h-0.5V45H312.5z"/>
	<path class="st1" d="M313.8,45.8c0.1-0.1,0.3-0.1,0.5-0.1v0.5h-0.1c-0.5,0-0.8,0.3-0.8,0.8v1.5H313v-2.7h0.5v0.4
		C313.6,46.1,313.7,45.9,313.8,45.8z"/>
	<path class="st1" d="M317.3,47.3h-2.2c0,0.3,0.1,0.5,0.3,0.6c0.2,0.2,0.4,0.2,0.6,0.2c0.2,0,0.4,0,0.5-0.1c0.1-0.1,0.2-0.2,0.3-0.4
		h0.5c-0.1,0.3-0.2,0.5-0.4,0.6c-0.2,0.2-0.5,0.2-0.8,0.2c-0.3,0-0.5-0.1-0.7-0.2c-0.2-0.1-0.4-0.3-0.5-0.5s-0.2-0.5-0.2-0.7
		s0.1-0.5,0.2-0.7c0.1-0.2,0.3-0.4,0.5-0.5c0.2-0.1,0.4-0.2,0.7-0.2c0.3,0,0.5,0.1,0.7,0.2c0.2,0.1,0.4,0.3,0.5,0.5
		c0.1,0.2,0.2,0.4,0.2,0.7C317.4,47.1,317.4,47.2,317.3,47.3z M316.8,46.5c-0.1-0.1-0.2-0.2-0.3-0.3c-0.1-0.1-0.3-0.1-0.4-0.1
		c-0.2,0-0.4,0.1-0.6,0.2c-0.2,0.1-0.3,0.3-0.3,0.6h1.7C316.9,46.8,316.9,46.6,316.8,46.5z"/>
	<path class="st1" d="M320.4,47.3h-2.2c0,0.3,0.1,0.5,0.3,0.6c0.2,0.2,0.4,0.2,0.6,0.2c0.2,0,0.4,0,0.5-0.1c0.1-0.1,0.2-0.2,0.3-0.4
		h0.5c-0.1,0.3-0.2,0.5-0.4,0.6c-0.2,0.2-0.5,0.2-0.8,0.2c-0.3,0-0.5-0.1-0.7-0.2c-0.2-0.1-0.4-0.3-0.5-0.5s-0.2-0.5-0.2-0.7
		s0.1-0.5,0.2-0.7c0.1-0.2,0.3-0.4,0.5-0.5c0.2-0.1,0.4-0.2,0.7-0.2c0.3,0,0.5,0.1,0.7,0.2c0.2,0.1,0.4,0.3,0.5,0.5
		c0.1,0.2,0.2,0.4,0.2,0.7C320.4,47.1,320.4,47.2,320.4,47.3z M319.8,46.5c-0.1-0.1-0.2-0.2-0.3-0.3c-0.1-0.1-0.3-0.1-0.4-0.1
		c-0.2,0-0.4,0.1-0.6,0.2c-0.2,0.1-0.3,0.3-0.3,0.6h1.7C320,46.8,319.9,46.6,319.8,46.5z"/>
	<path class="st1" d="M305.4,54.3c-0.2-0.1-0.3-0.2-0.4-0.3c-0.1-0.1-0.2-0.3-0.2-0.5h0.5c0,0.2,0.1,0.3,0.2,0.4
		c0.1,0.1,0.3,0.2,0.5,0.2c0.2,0,0.4-0.1,0.5-0.2c0.1-0.1,0.2-0.2,0.2-0.4c0-0.1,0-0.2-0.1-0.3c-0.1-0.1-0.2-0.1-0.3-0.2
		c-0.1,0-0.3-0.1-0.4-0.1c-0.2-0.1-0.4-0.1-0.5-0.2c-0.1-0.1-0.3-0.2-0.4-0.3c-0.1-0.1-0.1-0.3-0.1-0.5c0-0.2,0-0.4,0.1-0.5
		c0.1-0.1,0.2-0.3,0.4-0.3c0.2-0.1,0.4-0.1,0.6-0.1c0.3,0,0.6,0.1,0.8,0.2c0.2,0.2,0.3,0.4,0.3,0.6h-0.5c0-0.1-0.1-0.2-0.2-0.3
		s-0.3-0.2-0.5-0.2c-0.2,0-0.3,0-0.5,0.1c-0.1,0.1-0.2,0.2-0.2,0.4c0,0.1,0,0.2,0.1,0.3c0.1,0.1,0.2,0.1,0.3,0.2
		c0.1,0,0.2,0.1,0.4,0.1c0.2,0.1,0.4,0.1,0.5,0.2c0.1,0.1,0.3,0.2,0.4,0.3c0.1,0.1,0.1,0.3,0.1,0.5c0,0.2,0,0.3-0.1,0.5
		c-0.1,0.1-0.2,0.3-0.4,0.4c-0.2,0.1-0.4,0.1-0.6,0.1C305.8,54.5,305.6,54.4,305.4,54.3z"/>
	<path class="st1" d="M309.7,51.8c0.2,0.1,0.3,0.2,0.4,0.4c0.1,0.2,0.1,0.4,0.1,0.6v1.6h-0.4v-1.5c0-0.3-0.1-0.5-0.2-0.6
		c-0.1-0.1-0.3-0.2-0.6-0.2c-0.2,0-0.4,0.1-0.6,0.2c-0.1,0.1-0.2,0.4-0.2,0.6v1.5h-0.5v-3.7h0.5v1.3c0.1-0.1,0.2-0.2,0.4-0.3
		c0.2-0.1,0.3-0.1,0.5-0.1C309.4,51.7,309.6,51.7,309.7,51.8z"/>
	<path class="st1" d="M311,51.2c-0.1-0.1-0.1-0.1-0.1-0.2c0-0.1,0-0.2,0.1-0.2c0.1-0.1,0.1-0.1,0.2-0.1c0.1,0,0.2,0,0.2,0.1
		c0.1,0.1,0.1,0.1,0.1,0.2c0,0.1,0,0.2-0.1,0.2c-0.1,0.1-0.1,0.1-0.2,0.1C311.1,51.3,311.1,51.2,311,51.2z M311.4,51.7v2.7H311v-2.7
		H311.4z"/>
	<path class="st1" d="M313.1,51.8c0.2-0.1,0.4-0.2,0.6-0.2c0.2,0,0.5,0.1,0.7,0.2s0.4,0.3,0.5,0.5c0.1,0.2,0.2,0.5,0.2,0.7
		c0,0.3-0.1,0.5-0.2,0.7c-0.1,0.2-0.3,0.4-0.5,0.5c-0.2,0.1-0.4,0.2-0.7,0.2c-0.2,0-0.4-0.1-0.6-0.2c-0.2-0.1-0.3-0.2-0.4-0.4v1.8
		h-0.5v-4h0.5v0.5C312.7,52.1,312.9,51.9,313.1,51.8z M314.4,52.5c-0.1-0.2-0.2-0.3-0.3-0.3c-0.1-0.1-0.3-0.1-0.5-0.1
		c-0.2,0-0.3,0-0.5,0.1c-0.1,0.1-0.3,0.2-0.3,0.4c-0.1,0.2-0.1,0.3-0.1,0.5c0,0.2,0,0.4,0.1,0.5c0.1,0.2,0.2,0.3,0.3,0.4
		c0.1,0.1,0.3,0.1,0.5,0.1c0.2,0,0.3,0,0.5-0.1c0.1-0.1,0.3-0.2,0.3-0.4c0.1-0.2,0.1-0.3,0.1-0.5C314.5,52.9,314.5,52.7,314.4,52.5z
		"/>
	<path class="st1" d="M316.4,51.8c0.2-0.1,0.4-0.2,0.6-0.2c0.2,0,0.5,0.1,0.7,0.2s0.4,0.3,0.5,0.5c0.1,0.2,0.2,0.5,0.2,0.7
		c0,0.3-0.1,0.5-0.2,0.7c-0.1,0.2-0.3,0.4-0.5,0.5c-0.2,0.1-0.4,0.2-0.7,0.2c-0.2,0-0.4-0.1-0.6-0.2c-0.2-0.1-0.3-0.2-0.4-0.4v1.8
		h-0.5v-4h0.5v0.5C316.1,52.1,316.2,51.9,316.4,51.8z M317.7,52.5c-0.1-0.2-0.2-0.3-0.3-0.3c-0.1-0.1-0.3-0.1-0.5-0.1
		c-0.2,0-0.3,0-0.5,0.1c-0.1,0.1-0.3,0.2-0.3,0.4c-0.1,0.2-0.1,0.3-0.1,0.5c0,0.2,0,0.4,0.1,0.5c0.1,0.2,0.2,0.3,0.3,0.4
		c0.1,0.1,0.3,0.1,0.5,0.1c0.2,0,0.3,0,0.5-0.1c0.1-0.1,0.3-0.2,0.3-0.4c0.1-0.2,0.1-0.3,0.1-0.5C317.8,52.9,317.8,52.7,317.7,52.5z
		"/>
	<path class="st1" d="M318.9,51.2c-0.1-0.1-0.1-0.1-0.1-0.2c0-0.1,0-0.2,0.1-0.2c0.1-0.1,0.1-0.1,0.2-0.1c0.1,0,0.2,0,0.2,0.1
		c0.1,0.1,0.1,0.1,0.1,0.2c0,0.1,0,0.2-0.1,0.2c-0.1,0.1-0.1,0.1-0.2,0.1C319.1,51.3,319,51.2,318.9,51.2z M319.4,51.7v2.7h-0.5
		v-2.7H319.4z"/>
	<path class="st1" d="M322.2,52c0.2,0.2,0.3,0.5,0.3,0.9v1.6h-0.4v-1.5c0-0.3-0.1-0.5-0.2-0.6c-0.1-0.1-0.3-0.2-0.6-0.2
		c-0.2,0-0.4,0.1-0.6,0.2c-0.1,0.1-0.2,0.4-0.2,0.6v1.5h-0.5v-2.7h0.5v0.4c0.1-0.1,0.2-0.2,0.4-0.3c0.2-0.1,0.3-0.1,0.5-0.1
		C321.8,51.7,322,51.8,322.2,52z"/>
	<path class="st1" d="M325,51.8c0.2,0.1,0.3,0.2,0.4,0.4v-0.5h0.5v2.8c0,0.2-0.1,0.5-0.2,0.7c-0.1,0.2-0.3,0.3-0.5,0.5
		c-0.2,0.1-0.4,0.2-0.7,0.2c-0.4,0-0.7-0.1-0.9-0.3c-0.2-0.2-0.4-0.4-0.4-0.7h0.4c0,0.2,0.2,0.3,0.3,0.4c0.2,0.1,0.3,0.2,0.6,0.2
		c0.2,0,0.5-0.1,0.6-0.2s0.2-0.4,0.2-0.7v-0.6c-0.1,0.2-0.2,0.3-0.4,0.4c-0.2,0.1-0.4,0.2-0.6,0.2c-0.2,0-0.5-0.1-0.7-0.2
		c-0.2-0.1-0.4-0.3-0.5-0.5c-0.1-0.2-0.2-0.5-0.2-0.7c0-0.3,0.1-0.5,0.2-0.7c0.1-0.2,0.3-0.4,0.5-0.5c0.2-0.1,0.4-0.2,0.7-0.2
		C324.6,51.7,324.9,51.7,325,51.8z M325.3,52.5c-0.1-0.2-0.2-0.3-0.3-0.3c-0.1-0.1-0.3-0.1-0.5-0.1c-0.2,0-0.3,0-0.5,0.1
		c-0.1,0.1-0.2,0.2-0.3,0.3c-0.1,0.2-0.1,0.3-0.1,0.5c0,0.2,0,0.4,0.1,0.5c0.1,0.2,0.2,0.3,0.3,0.4c0.1,0.1,0.3,0.1,0.5,0.1
		c0.2,0,0.3,0,0.5-0.1c0.1-0.1,0.3-0.2,0.3-0.4c0.1-0.2,0.1-0.3,0.1-0.5C325.4,52.9,325.4,52.7,325.3,52.5z"/>
</g>
<g>
	<path class="st1" d="M403,45.8c0.2-0.3,0.4-0.5,0.6-0.6c0.3-0.2,0.6-0.2,0.9-0.2c0.4,0,0.7,0.1,1,0.3c0.3,0.2,0.5,0.4,0.6,0.8h-0.5
		c-0.1-0.2-0.2-0.4-0.4-0.5c-0.2-0.1-0.4-0.2-0.6-0.2c-0.2,0-0.5,0.1-0.6,0.2c-0.2,0.1-0.3,0.3-0.5,0.5c-0.1,0.2-0.2,0.4-0.2,0.7
		c0,0.3,0.1,0.5,0.2,0.7c0.1,0.2,0.3,0.4,0.5,0.5s0.4,0.2,0.6,0.2c0.3,0,0.5-0.1,0.6-0.2c0.2-0.1,0.3-0.3,0.4-0.5h0.5
		c-0.1,0.3-0.3,0.6-0.6,0.8c-0.3,0.2-0.6,0.3-1,0.3c-0.3,0-0.6-0.1-0.9-0.2c-0.3-0.2-0.5-0.4-0.6-0.6c-0.2-0.3-0.2-0.6-0.2-0.9
		C402.8,46.4,402.8,46.1,403,45.8z"/>
	<path class="st1" d="M409.2,47.3h-2.2c0,0.3,0.1,0.5,0.3,0.6c0.2,0.2,0.4,0.2,0.6,0.2c0.2,0,0.4,0,0.5-0.1c0.1-0.1,0.2-0.2,0.3-0.4
		h0.5c-0.1,0.3-0.2,0.5-0.4,0.6c-0.2,0.2-0.5,0.2-0.8,0.2c-0.3,0-0.5-0.1-0.7-0.2c-0.2-0.1-0.4-0.3-0.5-0.5s-0.2-0.5-0.2-0.7
		s0.1-0.5,0.2-0.7c0.1-0.2,0.3-0.4,0.5-0.5c0.2-0.1,0.4-0.2,0.7-0.2c0.3,0,0.5,0.1,0.7,0.2c0.2,0.1,0.4,0.3,0.5,0.5
		c0.1,0.2,0.2,0.4,0.2,0.7C409.2,47.1,409.2,47.2,409.2,47.3z M408.7,46.5c-0.1-0.1-0.2-0.2-0.3-0.3c-0.1-0.1-0.3-0.1-0.4-0.1
		c-0.2,0-0.4,0.1-0.6,0.2c-0.2,0.1-0.3,0.3-0.3,0.6h1.7C408.8,46.8,408.7,46.6,408.7,46.5z"/>
	<path class="st1" d="M410.6,45.8c0.1-0.1,0.3-0.1,0.5-0.1v0.5H411c-0.5,0-0.8,0.3-0.8,0.8v1.5h-0.5v-2.7h0.5v0.4
		C410.4,46.1,410.5,45.9,410.6,45.8z"/>
	<path class="st1" d="M412.2,46.1v1.6c0,0.1,0,0.2,0.1,0.3c0.1,0.1,0.2,0.1,0.3,0.1h0.3v0.4h-0.4c-0.3,0-0.4-0.1-0.6-0.2
		c-0.1-0.1-0.2-0.3-0.2-0.6v-1.6h-0.4v-0.4h0.4v-0.7h0.5v0.7h0.7v0.4H412.2z"/>
	<path class="st1" d="M413.5,45.2c-0.1-0.1-0.1-0.1-0.1-0.2s0-0.2,0.1-0.2c0.1-0.1,0.1-0.1,0.2-0.1c0.1,0,0.2,0,0.2,0.1
		c0.1,0.1,0.1,0.1,0.1,0.2s0,0.2-0.1,0.2c-0.1,0.1-0.1,0.1-0.2,0.1C413.6,45.3,413.6,45.3,413.5,45.2z M413.9,45.8v2.7h-0.5v-2.7
		H413.9z"/>
	<path class="st1" d="M415.2,45.8h1.5v2.7h-0.5v-2.3h-1.1v2.3h-0.5v-2.3h-0.3v-0.4h0.3v-0.2c0-0.3,0.1-0.5,0.2-0.7
		c0.2-0.1,0.4-0.2,0.8-0.2v0.4c-0.2,0-0.3,0-0.4,0.1c-0.1,0.1-0.1,0.2-0.1,0.4V45.8z M416.3,45.2c-0.1-0.1-0.1-0.1-0.1-0.2
		s0-0.2,0.1-0.2c0.1-0.1,0.1-0.1,0.2-0.1c0.1,0,0.2,0,0.2,0.1c0.1,0.1,0.1,0.1,0.1,0.2s0,0.2-0.1,0.2c-0.1,0.1-0.1,0.1-0.2,0.1
		C416.5,45.3,416.4,45.3,416.3,45.2z"/>
	<path class="st1" d="M420,47.3h-2.2c0,0.3,0.1,0.5,0.3,0.6c0.2,0.2,0.4,0.2,0.6,0.2c0.2,0,0.4,0,0.5-0.1c0.1-0.1,0.2-0.2,0.3-0.4
		h0.5c-0.1,0.3-0.2,0.5-0.4,0.6s-0.5,0.2-0.8,0.2c-0.3,0-0.5-0.1-0.7-0.2c-0.2-0.1-0.4-0.3-0.5-0.5s-0.2-0.5-0.2-0.7
		s0.1-0.5,0.2-0.7c0.1-0.2,0.3-0.4,0.5-0.5c0.2-0.1,0.4-0.2,0.7-0.2c0.3,0,0.5,0.1,0.7,0.2c0.2,0.1,0.4,0.3,0.5,0.5
		c0.1,0.2,0.2,0.4,0.2,0.7C420,47.1,420,47.2,420,47.3z M419.4,46.5c-0.1-0.1-0.2-0.2-0.3-0.3c-0.1-0.1-0.3-0.1-0.4-0.1
		c-0.2,0-0.4,0.1-0.6,0.2c-0.2,0.1-0.3,0.3-0.3,0.6h1.7C419.5,46.8,419.5,46.6,419.4,46.5z"/>
	<path class="st1" d="M420.6,46.4c0.1-0.2,0.3-0.4,0.5-0.5c0.2-0.1,0.4-0.2,0.7-0.2c0.2,0,0.4,0,0.6,0.1c0.2,0.1,0.3,0.2,0.4,0.4
		v-1.4h0.5v3.7h-0.5V48c-0.1,0.2-0.2,0.3-0.4,0.4c-0.2,0.1-0.4,0.2-0.6,0.2c-0.2,0-0.5-0.1-0.7-0.2c-0.2-0.1-0.4-0.3-0.5-0.5
		s-0.2-0.5-0.2-0.7C420.4,46.8,420.5,46.6,420.6,46.4z M422.6,46.6c-0.1-0.2-0.2-0.3-0.3-0.3c-0.1-0.1-0.3-0.1-0.5-0.1
		c-0.2,0-0.3,0-0.5,0.1c-0.1,0.1-0.2,0.2-0.3,0.3c-0.1,0.2-0.1,0.3-0.1,0.5c0,0.2,0,0.4,0.1,0.5c0.1,0.2,0.2,0.3,0.3,0.4
		c0.1,0.1,0.3,0.1,0.5,0.1c0.2,0,0.3,0,0.5-0.1c0.1-0.1,0.3-0.2,0.3-0.4c0.1-0.2,0.1-0.3,0.1-0.5C422.7,46.9,422.7,46.7,422.6,46.6z
		"/>
	<path class="st1" d="M402.8,51.2c0.3,0.1,0.5,0.3,0.6,0.6c0.1,0.3,0.2,0.6,0.2,0.9s-0.1,0.7-0.2,0.9c-0.1,0.3-0.4,0.5-0.6,0.6
		c-0.3,0.1-0.6,0.2-1,0.2h-1.1V51h1.1C402.2,51,402.5,51,402.8,51.2z M402.8,53.7c0.2-0.2,0.4-0.6,0.4-1c0-0.4-0.1-0.8-0.4-1
		c-0.2-0.2-0.6-0.4-1-0.4h-0.6v2.7h0.6C402.2,54.1,402.6,53.9,402.8,53.7z"/>
	<path class="st1" d="M404.2,51.2c-0.1-0.1-0.1-0.1-0.1-0.2c0-0.1,0-0.2,0.1-0.2c0.1-0.1,0.1-0.1,0.2-0.1c0.1,0,0.2,0,0.2,0.1
		c0.1,0.1,0.1,0.1,0.1,0.2c0,0.1,0,0.2-0.1,0.2c-0.1,0.1-0.1,0.1-0.2,0.1C404.4,51.3,404.3,51.2,404.2,51.2z M404.7,51.7v2.7h-0.5
		v-2.7H404.7z"/>
	<path class="st1" d="M405.4,52.3c0.1-0.2,0.3-0.4,0.5-0.5c0.2-0.1,0.4-0.2,0.7-0.2c0.2,0,0.4,0.1,0.6,0.2c0.2,0.1,0.3,0.2,0.4,0.4
		v-0.5h0.5v2.7h-0.5v-0.5c-0.1,0.2-0.2,0.3-0.4,0.4c-0.2,0.1-0.4,0.2-0.6,0.2c-0.2,0-0.5-0.1-0.7-0.2c-0.2-0.1-0.3-0.3-0.5-0.5
		c-0.1-0.2-0.2-0.5-0.2-0.7C405.3,52.8,405.3,52.5,405.4,52.3z M407.4,52.5c-0.1-0.2-0.2-0.3-0.3-0.3c-0.1-0.1-0.3-0.1-0.5-0.1
		c-0.2,0-0.3,0-0.5,0.1c-0.1,0.1-0.2,0.2-0.3,0.3c-0.1,0.2-0.1,0.3-0.1,0.5c0,0.2,0,0.4,0.1,0.5c0.1,0.2,0.2,0.3,0.3,0.4
		c0.1,0.1,0.3,0.1,0.5,0.1c0.2,0,0.3,0,0.5-0.1c0.1-0.1,0.3-0.2,0.3-0.4c0.1-0.2,0.1-0.3,0.1-0.5C407.6,52.9,407.5,52.7,407.4,52.5z
		"/>
	<path class="st1" d="M412.6,51.8c0.2,0.1,0.3,0.2,0.4,0.4c0.1,0.2,0.1,0.4,0.1,0.6v1.6h-0.4v-1.5c0-0.3-0.1-0.5-0.2-0.6
		c-0.1-0.1-0.3-0.2-0.5-0.2c-0.2,0-0.4,0.1-0.6,0.2c-0.1,0.2-0.2,0.4-0.2,0.7v1.5h-0.4v-1.5c0-0.3-0.1-0.5-0.2-0.6
		c-0.1-0.1-0.3-0.2-0.5-0.2c-0.2,0-0.4,0.1-0.6,0.2c-0.1,0.2-0.2,0.4-0.2,0.7v1.5h-0.5v-2.7h0.5v0.4c0.1-0.1,0.2-0.3,0.4-0.3
		c0.2-0.1,0.3-0.1,0.5-0.1c0.2,0,0.4,0.1,0.6,0.2c0.2,0.1,0.3,0.3,0.4,0.5c0.1-0.2,0.2-0.3,0.4-0.4c0.2-0.1,0.4-0.2,0.6-0.2
		C412.3,51.7,412.4,51.7,412.6,51.8z"/>
	<path class="st1" d="M414.4,54.3c-0.2-0.1-0.4-0.3-0.5-0.5c-0.1-0.2-0.2-0.5-0.2-0.7c0-0.3,0.1-0.5,0.2-0.7
		c0.1-0.2,0.3-0.4,0.5-0.5c0.2-0.1,0.4-0.2,0.7-0.2c0.3,0,0.5,0.1,0.7,0.2c0.2,0.1,0.4,0.3,0.5,0.5c0.1,0.2,0.2,0.5,0.2,0.7
		s-0.1,0.5-0.2,0.7s-0.3,0.4-0.5,0.5c-0.2,0.1-0.4,0.2-0.7,0.2C414.8,54.5,414.6,54.4,414.4,54.3z M415.5,54
		c0.1-0.1,0.3-0.2,0.3-0.3c0.1-0.2,0.1-0.3,0.1-0.6c0-0.2,0-0.4-0.1-0.6c-0.1-0.2-0.2-0.3-0.3-0.3c-0.1-0.1-0.3-0.1-0.5-0.1
		c-0.2,0-0.3,0-0.5,0.1c-0.1,0.1-0.2,0.2-0.3,0.3c-0.1,0.2-0.1,0.3-0.1,0.6c0,0.2,0,0.4,0.1,0.6c0.1,0.2,0.2,0.3,0.3,0.3
		s0.3,0.1,0.4,0.1C415.2,54.1,415.4,54,415.5,54z"/>
	<path class="st1" d="M419.2,52c0.2,0.2,0.3,0.5,0.3,0.9v1.6H419v-1.5c0-0.3-0.1-0.5-0.2-0.6c-0.1-0.1-0.3-0.2-0.6-0.2
		c-0.2,0-0.4,0.1-0.6,0.2c-0.1,0.1-0.2,0.4-0.2,0.6v1.5h-0.5v-2.7h0.5v0.4c0.1-0.1,0.2-0.2,0.4-0.3c0.2-0.1,0.3-0.1,0.5-0.1
		C418.7,51.7,419,51.8,419.2,52z"/>
	<path class="st1" d="M420.2,52.3c0.1-0.2,0.3-0.4,0.5-0.5c0.2-0.1,0.4-0.2,0.7-0.2c0.2,0,0.4,0,0.6,0.1c0.2,0.1,0.3,0.2,0.4,0.4
		v-1.4h0.5v3.7h-0.5v-0.5c-0.1,0.2-0.2,0.3-0.4,0.4c-0.2,0.1-0.4,0.2-0.6,0.2c-0.2,0-0.5-0.1-0.7-0.2c-0.2-0.1-0.4-0.3-0.5-0.5
		c-0.1-0.2-0.2-0.5-0.2-0.7C420.1,52.8,420.1,52.5,420.2,52.3z M422.2,52.5c-0.1-0.2-0.2-0.3-0.3-0.3c-0.1-0.1-0.3-0.1-0.5-0.1
		c-0.2,0-0.3,0-0.5,0.1c-0.1,0.1-0.2,0.2-0.3,0.3c-0.1,0.2-0.1,0.3-0.1,0.5c0,0.2,0,0.4,0.1,0.5c0.1,0.2,0.2,0.3,0.3,0.4
		c0.1,0.1,0.3,0.1,0.5,0.1c0.2,0,0.3,0,0.5-0.1c0.1-0.1,0.3-0.2,0.3-0.4c0.1-0.2,0.1-0.3,0.1-0.5C422.4,52.9,422.3,52.7,422.2,52.5z
		"/>
	<path class="st1" d="M424,54.4c-0.2-0.1-0.3-0.2-0.4-0.3c-0.1-0.1-0.1-0.3-0.2-0.4h0.5c0,0.1,0.1,0.2,0.2,0.3
		c0.1,0.1,0.3,0.1,0.4,0.1c0.2,0,0.3,0,0.4-0.1c0.1-0.1,0.1-0.2,0.1-0.3c0-0.1-0.1-0.2-0.2-0.3c-0.1-0.1-0.3-0.1-0.5-0.2
		c-0.2-0.1-0.4-0.1-0.5-0.2c-0.1-0.1-0.2-0.1-0.3-0.2c-0.1-0.1-0.1-0.2-0.1-0.4c0-0.1,0-0.3,0.1-0.4c0.1-0.1,0.2-0.2,0.4-0.3
		c0.2-0.1,0.3-0.1,0.5-0.1c0.3,0,0.5,0.1,0.7,0.2c0.2,0.2,0.3,0.4,0.3,0.6H425c0-0.1-0.1-0.3-0.2-0.3c-0.1-0.1-0.2-0.1-0.4-0.1
		c-0.2,0-0.3,0-0.4,0.1c-0.1,0.1-0.1,0.2-0.1,0.3c0,0.1,0,0.2,0.1,0.2c0.1,0.1,0.1,0.1,0.2,0.1c0.1,0,0.2,0.1,0.4,0.1
		c0.2,0.1,0.4,0.1,0.5,0.2c0.1,0.1,0.2,0.1,0.3,0.2c0.1,0.1,0.1,0.2,0.1,0.4c0,0.1,0,0.3-0.1,0.4c-0.1,0.1-0.2,0.2-0.3,0.3
		s-0.3,0.1-0.5,0.1C424.3,54.5,424.1,54.4,424,54.4z"/>
</g>
<g>
	<path class="st1" d="M217.6,37.3c-0.1,0-0.2,0-0.3,0l0,0c-1.1-0.3-2.2-1-3.1-1.8c-0.9-0.8-1.7-1.9-2.2-3.1c-1-2-0.9-4.3-0.9-6.8
		c0-0.2,0-0.3,0-0.5v0c0-0.3,0.2-0.6,0.6-0.6l0,0c2.1-0.2,4.1-1,5.5-2.2v0c0.2-0.2,0.6-0.2,0.8,0v0c1.4,1.2,3.4,2,5.5,2.2l0,0
		c0.3,0,0.6,0.3,0.6,0.6v0c0,0.2,0,0.3,0,0.5l0,0c0,2.6,0.1,4.8-0.9,6.8c-0.5,1.2-1.3,2.2-2.2,3.1C219.8,36.4,218.7,37,217.6,37.3
		L217.6,37.3z M211.8,25.3l0,0.1c0,0.2,0,0.3,0,0.5c0,2.4-0.1,4.4,0.8,6.3c0.5,1.1,1.2,2,2,2.8c0.8,0.8,1.8,1.3,2.8,1.6l0,0l0,0
		c1-0.3,2-0.9,2.8-1.6c0.8-0.8,1.5-1.7,2-2.8c0.9-1.9,0.8-3.9,0.8-6.3l0,0c0-0.2,0-0.3,0-0.5l0-0.1l-0.1,0c-2.1-0.2-4.1-1-5.5-2.2
		l-0.1-0.1l-0.1,0.1c-1.4,1.2-3.4,2-5.5,2.2L211.8,25.3z"/>
	<path class="st1" d="M216.7,31.8L216.7,31.8c-0.1,0-0.2,0-0.2-0.1l-1.6-1.8c-0.1-0.1-0.1-0.3,0-0.4c0.1-0.1,0.3-0.1,0.4,0l1.4,1.6
		l2.8-3.2c0.1-0.1,0.3-0.1,0.4,0c0.1,0.1,0.1,0.3,0,0.4l-3,3.5C216.9,31.8,216.8,31.8,216.7,31.8z"/>
</g>
<path class="st2" d="M317.2,37.3h-11.1c-0.7,0-1.2-0.5-1.2-1.2v-7.9c0-0.7,0.5-1.2,1.2-1.2h11.1c0.7,0,1.2,0.5,1.2,1.2v7.9
	C318.4,36.8,317.9,37.3,317.2,37.3z"/>
<path class="st2" d="M327.1,37.3h-7.9c-0.5,0-0.9-0.4-0.9-0.9v-5.7c0-0.5,0.4-0.9,0.9-0.9h3.9c0.6,0,1.1,0.3,1.4,0.8l3.3,5.4
	C328.1,36.6,327.7,37.3,327.1,37.3C327.1,37.3,327.1,37.3,327.1,37.3z"/>
<circle class="st3" cx="309.4" cy="37.9" r="2"/>
<circle class="st3" cx="323.6" cy="37.9" r="2"/>
<path class="st1" d="M412.2,41.3c0,0.1,0.1,0.1,0.2,0.1c0.1,0,0.1,0,0.2-0.1l9.8-11.8c0.1-0.1,0.1-0.2,0-0.3l-3.6-4
	c0,0-0.1-0.1-0.2-0.1h-12.5c-0.1,0-0.1,0-0.2,0.1l-3.6,4c-0.1,0.1-0.1,0.2,0,0.3L412.2,41.3z M408.2,29.5l3.6,10.5L403,29.5H408.2z
	 M421.7,29.5L413,40l3.6-10.5H421.7z M416,29.5l-3.7,10.9l-3.7-10.9H416z M408.7,29.1l1.4-3.6h4.6l1.4,3.6H408.7z M421.7,29.1h-5.2
	l-1.4-3.6h3.4L421.7,29.1z M406.2,25.5h3.4l-1.4,3.6H403L406.2,25.5z"/>
</svg>
