<?xml version="1.0" encoding="utf-8"?>
<!-- Generator: Adobe Illustrator 24.2.1, SVG Export Plug-In . SVG Version: 6.00 Build 0)  -->
<svg version="1.1" id="Layer_1" xmlns="http://www.w3.org/2000/svg" xmlns:xlink="http://www.w3.org/1999/xlink" x="0px" y="0px"
	 viewBox="0 0 625.7 78.4" style="enable-background:new 0 0 625.7 78.4;" xml:space="preserve">
<style type="text/css">
	.st0{opacity:0.25;fill:#C4C3C3;enable-background:new    ;}
	.st1{fill:#727272;}
	.st2{fill:#808184;}
	.st3{fill:none;stroke:#808184;stroke-width:0.6501;stroke-miterlimit:10;}
	.st4{fill:#E2E2E2;stroke:#808184;stroke-width:0.6501;stroke-miterlimit:10;}
</style>
<rect x="-0.7" y="0.3" class="st0" width="626.3" height="78.4"/>
<g>
	<path class="st1" d="M194.9,49.3c-0.2-0.1-0.4-0.2-0.5-0.4c-0.1-0.2-0.2-0.4-0.2-0.6h0.7c0,0.2,0.1,0.3,0.2,0.4
		c0.1,0.1,0.3,0.2,0.5,0.2c0.2,0,0.4-0.1,0.5-0.2c0.1-0.1,0.2-0.2,0.2-0.4c0-0.1,0-0.2-0.1-0.3c-0.1-0.1-0.2-0.1-0.3-0.2
		s-0.3-0.1-0.5-0.1c-0.3-0.1-0.5-0.1-0.6-0.2c-0.2-0.1-0.3-0.2-0.4-0.3c-0.1-0.1-0.2-0.3-0.2-0.6c0-0.2,0.1-0.4,0.2-0.6
		s0.3-0.3,0.5-0.4s0.4-0.1,0.7-0.1c0.4,0,0.7,0.1,0.9,0.3c0.2,0.2,0.4,0.5,0.4,0.8h-0.7c0-0.1-0.1-0.3-0.2-0.4
		c-0.1-0.1-0.3-0.2-0.5-0.2c-0.2,0-0.3,0-0.5,0.1c-0.1,0.1-0.2,0.2-0.2,0.4c0,0.1,0,0.2,0.1,0.3c0.1,0.1,0.2,0.1,0.3,0.2
		s0.3,0.1,0.5,0.1c0.3,0.1,0.5,0.1,0.6,0.2c0.2,0.1,0.3,0.2,0.4,0.3c0.1,0.2,0.2,0.4,0.2,0.6c0,0.2-0.1,0.4-0.2,0.6
		s-0.3,0.3-0.5,0.4c-0.2,0.1-0.5,0.2-0.7,0.2C195.4,49.4,195.1,49.4,194.9,49.3z"/>
	<path class="st1" d="M197.8,46.9c0.1-0.2,0.3-0.4,0.5-0.6c0.2-0.1,0.5-0.2,0.8-0.2c0.2,0,0.5,0,0.7,0.1s0.3,0.2,0.4,0.4v-0.5h0.7
		v3.2h-0.7v-0.5c-0.1,0.1-0.3,0.3-0.5,0.4c-0.2,0.1-0.4,0.1-0.7,0.1c-0.3,0-0.5-0.1-0.7-0.2c-0.2-0.1-0.4-0.3-0.5-0.6
		c-0.1-0.3-0.2-0.5-0.2-0.9S197.7,47.2,197.8,46.9z M200,47.2c-0.1-0.2-0.2-0.3-0.4-0.4c-0.1-0.1-0.3-0.1-0.5-0.1
		c-0.2,0-0.3,0-0.5,0.1c-0.1,0.1-0.3,0.2-0.4,0.4c-0.1,0.2-0.1,0.3-0.1,0.6s0,0.4,0.1,0.6s0.2,0.3,0.4,0.4c0.1,0.1,0.3,0.1,0.5,0.1
		c0.2,0,0.3,0,0.5-0.1c0.1-0.1,0.3-0.2,0.4-0.4c0.1-0.2,0.1-0.4,0.1-0.6C200.2,47.6,200.1,47.4,200,47.2z"/>
	<path class="st1" d="M203,46.7h-0.6v2.6h-0.7v-2.6h-0.4v-0.5h0.4V46c0-0.4,0.1-0.6,0.3-0.8s0.5-0.2,0.9-0.2v0.5
		c-0.2,0-0.3,0-0.4,0.1c-0.1,0.1-0.1,0.2-0.1,0.4v0.2h0.6V46.7z"/>
	<path class="st1" d="M206.5,48h-2.4c0,0.3,0.1,0.5,0.3,0.6c0.2,0.2,0.4,0.2,0.6,0.2c0.4,0,0.6-0.1,0.7-0.4h0.7
		c-0.1,0.3-0.3,0.5-0.5,0.7c-0.3,0.2-0.6,0.3-0.9,0.3c-0.3,0-0.6-0.1-0.8-0.2c-0.2-0.1-0.4-0.3-0.6-0.6c-0.1-0.2-0.2-0.5-0.2-0.9
		c0-0.3,0.1-0.6,0.2-0.9c0.1-0.2,0.3-0.4,0.6-0.6c0.2-0.1,0.5-0.2,0.8-0.2c0.3,0,0.6,0.1,0.8,0.2c0.2,0.1,0.4,0.3,0.5,0.5
		c0.1,0.2,0.2,0.5,0.2,0.8C206.5,47.8,206.5,47.9,206.5,48z M205.8,47.5c0-0.2-0.1-0.4-0.3-0.6c-0.2-0.1-0.4-0.2-0.6-0.2
		c-0.2,0-0.4,0.1-0.6,0.2s-0.3,0.3-0.3,0.6H205.8z"/>
	<path class="st1" d="M211.7,49.4l-0.5-0.5c-0.2,0.2-0.4,0.3-0.6,0.4c-0.2,0.1-0.5,0.1-0.8,0.1c-0.3,0-0.5,0-0.8-0.1
		c-0.2-0.1-0.4-0.2-0.5-0.4s-0.2-0.4-0.2-0.6c0-0.3,0.1-0.5,0.2-0.7c0.2-0.2,0.4-0.4,0.7-0.5c-0.1-0.1-0.2-0.3-0.2-0.4
		c0-0.1-0.1-0.2-0.1-0.4c0-0.2,0-0.3,0.1-0.5c0.1-0.1,0.2-0.2,0.4-0.3c0.2-0.1,0.4-0.1,0.6-0.1c0.2,0,0.4,0,0.6,0.1s0.3,0.2,0.4,0.4
		c0.1,0.1,0.1,0.3,0.1,0.5h-0.7c0-0.1,0-0.3-0.1-0.3c-0.1-0.1-0.2-0.1-0.3-0.1s-0.2,0-0.3,0.1c-0.1,0.1-0.1,0.2-0.1,0.3
		c0,0.1,0,0.2,0.1,0.3c0.1,0.1,0.2,0.2,0.3,0.4l1.1,1l0.4-0.7h0.7l-0.5,0.9l-0.1,0.2l1,1H211.7z M210.8,48.4l-1.1-1.1
		c-0.5,0.2-0.7,0.5-0.7,0.8c0,0.2,0.1,0.4,0.2,0.5c0.1,0.1,0.3,0.2,0.6,0.2C210.2,48.9,210.5,48.7,210.8,48.4z"/>
	<path class="st1" d="M182.1,56.1c-0.2-0.1-0.4-0.2-0.5-0.4c-0.1-0.2-0.2-0.4-0.2-0.6h0.7c0,0.2,0.1,0.3,0.2,0.4
		c0.1,0.1,0.3,0.2,0.5,0.2c0.2,0,0.4-0.1,0.5-0.2c0.1-0.1,0.2-0.2,0.2-0.4c0-0.1,0-0.2-0.1-0.3c-0.1-0.1-0.2-0.1-0.3-0.2
		s-0.3-0.1-0.5-0.1c-0.3-0.1-0.5-0.1-0.6-0.2c-0.2-0.1-0.3-0.2-0.4-0.3c-0.1-0.1-0.2-0.3-0.2-0.6c0-0.2,0.1-0.4,0.2-0.6
		s0.3-0.3,0.5-0.4s0.4-0.1,0.7-0.1c0.4,0,0.7,0.1,0.9,0.3c0.2,0.2,0.4,0.5,0.4,0.8h-0.7c0-0.1-0.1-0.3-0.2-0.4
		c-0.1-0.1-0.3-0.2-0.5-0.2c-0.2,0-0.3,0-0.5,0.1c-0.1,0.1-0.2,0.2-0.2,0.4c0,0.1,0,0.2,0.1,0.3c0.1,0.1,0.2,0.1,0.3,0.2
		s0.3,0.1,0.5,0.1c0.3,0.1,0.5,0.1,0.6,0.2c0.2,0.1,0.3,0.2,0.4,0.3c0.1,0.2,0.2,0.4,0.2,0.6c0,0.2-0.1,0.4-0.2,0.6
		s-0.3,0.3-0.5,0.4c-0.2,0.1-0.5,0.2-0.7,0.2C182.5,56.3,182.3,56.2,182.1,56.1z"/>
	<path class="st1" d="M187.8,54.9h-2.4c0,0.3,0.1,0.5,0.3,0.6c0.2,0.2,0.4,0.2,0.6,0.2c0.4,0,0.6-0.1,0.7-0.4h0.7
		c-0.1,0.3-0.3,0.5-0.5,0.7c-0.3,0.2-0.6,0.3-0.9,0.3c-0.3,0-0.6-0.1-0.8-0.2c-0.2-0.1-0.4-0.3-0.6-0.6c-0.1-0.2-0.2-0.5-0.2-0.9
		c0-0.3,0.1-0.6,0.2-0.9c0.1-0.2,0.3-0.4,0.6-0.6c0.2-0.1,0.5-0.2,0.8-0.2c0.3,0,0.6,0.1,0.8,0.2c0.2,0.1,0.4,0.3,0.5,0.5
		c0.1,0.2,0.2,0.5,0.2,0.8C187.8,54.7,187.8,54.8,187.8,54.9z M187.1,54.4c0-0.2-0.1-0.4-0.3-0.6c-0.2-0.1-0.4-0.2-0.6-0.2
		c-0.2,0-0.4,0.1-0.6,0.2s-0.3,0.3-0.3,0.6H187.1z"/>
	<path class="st1" d="M188.4,53.8c0.1-0.2,0.3-0.4,0.5-0.6c0.2-0.1,0.5-0.2,0.8-0.2c0.4,0,0.7,0.1,0.9,0.3s0.4,0.4,0.5,0.8h-0.7
		c-0.1-0.2-0.1-0.3-0.3-0.4c-0.1-0.1-0.3-0.1-0.5-0.1c-0.3,0-0.5,0.1-0.6,0.3c-0.2,0.2-0.2,0.5-0.2,0.8c0,0.3,0.1,0.6,0.2,0.8
		c0.2,0.2,0.4,0.3,0.6,0.3c0.4,0,0.6-0.2,0.8-0.5h0.7c-0.1,0.3-0.3,0.6-0.5,0.8c-0.3,0.2-0.6,0.3-0.9,0.3c-0.3,0-0.6-0.1-0.8-0.2
		c-0.2-0.1-0.4-0.3-0.5-0.6c-0.1-0.2-0.2-0.5-0.2-0.9C188.2,54.3,188.3,54.1,188.4,53.8z"/>
	<path class="st1" d="M194.8,53.1v3.2h-0.7v-0.4c-0.1,0.1-0.2,0.2-0.4,0.3c-0.2,0.1-0.3,0.1-0.5,0.1c-0.2,0-0.5-0.1-0.7-0.2
		c-0.2-0.1-0.4-0.3-0.5-0.5c-0.1-0.2-0.2-0.4-0.2-0.7v-1.9h0.6v1.8c0,0.3,0.1,0.5,0.2,0.7c0.1,0.2,0.3,0.2,0.6,0.2s0.4-0.1,0.6-0.2
		c0.1-0.2,0.2-0.4,0.2-0.7v-1.8H194.8z"/>
	<path class="st1" d="M196.7,53.2c0.2-0.1,0.3-0.1,0.6-0.1v0.7h-0.2c-0.3,0-0.5,0.1-0.6,0.2s-0.2,0.4-0.2,0.7v1.7h-0.7v-3.2h0.7v0.5
		C196.4,53.4,196.5,53.3,196.7,53.2z"/>
	<path class="st1" d="M200.7,54.9h-2.4c0,0.3,0.1,0.5,0.3,0.6c0.2,0.2,0.4,0.2,0.6,0.2c0.4,0,0.6-0.1,0.7-0.4h0.7
		c-0.1,0.3-0.3,0.5-0.5,0.7c-0.3,0.2-0.6,0.3-0.9,0.3c-0.3,0-0.6-0.1-0.8-0.2c-0.2-0.1-0.4-0.3-0.6-0.6c-0.1-0.2-0.2-0.5-0.2-0.9
		c0-0.3,0.1-0.6,0.2-0.9c0.1-0.2,0.3-0.4,0.6-0.6c0.2-0.1,0.5-0.2,0.8-0.2c0.3,0,0.6,0.1,0.8,0.2c0.2,0.1,0.4,0.3,0.5,0.5
		c0.1,0.2,0.2,0.5,0.2,0.8C200.7,54.7,200.7,54.8,200.7,54.9z M200,54.4c0-0.2-0.1-0.4-0.3-0.6c-0.2-0.1-0.4-0.2-0.6-0.2
		c-0.2,0-0.4,0.1-0.6,0.2s-0.3,0.3-0.3,0.6H200z"/>
	<path class="st1" d="M205.3,52.5c0.3,0.2,0.6,0.4,0.7,0.7c0.2,0.3,0.3,0.7,0.3,1.1c0,0.4-0.1,0.8-0.3,1.1c-0.2,0.3-0.4,0.5-0.7,0.7
		c-0.3,0.2-0.7,0.2-1.1,0.2h-1.3v-4h1.3C204.6,52.3,205,52.3,205.3,52.5z M205.2,55.3c0.2-0.3,0.4-0.6,0.4-1.1
		c0-0.5-0.1-0.8-0.4-1.1s-0.6-0.4-1.1-0.4h-0.6v2.9h0.6C204.6,55.7,205,55.6,205.2,55.3z"/>
	<path class="st1" d="M209.8,54.9h-2.4c0,0.3,0.1,0.5,0.3,0.6c0.2,0.2,0.4,0.2,0.6,0.2c0.4,0,0.6-0.1,0.7-0.4h0.7
		c-0.1,0.3-0.3,0.5-0.5,0.7c-0.3,0.2-0.6,0.3-0.9,0.3c-0.3,0-0.6-0.1-0.8-0.2c-0.2-0.1-0.4-0.3-0.6-0.6c-0.1-0.2-0.2-0.5-0.2-0.9
		c0-0.3,0.1-0.6,0.2-0.9c0.1-0.2,0.3-0.4,0.6-0.6c0.2-0.1,0.5-0.2,0.8-0.2c0.3,0,0.6,0.1,0.8,0.2c0.2,0.1,0.4,0.3,0.5,0.5
		c0.1,0.2,0.2,0.5,0.2,0.8C209.8,54.7,209.8,54.8,209.8,54.9z M209.1,54.4c0-0.2-0.1-0.4-0.3-0.6c-0.2-0.1-0.4-0.2-0.6-0.2
		c-0.2,0-0.4,0.1-0.6,0.2s-0.3,0.3-0.3,0.6H209.1z"/>
	<path class="st1" d="M211.1,52v4.2h-0.7V52H211.1z"/>
	<path class="st1" d="M212,52.5c-0.1-0.1-0.1-0.2-0.1-0.3s0-0.2,0.1-0.3c0.1-0.1,0.2-0.1,0.3-0.1c0.1,0,0.2,0,0.3,0.1
		c0.1,0.1,0.1,0.2,0.1,0.3s0,0.2-0.1,0.3c-0.1,0.1-0.2,0.1-0.3,0.1C212.2,52.7,212.1,52.6,212,52.5z M212.6,53.1v3.2H212v-3.2H212.6
		z"/>
	<path class="st1" d="M214.7,55.7l0.9-2.6h0.7l-1.2,3.2h-0.8l-1.2-3.2h0.7L214.7,55.7z"/>
	<path class="st1" d="M219.7,54.9h-2.4c0,0.3,0.1,0.5,0.3,0.6c0.2,0.2,0.4,0.2,0.6,0.2c0.4,0,0.6-0.1,0.7-0.4h0.7
		c-0.1,0.3-0.3,0.5-0.5,0.7c-0.3,0.2-0.6,0.3-0.9,0.3c-0.3,0-0.6-0.1-0.8-0.2c-0.2-0.1-0.4-0.3-0.6-0.6c-0.1-0.2-0.2-0.5-0.2-0.9
		c0-0.3,0.1-0.6,0.2-0.9c0.1-0.2,0.3-0.4,0.6-0.6c0.2-0.1,0.5-0.2,0.8-0.2c0.3,0,0.6,0.1,0.8,0.2c0.2,0.1,0.4,0.3,0.5,0.5
		c0.1,0.2,0.2,0.5,0.2,0.8C219.7,54.7,219.7,54.8,219.7,54.9z M219,54.4c0-0.2-0.1-0.4-0.3-0.6c-0.2-0.1-0.4-0.2-0.6-0.2
		c-0.2,0-0.4,0.1-0.6,0.2s-0.3,0.3-0.3,0.6H219z"/>
	<path class="st1" d="M221.4,53.2c0.2-0.1,0.3-0.1,0.6-0.1v0.7h-0.2c-0.3,0-0.5,0.1-0.6,0.2s-0.2,0.4-0.2,0.7v1.7h-0.7v-3.2h0.7v0.5
		C221.1,53.4,221.2,53.3,221.4,53.2z"/>
	<path class="st1" d="M225.4,53.1l-1.9,4.6h-0.7l0.6-1.5l-1.2-3.1h0.7l0.9,2.4l0.9-2.4H225.4z"/>
</g>
<g>
	<path class="st1" d="M313,45.4v0.5h-1.7v1.2h1.3v0.5h-1.3v1.7h-0.7v-4H313z"/>
	<path class="st1" d="M314.6,46.3c0.2-0.1,0.3-0.1,0.6-0.1v0.7H315c-0.3,0-0.5,0.1-0.6,0.2s-0.2,0.4-0.2,0.7v1.7h-0.7v-3.2h0.7v0.5
		C314.3,46.5,314.5,46.4,314.6,46.3z"/>
	<path class="st1" d="M318.7,48h-2.4c0,0.3,0.1,0.5,0.3,0.6c0.2,0.2,0.4,0.2,0.6,0.2c0.4,0,0.6-0.1,0.7-0.4h0.7
		c-0.1,0.3-0.3,0.5-0.5,0.7c-0.3,0.2-0.6,0.3-0.9,0.3c-0.3,0-0.6-0.1-0.8-0.2c-0.2-0.1-0.4-0.3-0.6-0.6c-0.1-0.2-0.2-0.5-0.2-0.9
		c0-0.3,0.1-0.6,0.2-0.9c0.1-0.2,0.3-0.4,0.6-0.6c0.2-0.1,0.5-0.2,0.8-0.2c0.3,0,0.6,0.1,0.8,0.2s0.4,0.3,0.5,0.5
		c0.1,0.2,0.2,0.5,0.2,0.8C318.7,47.8,318.7,47.9,318.7,48z M318,47.5c0-0.2-0.1-0.4-0.3-0.6c-0.2-0.1-0.4-0.2-0.6-0.2
		c-0.2,0-0.4,0.1-0.6,0.2c-0.2,0.1-0.3,0.3-0.3,0.6H318z"/>
	<path class="st1" d="M322.2,48h-2.4c0,0.3,0.1,0.5,0.3,0.6c0.2,0.2,0.4,0.2,0.6,0.2c0.4,0,0.6-0.1,0.7-0.4h0.7
		c-0.1,0.3-0.3,0.5-0.5,0.7c-0.3,0.2-0.6,0.3-0.9,0.3c-0.3,0-0.6-0.1-0.8-0.2c-0.2-0.1-0.4-0.3-0.6-0.6c-0.1-0.2-0.2-0.5-0.2-0.9
		c0-0.3,0.1-0.6,0.2-0.9c0.1-0.2,0.3-0.4,0.6-0.6c0.2-0.1,0.5-0.2,0.8-0.2c0.3,0,0.6,0.1,0.8,0.2s0.4,0.3,0.5,0.5
		c0.1,0.2,0.2,0.5,0.2,0.8C322.2,47.8,322.2,47.9,322.2,48z M321.5,47.5c0-0.2-0.1-0.4-0.3-0.6c-0.2-0.1-0.4-0.2-0.6-0.2
		c-0.2,0-0.4,0.1-0.6,0.2c-0.2,0.1-0.3,0.3-0.3,0.6H321.5z"/>
	<path class="st1" d="M304.5,56.1c-0.2-0.1-0.4-0.2-0.5-0.4c-0.1-0.2-0.2-0.4-0.2-0.6h0.7c0,0.2,0.1,0.3,0.2,0.4
		c0.1,0.1,0.3,0.2,0.5,0.2c0.2,0,0.4-0.1,0.5-0.2c0.1-0.1,0.2-0.2,0.2-0.4c0-0.1,0-0.2-0.1-0.3c-0.1-0.1-0.2-0.1-0.3-0.2
		s-0.3-0.1-0.5-0.1c-0.3-0.1-0.5-0.1-0.6-0.2c-0.2-0.1-0.3-0.2-0.4-0.3c-0.1-0.1-0.2-0.3-0.2-0.6c0-0.2,0.1-0.4,0.2-0.6
		s0.3-0.3,0.5-0.4s0.4-0.1,0.7-0.1c0.4,0,0.7,0.1,0.9,0.3c0.2,0.2,0.4,0.5,0.4,0.8h-0.7c0-0.1-0.1-0.3-0.2-0.4
		c-0.1-0.1-0.3-0.2-0.5-0.2c-0.2,0-0.3,0-0.5,0.1c-0.1,0.1-0.2,0.2-0.2,0.4c0,0.1,0,0.2,0.1,0.3c0.1,0.1,0.2,0.1,0.3,0.2
		s0.3,0.1,0.5,0.1c0.3,0.1,0.5,0.1,0.6,0.2c0.2,0.1,0.3,0.2,0.4,0.3c0.1,0.2,0.2,0.4,0.2,0.6c0,0.2-0.1,0.4-0.2,0.6
		s-0.3,0.3-0.5,0.4c-0.2,0.1-0.5,0.2-0.7,0.2C305,56.3,304.7,56.2,304.5,56.1z"/>
	<path class="st1" d="M309.7,53.2c0.2,0.1,0.3,0.3,0.4,0.5c0.1,0.2,0.2,0.4,0.2,0.7v1.9h-0.6v-1.8c0-0.3-0.1-0.5-0.2-0.7
		c-0.1-0.2-0.3-0.2-0.6-0.2s-0.4,0.1-0.6,0.2c-0.1,0.2-0.2,0.4-0.2,0.7v1.8h-0.7V52h0.7v1.5c0.1-0.1,0.3-0.2,0.4-0.3
		c0.2-0.1,0.4-0.1,0.6-0.1C309.3,53,309.5,53.1,309.7,53.2z"/>
	<path class="st1" d="M311.2,52.5c-0.1-0.1-0.1-0.2-0.1-0.3s0-0.2,0.1-0.3c0.1-0.1,0.2-0.1,0.3-0.1c0.1,0,0.2,0,0.3,0.1
		c0.1,0.1,0.1,0.2,0.1,0.3s0,0.2-0.1,0.3c-0.1,0.1-0.2,0.1-0.3,0.1C311.3,52.7,311.2,52.6,311.2,52.5z M311.8,53.1v3.2h-0.7v-3.2
		H311.8z"/>
	<path class="st1" d="M313.7,53.2c0.2-0.1,0.4-0.1,0.6-0.1c0.3,0,0.5,0.1,0.8,0.2c0.2,0.1,0.4,0.3,0.5,0.6c0.1,0.2,0.2,0.5,0.2,0.8
		s-0.1,0.6-0.2,0.9c-0.1,0.3-0.3,0.4-0.5,0.6c-0.2,0.1-0.5,0.2-0.8,0.2c-0.2,0-0.5,0-0.6-0.1c-0.2-0.1-0.3-0.2-0.5-0.4v2h-0.7v-4.7
		h0.7v0.5C313.4,53.4,313.6,53.3,313.7,53.2z M315.1,54.1c-0.1-0.2-0.2-0.3-0.4-0.4c-0.1-0.1-0.3-0.1-0.5-0.1c-0.2,0-0.3,0-0.5,0.1
		c-0.1,0.1-0.3,0.2-0.4,0.4c-0.1,0.2-0.1,0.3-0.1,0.6c0,0.2,0,0.4,0.1,0.6c0.1,0.2,0.2,0.3,0.4,0.4c0.1,0.1,0.3,0.1,0.5,0.1
		c0.2,0,0.3,0,0.5-0.1c0.1-0.1,0.3-0.2,0.4-0.4s0.1-0.4,0.1-0.6S315.2,54.2,315.1,54.1z"/>
	<path class="st1" d="M317.6,53.2c0.2-0.1,0.4-0.1,0.6-0.1c0.3,0,0.5,0.1,0.8,0.2s0.4,0.3,0.5,0.6c0.1,0.2,0.2,0.5,0.2,0.8
		s-0.1,0.6-0.2,0.9c-0.1,0.3-0.3,0.4-0.5,0.6c-0.2,0.1-0.5,0.2-0.8,0.2c-0.2,0-0.5,0-0.6-0.1c-0.2-0.1-0.3-0.2-0.5-0.4v2h-0.7v-4.7
		h0.7v0.5C317.3,53.4,317.4,53.3,317.6,53.2z M319,54.1c-0.1-0.2-0.2-0.3-0.4-0.4c-0.1-0.1-0.3-0.1-0.5-0.1c-0.2,0-0.3,0-0.5,0.1
		c-0.1,0.1-0.3,0.2-0.4,0.4c-0.1,0.2-0.1,0.3-0.1,0.6c0,0.2,0,0.4,0.1,0.6c0.1,0.2,0.2,0.3,0.4,0.4c0.1,0.1,0.3,0.1,0.5,0.1
		c0.2,0,0.3,0,0.5-0.1c0.1-0.1,0.3-0.2,0.4-0.4s0.1-0.4,0.1-0.6S319.1,54.2,319,54.1z"/>
	<path class="st1" d="M320.5,52.5c-0.1-0.1-0.1-0.2-0.1-0.3s0-0.2,0.1-0.3c0.1-0.1,0.2-0.1,0.3-0.1c0.1,0,0.2,0,0.3,0.1
		c0.1,0.1,0.1,0.2,0.1,0.3s0,0.2-0.1,0.3s-0.2,0.1-0.3,0.1C320.6,52.7,320.5,52.6,320.5,52.5z M321.1,53.1v3.2h-0.7v-3.2H321.1z"/>
	<path class="st1" d="M324.2,53.2c0.2,0.1,0.4,0.3,0.5,0.5c0.1,0.2,0.2,0.4,0.2,0.7v1.9h-0.6v-1.8c0-0.3-0.1-0.5-0.2-0.7
		c-0.1-0.2-0.3-0.2-0.6-0.2c-0.2,0-0.4,0.1-0.6,0.2c-0.1,0.2-0.2,0.4-0.2,0.7v1.8h-0.7v-3.2h0.7v0.4c0.1-0.1,0.2-0.2,0.4-0.3
		c0.2-0.1,0.3-0.1,0.5-0.1C323.8,53,324,53.1,324.2,53.2z"/>
	<path class="st1" d="M327.6,53.2c0.2,0.1,0.3,0.2,0.4,0.4v-0.5h0.7v3.2c0,0.3-0.1,0.5-0.2,0.8c-0.1,0.2-0.3,0.4-0.5,0.5
		s-0.5,0.2-0.8,0.2c-0.4,0-0.8-0.1-1.1-0.3c-0.3-0.2-0.4-0.5-0.5-0.8h0.6c0,0.2,0.2,0.3,0.3,0.4s0.4,0.2,0.6,0.2
		c0.3,0,0.5-0.1,0.6-0.2c0.2-0.2,0.2-0.4,0.2-0.7v-0.5c-0.1,0.1-0.3,0.3-0.5,0.4c-0.2,0.1-0.4,0.2-0.6,0.2c-0.3,0-0.5-0.1-0.8-0.2
		c-0.2-0.1-0.4-0.3-0.5-0.6c-0.1-0.3-0.2-0.5-0.2-0.9s0.1-0.6,0.2-0.8c0.1-0.2,0.3-0.4,0.5-0.6c0.2-0.1,0.5-0.2,0.8-0.2
		C327.2,53,327.4,53.1,327.6,53.2z M327.9,54.1c-0.1-0.2-0.2-0.3-0.4-0.4s-0.3-0.1-0.5-0.1c-0.2,0-0.3,0-0.5,0.1s-0.3,0.2-0.4,0.4
		c-0.1,0.2-0.1,0.3-0.1,0.6s0,0.4,0.1,0.6s0.2,0.3,0.4,0.4c0.1,0.1,0.3,0.1,0.5,0.1c0.2,0,0.3,0,0.5-0.1c0.1-0.1,0.3-0.2,0.4-0.4
		c0.1-0.2,0.1-0.4,0.1-0.6C328,54.4,328,54.3,327.9,54.1z"/>
</g>
<g>
	<path class="st1" d="M417.5,46.3c0.2-0.3,0.4-0.6,0.7-0.7s0.7-0.3,1-0.3c0.4,0,0.8,0.1,1.1,0.3c0.3,0.2,0.6,0.5,0.7,0.9h-0.8
		c-0.1-0.2-0.2-0.4-0.4-0.5c-0.2-0.1-0.4-0.2-0.6-0.2c-0.3,0-0.5,0.1-0.7,0.2c-0.2,0.1-0.4,0.3-0.5,0.5c-0.1,0.2-0.2,0.5-0.2,0.8
		s0.1,0.6,0.2,0.8c0.1,0.2,0.3,0.4,0.5,0.5c0.2,0.1,0.4,0.2,0.7,0.2c0.2,0,0.5-0.1,0.6-0.2c0.2-0.1,0.3-0.3,0.4-0.5h0.8
		c-0.1,0.4-0.4,0.7-0.7,0.9c-0.3,0.2-0.7,0.3-1.1,0.3c-0.4,0-0.7-0.1-1-0.3s-0.6-0.4-0.7-0.7s-0.3-0.7-0.3-1S417.4,46.6,417.5,46.3z
		"/>
	<path class="st1" d="M424.8,48h-2.4c0,0.3,0.1,0.5,0.3,0.6c0.2,0.2,0.4,0.2,0.6,0.2c0.4,0,0.6-0.1,0.7-0.4h0.7
		c-0.1,0.3-0.3,0.5-0.5,0.7c-0.3,0.2-0.6,0.3-0.9,0.3c-0.3,0-0.6-0.1-0.8-0.2c-0.2-0.1-0.4-0.3-0.6-0.6c-0.1-0.2-0.2-0.5-0.2-0.9
		c0-0.3,0.1-0.6,0.2-0.9c0.1-0.2,0.3-0.4,0.6-0.6c0.2-0.1,0.5-0.2,0.8-0.2c0.3,0,0.6,0.1,0.8,0.2s0.4,0.3,0.5,0.5
		c0.1,0.2,0.2,0.5,0.2,0.8C424.8,47.8,424.8,47.9,424.8,48z M424.1,47.5c0-0.2-0.1-0.4-0.3-0.6c-0.2-0.1-0.4-0.2-0.6-0.2
		c-0.2,0-0.4,0.1-0.6,0.2c-0.2,0.1-0.3,0.3-0.3,0.6H424.1z"/>
	<path class="st1" d="M426.5,46.3c0.2-0.1,0.3-0.1,0.6-0.1v0.7h-0.2c-0.3,0-0.5,0.1-0.6,0.2s-0.2,0.4-0.2,0.7v1.7h-0.7v-3.2h0.7v0.5
		C426.2,46.5,426.3,46.4,426.5,46.3z"/>
	<path class="st1" d="M428.4,46.7v1.7c0,0.1,0,0.2,0.1,0.3c0.1,0.1,0.2,0.1,0.3,0.1h0.4v0.5h-0.5c-0.3,0-0.5-0.1-0.7-0.2
		c-0.2-0.1-0.2-0.4-0.2-0.7v-1.7h-0.4v-0.5h0.4v-0.8h0.7v0.8h0.8v0.5H428.4z"/>
	<path class="st1" d="M429.8,45.7c-0.1-0.1-0.1-0.2-0.1-0.3s0-0.2,0.1-0.3c0.1-0.1,0.2-0.1,0.3-0.1c0.1,0,0.2,0,0.3,0.1
		c0.1,0.1,0.1,0.2,0.1,0.3s0,0.2-0.1,0.3s-0.2,0.1-0.3,0.1C430,45.8,429.9,45.7,429.8,45.7z M430.4,46.2v3.2h-0.7v-3.2H430.4z"/>
	<path class="st1" d="M432,46.2h1.8v3.2h-0.7v-2.6H432v2.6h-0.7v-2.6H431v-0.5h0.4V46c0-0.4,0.1-0.6,0.3-0.8s0.5-0.2,0.9-0.2v0.5
		c-0.2,0-0.3,0-0.4,0.1c-0.1,0.1-0.1,0.2-0.1,0.4V46.2z M433.2,45.7c-0.1-0.1-0.1-0.2-0.1-0.3s0-0.2,0.1-0.3
		c0.1-0.1,0.2-0.1,0.3-0.1c0.1,0,0.2,0,0.3,0.1c0.1,0.1,0.1,0.2,0.1,0.3s0,0.2-0.1,0.3c-0.1,0.1-0.2,0.1-0.3,0.1
		C433.4,45.8,433.3,45.7,433.2,45.7z"/>
	<path class="st1" d="M437.6,48h-2.4c0,0.3,0.1,0.5,0.3,0.6c0.2,0.2,0.4,0.2,0.6,0.2c0.4,0,0.6-0.1,0.7-0.4h0.7
		c-0.1,0.3-0.3,0.5-0.5,0.7c-0.3,0.2-0.6,0.3-0.9,0.3c-0.3,0-0.6-0.1-0.8-0.2c-0.2-0.1-0.4-0.3-0.6-0.6c-0.1-0.2-0.2-0.5-0.2-0.9
		c0-0.3,0.1-0.6,0.2-0.9c0.1-0.2,0.3-0.4,0.6-0.6c0.2-0.1,0.5-0.2,0.8-0.2c0.3,0,0.6,0.1,0.8,0.2s0.4,0.3,0.5,0.5
		c0.1,0.2,0.2,0.5,0.2,0.8C437.6,47.8,437.6,47.9,437.6,48z M436.9,47.5c0-0.2-0.1-0.4-0.3-0.6c-0.2-0.1-0.4-0.2-0.6-0.2
		c-0.2,0-0.4,0.1-0.6,0.2c-0.2,0.1-0.3,0.3-0.3,0.6H436.9z"/>
	<path class="st1" d="M438.2,46.9c0.1-0.2,0.3-0.4,0.5-0.6c0.2-0.1,0.5-0.2,0.8-0.2c0.2,0,0.4,0,0.6,0.1c0.2,0.1,0.4,0.2,0.5,0.4
		v-1.5h0.7v4.2h-0.7v-0.5c-0.1,0.2-0.3,0.3-0.4,0.4s-0.4,0.1-0.7,0.1c-0.3,0-0.5-0.1-0.8-0.2c-0.2-0.1-0.4-0.3-0.5-0.6
		c-0.1-0.3-0.2-0.5-0.2-0.9S438.1,47.2,438.2,46.9z M440.5,47.2c-0.1-0.2-0.2-0.3-0.4-0.4s-0.3-0.1-0.5-0.1c-0.2,0-0.3,0-0.5,0.1
		s-0.3,0.2-0.4,0.4c-0.1,0.2-0.1,0.3-0.1,0.6s0,0.4,0.1,0.6s0.2,0.3,0.4,0.4c0.1,0.1,0.3,0.1,0.5,0.1c0.2,0,0.3,0,0.5-0.1
		c0.1-0.1,0.3-0.2,0.4-0.4c0.1-0.2,0.1-0.4,0.1-0.6C440.6,47.6,440.6,47.4,440.5,47.2z"/>
	<path class="st1" d="M417.4,52.5c0.3,0.2,0.6,0.4,0.7,0.7c0.2,0.3,0.3,0.7,0.3,1.1c0,0.4-0.1,0.8-0.3,1.1c-0.2,0.3-0.4,0.5-0.7,0.7
		c-0.3,0.2-0.7,0.2-1.1,0.2h-1.3v-4h1.3C416.7,52.3,417,52.3,417.4,52.5z M417.3,55.3c0.2-0.3,0.4-0.6,0.4-1.1
		c0-0.5-0.1-0.8-0.4-1.1c-0.2-0.3-0.6-0.4-1.1-0.4h-0.6v2.9h0.6C416.7,55.7,417.1,55.6,417.3,55.3z"/>
	<path class="st1" d="M419,52.5c-0.1-0.1-0.1-0.2-0.1-0.3s0-0.2,0.1-0.3c0.1-0.1,0.2-0.1,0.3-0.1c0.1,0,0.2,0,0.3,0.1
		c0.1,0.1,0.1,0.2,0.1,0.3s0,0.2-0.1,0.3s-0.2,0.1-0.3,0.1C419.2,52.7,419.1,52.6,419,52.5z M419.7,53.1v3.2H419v-3.2H419.7z"/>
	<path class="st1" d="M420.5,53.8c0.1-0.2,0.3-0.4,0.5-0.6c0.2-0.1,0.5-0.2,0.8-0.2c0.2,0,0.5,0,0.7,0.1s0.3,0.2,0.4,0.4v-0.5h0.7
		v3.2h-0.7v-0.5c-0.1,0.1-0.3,0.3-0.5,0.4c-0.2,0.1-0.4,0.1-0.7,0.1c-0.3,0-0.5-0.1-0.7-0.2c-0.2-0.1-0.4-0.3-0.5-0.6
		c-0.1-0.3-0.2-0.5-0.2-0.9S420.4,54.1,420.5,53.8z M422.8,54.1c-0.1-0.2-0.2-0.3-0.4-0.4s-0.3-0.1-0.5-0.1c-0.2,0-0.3,0-0.5,0.1
		s-0.3,0.2-0.4,0.4c-0.1,0.2-0.1,0.3-0.1,0.6s0,0.4,0.1,0.6s0.2,0.3,0.4,0.4c0.1,0.1,0.3,0.1,0.5,0.1c0.2,0,0.3,0,0.5-0.1
		c0.1-0.1,0.3-0.2,0.4-0.4c0.1-0.2,0.1-0.4,0.1-0.6C422.9,54.4,422.8,54.3,422.8,54.1z"/>
	<path class="st1" d="M428.9,53.2c0.2,0.1,0.4,0.3,0.5,0.5c0.1,0.2,0.2,0.4,0.2,0.7v1.9h-0.6v-1.8c0-0.3-0.1-0.5-0.2-0.7
		c-0.1-0.2-0.3-0.2-0.6-0.2c-0.2,0-0.4,0.1-0.6,0.2c-0.1,0.2-0.2,0.4-0.2,0.7v1.8h-0.6v-1.8c0-0.3-0.1-0.5-0.2-0.7
		c-0.1-0.2-0.3-0.2-0.6-0.2c-0.2,0-0.4,0.1-0.6,0.2c-0.1,0.2-0.2,0.4-0.2,0.7v1.8h-0.7v-3.2h0.7v0.4c0.1-0.1,0.2-0.2,0.4-0.3
		c0.2-0.1,0.3-0.1,0.5-0.1c0.3,0,0.5,0.1,0.7,0.2c0.2,0.1,0.4,0.3,0.5,0.5c0.1-0.2,0.2-0.3,0.4-0.5c0.2-0.1,0.4-0.2,0.7-0.2
		C428.5,53,428.7,53.1,428.9,53.2z"/>
	<path class="st1" d="M430.9,56.1c-0.2-0.1-0.4-0.3-0.6-0.6c-0.1-0.2-0.2-0.5-0.2-0.9c0-0.3,0.1-0.6,0.2-0.9
		c0.1-0.2,0.3-0.4,0.6-0.6c0.2-0.1,0.5-0.2,0.8-0.2s0.6,0.1,0.8,0.2c0.2,0.1,0.4,0.3,0.6,0.6c0.1,0.2,0.2,0.5,0.2,0.9
		c0,0.3-0.1,0.6-0.2,0.9c-0.1,0.2-0.3,0.4-0.6,0.6c-0.3,0.1-0.5,0.2-0.8,0.2C431.4,56.3,431.2,56.2,430.9,56.1z M432.2,55.6
		c0.1-0.1,0.3-0.2,0.4-0.4c0.1-0.2,0.1-0.4,0.1-0.6c0-0.2,0-0.4-0.1-0.6c-0.1-0.2-0.2-0.3-0.3-0.4c-0.1-0.1-0.3-0.1-0.5-0.1
		s-0.3,0-0.5,0.1c-0.1,0.1-0.3,0.2-0.3,0.4c-0.1,0.2-0.1,0.4-0.1,0.6c0,0.3,0.1,0.6,0.3,0.8s0.4,0.3,0.7,0.3
		C431.9,55.7,432.1,55.7,432.2,55.6z"/>
	<path class="st1" d="M436.3,53.2c0.2,0.1,0.4,0.3,0.5,0.5c0.1,0.2,0.2,0.4,0.2,0.7v1.9h-0.6v-1.8c0-0.3-0.1-0.5-0.2-0.7
		c-0.1-0.2-0.3-0.2-0.6-0.2c-0.2,0-0.4,0.1-0.6,0.2c-0.1,0.2-0.2,0.4-0.2,0.7v1.8H434v-3.2h0.7v0.4c0.1-0.1,0.2-0.2,0.4-0.3
		c0.2-0.1,0.3-0.1,0.5-0.1C435.9,53,436.1,53.1,436.3,53.2z"/>
	<path class="st1" d="M437.7,53.8c0.1-0.2,0.3-0.4,0.5-0.6c0.2-0.1,0.5-0.2,0.8-0.2c0.2,0,0.4,0,0.6,0.1c0.2,0.1,0.4,0.2,0.5,0.4V52
		h0.7v4.2h-0.7v-0.5c-0.1,0.2-0.3,0.3-0.4,0.4s-0.4,0.1-0.7,0.1c-0.3,0-0.5-0.1-0.8-0.2c-0.2-0.1-0.4-0.3-0.5-0.6
		c-0.1-0.3-0.2-0.5-0.2-0.9S437.6,54.1,437.7,53.8z M440,54.1c-0.1-0.2-0.2-0.3-0.4-0.4s-0.3-0.1-0.5-0.1c-0.2,0-0.3,0-0.5,0.1
		s-0.3,0.2-0.4,0.4c-0.1,0.2-0.1,0.3-0.1,0.6s0,0.4,0.1,0.6s0.2,0.3,0.4,0.4c0.1,0.1,0.3,0.1,0.5,0.1c0.2,0,0.3,0,0.5-0.1
		c0.1-0.1,0.3-0.2,0.4-0.4c0.1-0.2,0.1-0.4,0.1-0.6C440.1,54.4,440.1,54.3,440,54.1z"/>
	<path class="st1" d="M442.1,56.2c-0.2-0.1-0.4-0.2-0.5-0.4c-0.1-0.2-0.2-0.3-0.2-0.5h0.7c0,0.1,0.1,0.2,0.2,0.3
		c0.1,0.1,0.3,0.1,0.4,0.1c0.2,0,0.3,0,0.4-0.1c0.1-0.1,0.2-0.2,0.2-0.3c0-0.1-0.1-0.2-0.2-0.3c-0.1-0.1-0.3-0.1-0.5-0.2
		c-0.2-0.1-0.4-0.1-0.6-0.2c-0.1-0.1-0.3-0.2-0.4-0.3c-0.1-0.1-0.2-0.3-0.2-0.5c0-0.2,0-0.3,0.1-0.5c0.1-0.1,0.2-0.2,0.4-0.3
		c0.2-0.1,0.4-0.1,0.6-0.1c0.4,0,0.6,0.1,0.9,0.3s0.3,0.4,0.4,0.7h-0.7c0-0.1-0.1-0.3-0.2-0.3s-0.2-0.1-0.4-0.1
		c-0.2,0-0.3,0-0.4,0.1c-0.1,0.1-0.1,0.2-0.1,0.3c0,0.1,0,0.2,0.1,0.2s0.1,0.1,0.2,0.1s0.2,0.1,0.4,0.1c0.2,0.1,0.4,0.1,0.6,0.2
		c0.1,0.1,0.3,0.2,0.4,0.3s0.2,0.3,0.2,0.5c0,0.2,0,0.3-0.1,0.5c-0.1,0.1-0.2,0.3-0.4,0.3c-0.2,0.1-0.4,0.1-0.6,0.1
		C442.5,56.3,442.3,56.3,442.1,56.2z"/>
</g>
<text transform="matrix(1 0 0 1 187.6011 -20.7933)"><tspan x="0" y="0" class="st1" style="font-family:'Poppins-Medium'; font-size:6.0383px;">Safe &amp;</tspan><tspan x="-13.6" y="7.2" class="st1" style="font-family:'Poppins-Medium'; font-size:6.0383px;">Secure Delivery</tspan></text>
<text transform="matrix(1 0 0 1 310.0649 -20.7933)"><tspan x="0" y="0" class="st1" style="font-family:'Poppins-Medium'; font-size:6.0383px;">Free</tspan><tspan x="-7" y="7.2" class="st1" style="font-family:'Poppins-Medium'; font-size:6.0383px;">Shipping</tspan></text>
<text transform="matrix(1 0 0 1 422.6055 -20.7933)"><tspan x="0" y="0" class="st1" style="font-family:'Poppins-Medium'; font-size:6.0383px;">Certifed</tspan><tspan x="-2.7" y="7.2" class="st1" style="font-family:'Poppins-Medium'; font-size:6.0383px;">Diamonds</tspan></text>
<g>
	<path class="st2" d="M203.1,36.5c-0.1,0-0.3,0-0.4,0l0,0c-1.3-0.4-2.5-1.1-3.6-2.1c-1.1-1-2-2.2-2.6-3.5c-1.1-2.4-1.1-4.9-1-7.9
		c0-0.2,0-0.4,0-0.6v0c0-0.4,0.3-0.7,0.6-0.7l0,0c2.4-0.2,4.7-1.1,6.3-2.5l0,0c0.3-0.2,0.7-0.2,0.9,0v0c1.6,1.4,3.9,2.3,6.3,2.5l0,0
		c0.4,0,0.6,0.3,0.6,0.7v0c0,0.2,0,0.4,0,0.6l0,0c0,3,0.1,5.5-1,7.9c-0.6,1.4-1.5,2.6-2.6,3.5C205.6,35.4,204.4,36.1,203.1,36.5
		L203.1,36.5z M196.3,22.5l0,0.1c0,0.2,0,0.4,0,0.6c0,2.8-0.1,5.2,0.9,7.3c0.6,1.2,1.4,2.3,2.4,3.2c1,0.9,2.1,1.5,3.2,1.9l0,0l0,0
		c1.1-0.3,2.3-1,3.2-1.9c1-0.9,1.8-2,2.4-3.2c1-2.2,1-4.5,0.9-7.3l0,0c0-0.2,0-0.4,0-0.5l0-0.1l-0.1,0c-2.4-0.2-4.7-1.1-6.4-2.5
		l-0.1-0.1l-0.1,0.1c-1.6,1.4-4,2.3-6.4,2.5L196.3,22.5z"/>
	<path class="st2" d="M202.1,30.1L202.1,30.1c-0.1,0-0.2,0-0.2-0.1l-1.8-2.1c-0.1-0.1-0.1-0.3,0-0.5c0.1-0.1,0.3-0.1,0.5,0l1.6,1.8
		l3.3-3.7c0.1-0.1,0.3-0.2,0.5,0c0.1,0.1,0.2,0.3,0,0.5l-3.5,4C202.2,30,202.1,30.1,202.1,30.1z"/>
</g>
<path class="st3" d="M318.4,36.4h-12.8c-0.8,0-1.4-0.6-1.4-1.4v-9.1c0-0.8,0.6-1.4,1.4-1.4h12.8c0.8,0,1.4,0.6,1.4,1.4v9.1
	C319.8,35.8,319.2,36.4,318.4,36.4z"/>
<path class="st3" d="M329.9,36.4h-9.1c-0.5,0-1-0.4-1-1v-6.6c0-0.5,0.4-1,1-1h4.5c0.6,0,1.2,0.3,1.6,0.9l3.8,6.3
	C331,35.6,330.6,36.4,329.9,36.4C329.9,36.4,329.9,36.4,329.9,36.4z"/>
<circle class="st4" cx="309.4" cy="37.2" r="2.3"/>
<circle class="st4" cx="325.8" cy="37.2" r="2.3"/>
<path class="st2" d="M428.4,41c0.1,0.1,0.1,0.1,0.2,0.1s0.2,0,0.2-0.1l11.4-13.7c0.1-0.1,0.1-0.2,0-0.3l-4.1-4.7
	c-0.1-0.1-0.1-0.1-0.2-0.1h-14.5c-0.1,0-0.1,0-0.2,0.1L417,27c-0.1,0.1-0.1,0.2,0,0.3L428.4,41z M423.7,27.4l4.1,12.2l-10.1-12.2
	H423.7z M439.4,27.4l-10.1,12.2l4.1-12.2H439.4z M432.8,27.4L428.6,40l-4.3-12.6H432.8z M424.3,26.9l1.6-4.1h5.3l1.6,4.1H424.3z
	 M439.4,26.9h-6l-1.6-4.1h3.9L439.4,26.9z M421.4,22.7h3.9l-1.6,4.1h-6L421.4,22.7z"/>
</svg>
