<?xml version="1.0" encoding="utf-8"?>
<!-- Generator: Adobe Illustrator 24.2.1, SVG Export Plug-In . SVG Version: 6.00 Build 0)  -->
<svg version="1.1" id="Layer_1" xmlns="http://www.w3.org/2000/svg" xmlns:xlink="http://www.w3.org/1999/xlink" x="0px" y="0px"
	 viewBox="0 0 56.2 55.8" style="enable-background:new 0 0 56.2 55.8;" xml:space="preserve">
<style type="text/css">
	.st0{fill:#FFFFFF;}
</style>
<g>
	<path class="st0" d="M6.1,54.8h43.1c2.8,0,5.1-2.3,5.1-5.1V6.7c0-2.8-2.3-5.1-5.1-5.1H6.1c-2.8,0-5.1,2.3-5.1,5.1v43.1
		C1.1,52.5,3.3,54.8,6.1,54.8z"/>
	<g>
		<g>
			<path d="M21.2,9.1H8.5v12.7h12.7V9.1z M19.5,20h-9.2v-9.2h9.2V20z"/>
			<rect x="12.1" y="12.7" width="5.5" height="5.5"/>
			<path d="M34.1,9.1v12.7h12.7V9.1H34.1z M45,20h-9.2v-9.2H45V20z"/>
			<rect x="37.7" y="12.7" width="5.5" height="5.5"/>
			<path d="M8.5,47.2h12.7V34.5H8.5V47.2z M10.3,36.3h9.2v9.2h-9.2V36.3z"/>
			<rect x="12.1" y="38.1" width="5.5" height="5.5"/>
			<rect x="8.5" y="23.6" width="3.6" height="1.8"/>
			<polygon points="19.4,25.5 21.3,25.5 21.3,27.2 17.6,27.2 17.6,27.5 17.6,29.1 17.6,30.9 17.6,32.7 17.6,32.7 19.4,32.7 
				19.4,32.7 23.1,32.7 23.1,30.9 19.4,30.9 19.4,29.1 23.1,29.1 23.1,30.9 24.9,30.9 24.9,29.1 24.9,27.5 24.9,27.2 23.1,27.2 
				23.1,23.7 21.3,23.7 21.3,23.7 19.4,23.7 			"/>
			<polygon points="30.3,29.1 30.3,30.9 28.5,30.9 28.5,32.7 26.7,32.7 26.7,34.5 24.9,34.5 24.9,36.3 23.1,36.3 23.1,32.7 
				24.9,32.7 24.9,30.9 26.7,30.9 26.7,29.1 			"/>
			<polygon points="34,38.1 34,36.3 34,36.3 34,34.5 32.2,34.5 32.2,36.3 26.7,36.3 26.7,38.1 28.5,38.1 28.5,40 26.7,40 26.7,38.1 
				24.9,38.1 24.9,40 23.1,40 23.1,41.8 24.9,41.8 24.9,43.6 23.1,43.6 23.1,47.2 24.9,47.2 26.6,47.2 26.7,47.2 26.7,43.6 
				28.5,43.6 28.5,41.8 30.3,41.8 30.3,38.1 			"/>
			<polygon points="32.1,43.6 32.1,45.4 37.5,45.4 37.5,47.3 43.1,47.3 43.1,45.4 39.3,45.4 39.3,43.6 39.3,41.8 37.5,41.8 
				37.5,43.6 			"/>
			<rect x="28.5" y="45.4" width="3.6" height="1.8"/>
			<rect x="30.3" y="27.2" width="3.7" height="1.8"/>
			<polygon points="44.7,29.1 44.7,30.9 46.5,30.9 46.5,32.7 44.7,32.7 44.7,30.9 42.9,30.9 42.9,32.7 41.1,32.7 41.1,30.9 
				39.3,30.9 39.3,27.2 42.9,27.2 42.9,25.5 41.1,25.5 41.1,23.6 44.7,23.6 44.7,25.5 44.7,25.5 44.7,27.2 46.6,27.2 46.6,29.1 			
				"/>
			<polygon points="28.5,32.7 28.5,34.5 30.3,34.5 30.3,32.7 32.1,32.7 32.1,30.9 30.3,30.9 30.3,32.7 			"/>
			<rect x="30.3" y="41.8" width="1.8" height="1.8"/>
			<rect x="41.1" y="41.8" width="1.8" height="1.8"/>
			<rect x="34" y="30.9" width="1.8" height="1.8"/>
			<polygon points="34,27.2 35.8,27.2 35.8,25.5 39.4,25.5 39.4,23.6 34,23.6 34,25.5 34,25.5 			"/>
			<rect x="8.5" y="27.2" width="1.8" height="5.5"/>
			<polygon points="24.8,23.7 24.9,23.7 24.9,27.2 26.7,27.2 26.7,25.4 28.5,25.4 28.5,23.7 31.2,23.7 31.2,23.7 32.2,23.7 
				32.2,16.4 30.4,16.4 30.4,18.2 28.5,18.2 28.5,20 30.4,20 30.4,21.9 28.5,21.9 28.5,20 26.7,20 26.7,21.9 24.9,21.9 24.9,16.4 
				26.7,16.4 26.7,9.1 24.9,9.1 24.9,10.9 23.1,10.9 23.1,14.6 24.9,14.6 24.9,16.4 23.1,16.4 23.1,23.7 24.8,23.7 			"/>
			<path d="M44.7,36.3v1.9h-1.8v-1.9h-1.8v-3.6h-1.8v-1.8h-1.8v1.8h-1.8v5.4H34v1.8h1.6v1.9h1.9v-1.9h1.8v-1.8l0,0h1.8v0l0,0v1.8
				h1.8v1.9h1.8v3.6h1.8v-9.1H44.7z M39.3,36.3h-1.8v-1.8h1.8L39.3,36.3z"/>
			<rect x="42.9" y="32.7" width="1.8" height="3.6"/>
			<rect x="39.3" y="39.9" width="1.8" height="1.9"/>
			<polygon points="32.2,10.9 32.2,9.1 30.4,9.1 29,9.1 28.5,9.1 28.5,12.8 30.4,12.8 30.4,10.9 			"/>
			<rect x="28.5" y="14.6" width="1.9" height="1.8"/>
			<rect x="30.4" y="12.8" width="1.9" height="1.8"/>
			<rect x="13.9" y="30.9" width="1.8" height="1.8"/>
			<polygon points="15.7,29.1 15.7,23.7 13.9,23.7 13.9,25.4 12.1,25.4 12.1,30.9 13.9,30.9 13.9,29.1 			"/>
		</g>
		<path d="M5.5,14.3c-0.4,0-0.7-0.3-0.7-0.7V6c0-0.4,0.3-0.7,0.7-0.7h7.6c0.4,0,0.7,0.3,0.7,0.7s-0.3,0.7-0.7,0.7H6.2v6.9
			C6.2,14,5.9,14.3,5.5,14.3z"/>
		<path d="M49.8,14.3c-0.4,0-0.7-0.3-0.7-0.7V6.8h-6.9c-0.4,0-0.7-0.3-0.7-0.7s0.3-0.7,0.7-0.7h7.6c0.4,0,0.7,0.3,0.7,0.7v7.6
			C50.5,14,50.2,14.3,49.8,14.3z"/>
		<path d="M13.1,51H5.5c-0.4,0-0.7-0.3-0.7-0.7v-7.6c0-0.4,0.3-0.7,0.7-0.7c0.4,0,0.7,0.3,0.7,0.7v6.9h6.9c0.4,0,0.7,0.3,0.7,0.7
			C13.8,50.7,13.5,51,13.1,51z"/>
		<path d="M49.8,51h-7.6c-0.4,0-0.7-0.3-0.7-0.7c0-0.4,0.3-0.7,0.7-0.7h6.9v-6.9c0-0.4,0.3-0.7,0.7-0.7c0.4,0,0.7,0.3,0.7,0.7v7.6
			C50.5,50.7,50.2,51,49.8,51z"/>
	</g>
</g>
</svg>
